<svg width="763" height="763" viewBox="0 0 763 763" fill="none" xmlns="http://www.w3.org/2000/svg">
<g clip-path="url(#clip0_421_3715)" filter="url(#filter0_d_421_3715)">
<path opacity="0.5" d="M282.066 308.832L690.5 197.22" stroke="#FAFAFA" stroke-width="0.209193" stroke-miterlimit="10" stroke-linecap="round"/>
<path d="M608.479 93.5745L694.331 246.693" stroke="#FAFAFA" stroke-width="0.348655" stroke-miterlimit="10" stroke-linecap="round"/>
<path d="M694.33 421.497L434.986 665.351" stroke="#FAFAFA" stroke-width="0.348655" stroke-miterlimit="10" stroke-linecap="round"/>
<path d="M694.33 411.761L434.986 620.212" stroke="#FAFAFA" stroke-width="0.348655" stroke-miterlimit="10" stroke-linecap="round"/>
<path d="M70.6387 286.827L266.531 213.655" stroke="#FAFAFA" stroke-width="0.348655" stroke-miterlimit="10" stroke-linecap="round"/>
<path d="M608.476 314.844L244.693 213.655" stroke="#FAFAFA" stroke-width="0.348655" stroke-miterlimit="10" stroke-linecap="round"/>
<path d="M70.6387 426.365L280.357 491.433" stroke="#FAFAFA" stroke-width="0.348655" stroke-miterlimit="10" stroke-linecap="round"/>
<path d="M467.734 620.212L70.6387 444.951" stroke="#FAFAFA" stroke-width="0.348655" stroke-miterlimit="10" stroke-linecap="round"/>
<path d="M467.734 665.351L70.6387 463.538" stroke="#FAFAFA" stroke-width="0.348655" stroke-miterlimit="10" stroke-linecap="round"/>
<path d="M452.703 289.192L694.33 339.047" stroke="#FAFAFA" stroke-width="0.348655" stroke-miterlimit="10" stroke-linecap="round"/>
<path d="M478.661 290.948L70.6387 345.822" stroke="#FAFAFA" stroke-width="0.348655" stroke-miterlimit="10" stroke-linecap="round"/>
<path d="M70.6387 422.534L490.075 537.015" stroke="#FAFAFA" stroke-width="0.348655" stroke-miterlimit="10" stroke-linecap="round"/>
<path d="M458.455 537.015L694.329 398.347" stroke="#FAFAFA" stroke-width="0.348655" stroke-miterlimit="10" stroke-linecap="round"/>
<path d="M648.306 106.851L70.6387 314.127" stroke="#FAFAFA" stroke-width="0.348655" stroke-miterlimit="10" stroke-linecap="round"/>
<path d="M280.357 358.702L70.6387 362.944" stroke="#FAFAFA" stroke-width="0.348655" stroke-miterlimit="10" stroke-linecap="round"/>
<path d="M244.693 358.702L694.329 366.561" stroke="#FAFAFA" stroke-width="0.348655" stroke-miterlimit="10" stroke-linecap="round"/>
<path d="M255.314 491.433L694.329 380.34" stroke="#FAFAFA" stroke-width="0.348655" stroke-miterlimit="10" stroke-linecap="round"/>
<g opacity="0.5">
<path d="M608.479 88.7827L694.331 241.917" stroke="#FAFAFA" stroke-width="0.209193" stroke-miterlimit="10" stroke-linecap="round"/>
<path d="M694.33 416.72L434.986 660.56" stroke="#FAFAFA" stroke-width="0.209193" stroke-miterlimit="10" stroke-linecap="round"/>
<path d="M694.33 406.984L434.986 615.421" stroke="#FAFAFA" stroke-width="0.209193" stroke-miterlimit="10" stroke-linecap="round"/>
<path d="M70.6387 282.035L266.531 208.864" stroke="#FAFAFA" stroke-width="0.209193" stroke-miterlimit="10" stroke-linecap="round"/>
<path d="M608.476 310.068L244.693 208.864" stroke="#FAFAFA" stroke-width="0.209193" stroke-miterlimit="10" stroke-linecap="round"/>
<path d="M70.6387 421.588L280.357 486.642" stroke="#FAFAFA" stroke-width="0.209193" stroke-miterlimit="10" stroke-linecap="round"/>
<path d="M467.734 615.421L70.6387 440.175" stroke="#FAFAFA" stroke-width="0.209193" stroke-miterlimit="10" stroke-linecap="round"/>
<path d="M467.734 660.559L70.6387 458.761" stroke="#FAFAFA" stroke-width="0.209193" stroke-miterlimit="10" stroke-linecap="round"/>
<path d="M452.703 284.416L694.33 334.27" stroke="#FAFAFA" stroke-width="0.209193" stroke-miterlimit="10" stroke-linecap="round"/>
<path d="M478.661 286.171L70.6387 341.046" stroke="#FAFAFA" stroke-width="0.209193" stroke-miterlimit="10" stroke-linecap="round"/>
<path d="M70.6387 417.758L490.075 532.223" stroke="#FAFAFA" stroke-width="0.209193" stroke-miterlimit="10" stroke-linecap="round"/>
<path d="M458.455 532.223L694.329 393.555" stroke="#FAFAFA" stroke-width="0.209193" stroke-miterlimit="10" stroke-linecap="round"/>
<path d="M648.306 102.059L70.6387 309.335" stroke="#FAFAFA" stroke-width="0.209193" stroke-miterlimit="10" stroke-linecap="round"/>
<path d="M280.357 353.925L70.6387 358.152" stroke="#FAFAFA" stroke-width="0.209193" stroke-miterlimit="10" stroke-linecap="round"/>
<path d="M244.693 353.925L694.329 361.784" stroke="#FAFAFA" stroke-width="0.209193" stroke-miterlimit="10" stroke-linecap="round"/>
<path d="M255.314 486.641L694.329 375.564" stroke="#FAFAFA" stroke-width="0.209193" stroke-miterlimit="10" stroke-linecap="round"/>
</g>
<g opacity="0.5">
<path d="M608.479 97.2368L694.331 250.356" stroke="#FAFAFA" stroke-width="0.209193" stroke-miterlimit="10" stroke-linecap="round"/>
<path d="M694.33 425.174L434.986 669.014" stroke="#FAFAFA" stroke-width="0.209193" stroke-miterlimit="10" stroke-linecap="round"/>
<path d="M694.33 415.438L434.986 623.875" stroke="#FAFAFA" stroke-width="0.209193" stroke-miterlimit="10" stroke-linecap="round"/>
<path d="M70.6387 290.489L266.531 217.318" stroke="#FAFAFA" stroke-width="0.209193" stroke-miterlimit="10" stroke-linecap="round"/>
<path d="M608.476 318.522L244.693 217.318" stroke="#FAFAFA" stroke-width="0.209193" stroke-miterlimit="10" stroke-linecap="round"/>
<path d="M70.6387 430.042L280.357 495.096" stroke="#FAFAFA" stroke-width="0.209193" stroke-miterlimit="10" stroke-linecap="round"/>
<path d="M467.734 623.875L70.6387 448.629" stroke="#FAFAFA" stroke-width="0.209193" stroke-miterlimit="10" stroke-linecap="round"/>
<path d="M467.734 669.014L70.6387 467.215" stroke="#FAFAFA" stroke-width="0.209193" stroke-miterlimit="10" stroke-linecap="round"/>
<path d="M452.703 292.87L694.33 342.724" stroke="#FAFAFA" stroke-width="0.209193" stroke-miterlimit="10" stroke-linecap="round"/>
<path d="M478.661 294.625L70.6387 349.5" stroke="#FAFAFA" stroke-width="0.209193" stroke-miterlimit="10" stroke-linecap="round"/>
<path d="M70.6387 426.197L490.075 540.677" stroke="#FAFAFA" stroke-width="0.209193" stroke-miterlimit="10" stroke-linecap="round"/>
<path d="M458.455 540.677L694.329 402.01" stroke="#FAFAFA" stroke-width="0.209193" stroke-miterlimit="10" stroke-linecap="round"/>
<path d="M648.306 110.513L70.6387 317.79" stroke="#FAFAFA" stroke-width="0.209193" stroke-miterlimit="10" stroke-linecap="round"/>
<path d="M280.357 362.379L70.6387 366.606" stroke="#FAFAFA" stroke-width="0.209193" stroke-miterlimit="10" stroke-linecap="round"/>
<path d="M244.693 362.379L694.329 370.238" stroke="#FAFAFA" stroke-width="0.209193" stroke-miterlimit="10" stroke-linecap="round"/>
<path d="M255.314 495.095L694.329 384.018" stroke="#FAFAFA" stroke-width="0.209193" stroke-miterlimit="10" stroke-linecap="round"/>
</g>
<path d="M77.5195 284.69V467.063L83.2878 469.962V282.539L77.5195 284.69Z" stroke="#FAFAFA" stroke-width="0.348655" stroke-miterlimit="10" stroke-linecap="round"/>
<path d="M83.2891 282.539L89.5762 283.866V468.085L83.2891 469.962" stroke="#FAFAFA" stroke-width="0.348655" stroke-miterlimit="10" stroke-linecap="round"/>
<path d="M269.188 487.923V220.461L282.067 224.047V484.658L269.188 487.923Z" stroke="#FAFAFA" stroke-width="0.348655" stroke-miterlimit="10" stroke-linecap="round"/>
<path d="M269.186 220.461L256.795 224.276V484.093L269.186 487.923V220.461Z" stroke="#FAFAFA" stroke-width="0.348655" stroke-miterlimit="10" stroke-linecap="round"/>
<path d="M329.678 311.93V493.234L339.032 495.782V310.709L329.678 311.93Z" stroke="#FAFAFA" stroke-width="0.348655" stroke-miterlimit="10" stroke-linecap="round"/>
<path d="M339.031 310.709L348.553 312.189V492.349L339.031 495.782" stroke="#FAFAFA" stroke-width="0.348655" stroke-miterlimit="10" stroke-linecap="round"/>
<path d="M468.482 531.109V292.428L455.221 294.106V527.493L468.482 531.109Z" stroke="#FAFAFA" stroke-width="0.348655" stroke-miterlimit="10" stroke-linecap="round"/>
<path d="M468.482 292.428L480.523 294.93V524.029L468.482 531.109V292.428Z" stroke="#FAFAFA" stroke-width="0.348655" stroke-miterlimit="10" stroke-linecap="round"/>
<path d="M621.342 116.526V490.121L628.529 483.361V129.344L621.342 116.526Z" stroke="#FAFAFA" stroke-width="0.69731" stroke-miterlimit="10" stroke-linecap="round"/>
<path d="M621.341 116.526L610.109 120.554V488.58L621.341 490.121V116.526Z" stroke="#FAFAFA" stroke-width="0.69731" stroke-miterlimit="10" stroke-linecap="round"/>
<path d="M683.344 227.099V431.828L679.041 435.887V219.408L683.344 227.099Z" stroke="#FAFAFA" stroke-width="0.348655" stroke-miterlimit="10" stroke-linecap="round"/>
<path d="M679.04 219.408L672.279 221.697V435.887H679.04" stroke="#FAFAFA" stroke-width="0.348655" stroke-miterlimit="10" stroke-linecap="round"/>
<path d="M415.363 190.43V461.783L425.084 463.538V186.95L415.363 190.43Z" stroke="#FAFAFA" stroke-width="0.348655" stroke-miterlimit="10" stroke-linecap="round"/>
<path d="M425.084 186.95L434.988 192.261V458.899L425.084 463.538V186.95Z" stroke="#FAFAFA" stroke-width="0.348655" stroke-miterlimit="10" stroke-linecap="round"/>
<path d="M630.787 491.433L70.6387 414.34" stroke="#FAFAFA" stroke-width="0.348655" stroke-miterlimit="10" stroke-linecap="round"/>
<path d="M672.279 475.486L579.422 465.903V315.211" stroke="#FAFAFA" stroke-width="0.69731" stroke-miterlimit="10" stroke-linecap="round"/>
<path d="M567.796 158.109L463.875 192.612" stroke="#FAFAFA" stroke-width="0.69731" stroke-miterlimit="10" stroke-linecap="round"/>
<path d="M470.436 185.547V292.428" stroke="#FAFAFA" stroke-width="0.69731" stroke-miterlimit="10" stroke-linecap="round"/>
<path d="M470.436 190.445L491.677 199.708L562.774 177.581" stroke="#FAFAFA" stroke-width="0.69731" stroke-miterlimit="10" stroke-linecap="round"/>
<path d="M491.678 199.708V295.998" stroke="#FAFAFA" stroke-width="0.69731" stroke-miterlimit="10" stroke-linecap="round"/>
<path d="M499.201 298.761V205.018L562.774 185.547" stroke="#FAFAFA" stroke-width="0.69731" stroke-miterlimit="10" stroke-linecap="round"/>
<path d="M499.201 205.018L504.512 208.116L562.774 190.414" stroke="#FAFAFA" stroke-width="0.69731" stroke-miterlimit="10" stroke-linecap="round"/>
<path d="M504.512 208.116V299.89" stroke="#FAFAFA" stroke-width="0.69731" stroke-miterlimit="10" stroke-linecap="round"/>
<path d="M538.021 193.131V306.787" stroke="#FAFAFA" stroke-width="0.69731" stroke-miterlimit="10" stroke-linecap="round"/>
<path d="M542.875 307.794V191.635L546.827 195.252V308.603" stroke="#FAFAFA" stroke-width="0.69731" stroke-miterlimit="10" stroke-linecap="round" stroke-linejoin="round"/>
<path d="M638.279 193.589V292.428L665.854 306.436V229.877L638.279 193.589Z" stroke="#FAFAFA" stroke-width="0.69731" stroke-miterlimit="10" stroke-linecap="round"/>
<path d="M665.854 229.877H658.041L638.279 209.23" stroke="#FAFAFA" stroke-width="0.69731" stroke-miterlimit="10" stroke-linecap="round"/>
<path d="M658.041 229.877V302.225" stroke="#FAFAFA" stroke-width="0.69731" stroke-miterlimit="10" stroke-linecap="round"/>
<path d="M655.386 301.11V231.647L638.279 213.655" stroke="#FAFAFA" stroke-width="0.69731" stroke-miterlimit="10" stroke-linecap="round"/>
<path d="M655.386 231.647H653.249L638.279 217.272" stroke="#FAFAFA" stroke-width="0.69731" stroke-miterlimit="10" stroke-linecap="round"/>
<path d="M653.25 231.647V300.027" stroke="#FAFAFA" stroke-width="0.69731" stroke-miterlimit="10" stroke-linecap="round"/>
<path d="M442.816 524.624V325.252L355.91 334.316V500.391L378.19 491.433V331.997" stroke="#FAFAFA" stroke-width="0.69731" stroke-miterlimit="10" stroke-linecap="round"/>
<path d="M378.189 491.433L442.816 508.097" stroke="#FAFAFA" stroke-width="0.69731" stroke-miterlimit="10" stroke-linecap="round"/>
<path d="M407.259 347.897L385.438 349.668V390.152H407.259V347.897Z" stroke="#FAFAFA" stroke-width="0.69731" stroke-miterlimit="10" stroke-linecap="round"/>
<path d="M411.99 347.898V390.153H438.833V345.822L411.99 347.898Z" stroke="#FAFAFA" stroke-width="0.69731" stroke-miterlimit="10" stroke-linecap="round"/>
<path d="M385.438 395.387H407.259V434.33L385.438 432.865V395.387Z" stroke="#FAFAFA" stroke-width="0.69731" stroke-miterlimit="10" stroke-linecap="round"/>
<path d="M411.99 395.387V434.33L438.833 435.887V395.982L411.99 395.387Z" stroke="#FAFAFA" stroke-width="0.69731" stroke-miterlimit="10" stroke-linecap="round"/>
<path d="M494.15 325.252V363.066L569.993 364.394V334.759L494.15 325.252Z" stroke="#FAFAFA" stroke-width="0.69731" stroke-miterlimit="10" stroke-linecap="round"/>
<path d="M561.492 364.241V333.69" stroke="#FAFAFA" stroke-width="0.69731" stroke-miterlimit="10" stroke-linecap="round"/>
<path d="M529.432 329.677V363.692" stroke="#FAFAFA" stroke-width="0.69731" stroke-miterlimit="10" stroke-linecap="round"/>
<path d="M535.641 330.456V363.692" stroke="#FAFAFA" stroke-width="0.69731" stroke-miterlimit="10" stroke-linecap="round"/>
<path d="M524.975 329.677V363.631" stroke="#FAFAFA" stroke-width="0.69731" stroke-miterlimit="10" stroke-linecap="round"/>
<path d="M638.279 343.167V365.584L665.854 366.072V347.074L638.279 343.167Z" stroke="#FAFAFA" stroke-width="0.69731" stroke-miterlimit="10" stroke-linecap="round"/>
<path d="M661.629 346.463V365.996" stroke="#FAFAFA" stroke-width="0.69731" stroke-miterlimit="10" stroke-linecap="round"/>
<path d="M652.059 345.12V365.828" stroke="#FAFAFA" stroke-width="0.69731" stroke-miterlimit="10" stroke-linecap="round"/>
<path d="M648.305 344.815V365.767" stroke="#FAFAFA" stroke-width="0.69731" stroke-miterlimit="10" stroke-linecap="round"/>
<path d="M645.941 344.25V365.721" stroke="#FAFAFA" stroke-width="0.69731" stroke-miterlimit="10" stroke-linecap="round"/>
<path d="M77.5215 280.326V448.003L446.6 610.873L621.342 470.237L579.423 465.903L468.483 531.109V292.427L290.475 316.263V482.536" stroke="#FAFAFA" stroke-width="1.39462" stroke-miterlimit="10" stroke-linecap="round"/>
<path d="M621.342 106.851V324" stroke="#FAFAFA" stroke-width="1.39462" stroke-miterlimit="10" stroke-linecap="round"/>
<path d="M257.207 217.135V359.19H269.186V487.923L290.474 482.537L355.909 500.391" stroke="#FAFAFA" stroke-width="1.39462" stroke-miterlimit="10" stroke-linecap="round"/>
<path d="M135.341 446.431L89.5762 452.886V362.944L134.471 361.647L135.341 446.431ZM135.341 446.431L269.186 487.923" stroke="#FAFAFA" stroke-width="1.39462" stroke-miterlimit="10" stroke-linecap="round"/>
<path d="M77.5215 448.003V467.063L446.478 654.547V610.873" stroke="#FAFAFA" stroke-width="1.39462" stroke-miterlimit="10" stroke-linecap="round"/>
<path d="M227.146 641.073C248.898 641.073 266.532 634.316 266.532 625.981C266.532 617.645 248.898 610.888 227.146 610.888C205.394 610.888 187.76 617.645 187.76 625.981C187.76 634.316 205.394 641.073 227.146 641.073Z" stroke="#FAFAFA" stroke-width="0.69731" stroke-miterlimit="10" stroke-linecap="round"/>
<path d="M199.067 579.804C199.067 583.97 190.247 587.357 179.367 587.357C168.486 587.357 159.666 583.985 159.666 579.804C159.666 575.622 168.486 572.25 179.367 572.25C190.247 572.25 199.067 575.622 199.067 579.804Z" stroke="#FAFAFA" stroke-width="0.69731" stroke-miterlimit="10" stroke-linecap="round"/>
<path d="M638.281 550.978C649.161 550.978 657.981 547.596 657.981 543.424C657.981 539.252 649.161 535.87 638.281 535.87C627.4 535.87 618.58 539.252 618.58 543.424C618.58 547.596 627.4 550.978 638.281 550.978Z" stroke="#FAFAFA" stroke-width="0.69731" stroke-miterlimit="10" stroke-linecap="round"/>
<path d="M622.47 579.804C622.47 583.97 613.649 587.357 602.769 587.357C591.889 587.357 583.068 583.985 583.068 579.804C583.068 575.622 591.889 572.25 602.769 572.25C613.649 572.25 622.47 575.622 622.47 579.804Z" stroke="#FAFAFA" stroke-width="0.69731" stroke-miterlimit="10" stroke-linecap="round"/>
<path d="M561.492 633.534C572.372 633.534 581.192 630.152 581.192 625.98C581.192 621.809 572.372 618.427 561.492 618.427C550.611 618.427 541.791 621.809 541.791 625.98C541.791 630.152 550.611 633.534 561.492 633.534Z" stroke="#FAFAFA" stroke-width="0.69731" stroke-miterlimit="10" stroke-linecap="round"/>
<path d="M446.478 654.547L683.343 431.828V227.1L621.342 116.526L415.363 190.43V261.129L257.208 217.135L77.5215 284.691" stroke="#FAFAFA" stroke-width="1.39462" stroke-miterlimit="10" stroke-linecap="round"/>
<path d="M415.363 261.129V299.493" stroke="#FAFAFA" stroke-width="1.39462" stroke-miterlimit="10" stroke-linecap="round"/>
<path d="M621.342 470.237V324" stroke="#FAFAFA" stroke-width="1.39462" stroke-miterlimit="10" stroke-linecap="round"/>
<path d="M468.482 292.428L578.782 315.211L579.423 465.903" stroke="#FAFAFA" stroke-width="1.39462" stroke-miterlimit="10" stroke-linecap="round"/>
<path d="M291.908 251.012V292.427L402.833 314.127V279.548L291.908 251.012Z" stroke="#FAFAFA" stroke-width="0.69731" stroke-miterlimit="10" stroke-linecap="round"/>
<path d="M402.833 279.548L393.891 281.791L394.348 312.464" stroke="#FAFAFA" stroke-width="0.69731" stroke-miterlimit="10" stroke-linecap="round"/>
<path d="M393.891 281.791L291.908 256.429" stroke="#FAFAFA" stroke-width="0.69731" stroke-miterlimit="10" stroke-linecap="round"/>
<path d="M390.824 311.777V283.729L291.908 259.389" stroke="#FAFAFA" stroke-width="0.69731" stroke-miterlimit="10" stroke-linecap="round"/>
<path d="M390.824 283.729H388.383V311.304" stroke="#FAFAFA" stroke-width="0.69731" stroke-miterlimit="10" stroke-linecap="round"/>
<path d="M367.781 278.052V307.26" stroke="#FAFAFA" stroke-width="0.69731" stroke-miterlimit="10" stroke-linecap="round"/>
<path d="M364.348 277.213V306.329" stroke="#FAFAFA" stroke-width="0.69731" stroke-miterlimit="10" stroke-linecap="round"/>
<path d="M361.982 277.213V306.238" stroke="#FAFAFA" stroke-width="0.69731" stroke-miterlimit="10" stroke-linecap="round"/>
<path d="M329.678 269.11V299.813" stroke="#FAFAFA" stroke-width="0.69731" stroke-miterlimit="10" stroke-linecap="round"/>
<path d="M324.947 298.882V267.508" stroke="#FAFAFA" stroke-width="0.69731" stroke-miterlimit="10" stroke-linecap="round"/>
<path d="M322.17 266.821V298.226" stroke="#FAFAFA" stroke-width="0.69731" stroke-miterlimit="10" stroke-linecap="round"/>
<path d="M257.207 359.19L134.471 361.647" stroke="#FAFAFA" stroke-width="1.39462" stroke-miterlimit="10" stroke-linecap="round"/>
<path d="M224.643 258.871V325.115" stroke="#FAFAFA" stroke-width="0.69731" stroke-miterlimit="10" stroke-linecap="round"/>
<path d="M175.49 276.496V331.722" stroke="#FAFAFA" stroke-width="0.69731" stroke-miterlimit="10" stroke-linecap="round"/>
<path d="M145.656 287.208V335.735" stroke="#FAFAFA" stroke-width="0.69731" stroke-miterlimit="10" stroke-linecap="round"/>
<path d="M106.043 301.416V342.282" stroke="#FAFAFA" stroke-width="0.69731" stroke-miterlimit="10" stroke-linecap="round"/>
<path d="M106.043 301.416L111.933 302.24V340.267" stroke="#FAFAFA" stroke-width="0.69731" stroke-miterlimit="10" stroke-linecap="round"/>
<path d="M111.932 302.24L145.656 291.39" stroke="#FAFAFA" stroke-width="0.69731" stroke-miterlimit="10" stroke-linecap="round"/>
<path d="M175.49 276.496L183.486 277.457V330.486" stroke="#FAFAFA" stroke-width="0.69731" stroke-miterlimit="10" stroke-linecap="round"/>
<path d="M183.486 277.457L224.643 263.296" stroke="#FAFAFA" stroke-width="0.69731" stroke-miterlimit="10" stroke-linecap="round"/>
<path d="M185.988 330.318V278.999L224.642 266.028" stroke="#FAFAFA" stroke-width="0.69731" stroke-miterlimit="10" stroke-linecap="round"/>
<path d="M207.963 271.613V327.358" stroke="#FAFAFA" stroke-width="0.69731" stroke-miterlimit="10" stroke-linecap="round"/>
<path d="M211.152 326.93V270.545L213.426 271.613V326.625" stroke="#FAFAFA" stroke-width="0.69731" stroke-miterlimit="10" stroke-linecap="round"/>
<path d="M185.988 278.999L187.758 279.747V330.074" stroke="#FAFAFA" stroke-width="0.69731" stroke-miterlimit="10" stroke-linecap="round"/>
<path d="M187.76 279.746L207.964 273.246" stroke="#FAFAFA" stroke-width="0.69731" stroke-miterlimit="10" stroke-linecap="round"/>
<path d="M213.428 271.613L224.644 267.798" stroke="#FAFAFA" stroke-width="0.69731" stroke-miterlimit="10" stroke-linecap="round"/>
<path d="M114.021 339.993V303.491L145.655 294.045" stroke="#FAFAFA" stroke-width="0.69731" stroke-miterlimit="10" stroke-linecap="round"/>
<path d="M129.832 298.776V337.856" stroke="#FAFAFA" stroke-width="0.69731" stroke-miterlimit="10" stroke-linecap="round"/>
<path d="M131.938 337.582V298.135L133.479 298.776V337.368" stroke="#FAFAFA" stroke-width="0.69731" stroke-miterlimit="10" stroke-linecap="round"/>
<path d="M114.021 303.491L115.441 304.01V339.795" stroke="#FAFAFA" stroke-width="0.69731" stroke-miterlimit="10" stroke-linecap="round"/>
<path d="M115.443 304.01L129.834 299.798" stroke="#FAFAFA" stroke-width="0.69731" stroke-miterlimit="10" stroke-linecap="round"/>
<path d="M133.479 298.776L145.656 295.159" stroke="#FAFAFA" stroke-width="0.69731" stroke-miterlimit="10" stroke-linecap="round"/>
<path d="M83.2891 231.647V527.798" stroke="#FAFAFA" stroke-width="0.209193" stroke-miterlimit="10" stroke-linecap="round"/>
<path d="M256.795 176.268V618" stroke="#FAFAFA" stroke-width="0.209193" stroke-miterlimit="10" stroke-linecap="round"/>
<path d="M269.188 181.136V630.833" stroke="#FAFAFA" stroke-width="0.209193" stroke-miterlimit="10" stroke-linecap="round"/>
<path d="M414.842 171.843V673.226" stroke="#FAFAFA" stroke-width="0.209193" stroke-miterlimit="10" stroke-linecap="round"/>
<path d="M621.342 83.5791V536.252" stroke="#FAFAFA" stroke-width="0.209193" stroke-miterlimit="10" stroke-linecap="round"/>
<path d="M339.031 141.247V517.726" stroke="#FAFAFA" stroke-width="0.209193" stroke-miterlimit="10" stroke-linecap="round"/>
<path d="M683.342 184.738V476.692" stroke="#FAFAFA" stroke-width="0.209193" stroke-miterlimit="10" stroke-linecap="round"/>
<path d="M468.91 257.269V549.223" stroke="#FAFAFA" stroke-width="0.209193" stroke-miterlimit="10" stroke-linecap="round"/>
<path d="M70.6387 266.058L645.941 37.4482" stroke="#FAFAFA" stroke-width="0.209193" stroke-miterlimit="10" stroke-linecap="round"/>
<path d="M694.33 219.408L589.738 37.4482" stroke="#FAFAFA" stroke-width="0.209193" stroke-miterlimit="10" stroke-linecap="round"/>
<path d="M562.773 155.24V311.533" stroke="#FAFAFA" stroke-width="0.69731" stroke-miterlimit="10" stroke-linecap="round"/>
<path d="M146.756 370.238H256.796V440.175L146.756 424.808V370.238Z" stroke="#FAFAFA" stroke-width="0.69731" stroke-miterlimit="10" stroke-linecap="round"/>
<path d="M153.73 370.238V423.709L146.756 424.808" stroke="#FAFAFA" stroke-width="0.69731" stroke-miterlimit="10" stroke-linecap="round"/>
<path d="M153.73 423.709L256.797 437.291" stroke="#FAFAFA" stroke-width="0.69731" stroke-miterlimit="10" stroke-linecap="round"/>
<path d="M157.07 370.238V421.588L256.794 433.232" stroke="#FAFAFA" stroke-width="0.69731" stroke-miterlimit="10" stroke-linecap="round"/>
<path d="M201.768 370.238V426.807" stroke="#FAFAFA" stroke-width="0.69731" stroke-miterlimit="10" stroke-linecap="round"/>
<path d="M210.039 427.402V370.238" stroke="#FAFAFA" stroke-width="0.69731" stroke-miterlimit="10" stroke-linecap="round"/>
<path d="M206.941 370.238V427.402" stroke="#FAFAFA" stroke-width="0.69731" stroke-miterlimit="10" stroke-linecap="round"/>
<path d="M157.07 421.588H159.588V370.238" stroke="#FAFAFA" stroke-width="0.69731" stroke-miterlimit="10" stroke-linecap="round"/>
</g>
<defs>
<filter id="filter0_d_421_3715" x="-4" y="0" width="771" height="771" filterUnits="userSpaceOnUse" color-interpolation-filters="sRGB">
<feFlood flood-opacity="0" result="BackgroundImageFix"/>
<feColorMatrix in="SourceAlpha" type="matrix" values="0 0 0 0 0 0 0 0 0 0 0 0 0 0 0 0 0 0 127 0" result="hardAlpha"/>
<feOffset dy="4"/>
<feGaussianBlur stdDeviation="2"/>
<feComposite in2="hardAlpha" operator="out"/>
<feColorMatrix type="matrix" values="0 0 0 0 1 0 0 0 0 1 0 0 0 0 1 0 0 0 0.25 0"/>
<feBlend mode="normal" in2="BackgroundImageFix" result="effect1_dropShadow_421_3715"/>
<feBlend mode="normal" in="SourceGraphic" in2="effect1_dropShadow_421_3715" result="shape"/>
</filter>
<clipPath id="clip0_421_3715">
<rect width="763" height="763" fill="white"/>
</clipPath>
</defs>
</svg>
