<svg width="1920" height="783" viewBox="0 0 1920 783" fill="none" xmlns="http://www.w3.org/2000/svg">
<g clip-path="url(#clip0_2911_2011)">
<rect width="1920" height="783" fill="black" fill-opacity="0.2"/>
<rect width="1920" height="676" fill="#151762"/>
<path d="M1191.22 320.175C1210.12 320.853 1417.36 362.545 1427.79 368.281L1435.09 369.807C1475.92 371.983 1520.51 382.141 1560.8 390.272C1568.31 395.365 1572.08 399.208 1574.28 409.14C1576.4 418.74 1576.32 438.795 1571.99 447.47C1579.62 461.909 1582.68 549.172 1578.6 565.737C1578.01 568.11 1577.04 569.679 1575.63 571.544L1574.93 572.25L1569.13 569.036C1569.4 567.27 1569.54 566.959 1569.32 564.91C1567.86 551.489 1552.52 502.167 1543.51 495.866C1543.03 506.646 1522.9 544.312 1515.63 551.976C1514.6 553.057 1513.52 553.989 1512.32 554.823C1512.09 561.795 1511.25 566.316 1506.24 571.381C1505.06 572.575 1503.73 573.635 1502.43 574.666C1504.34 585.488 1480.85 632.909 1474.41 643.032C1472.87 645.441 1470.74 647.243 1468.52 648.811C1468.19 654.843 1465.9 659.598 1461.81 663.582C1459.34 665.991 1456.22 667.912 1453.32 669.593C1453.33 683.601 1429.58 725.124 1419.62 735.452C1418.3 736.822 1416.65 737.839 1415.03 738.715C1413.67 747.164 1410.87 752.575 1404.39 757.619C1403.88 758.015 1403.36 758.375 1402.84 758.749C1402.43 772.927 1376.75 808.707 1367.13 818.554C1365.34 820.383 1363.19 821.818 1361.09 823.146L1360.16 823.739C1359.69 830.768 1355.34 836.37 1350.61 840.855C1348.16 843.193 1345.48 845.094 1342.66 846.831C1341.74 856.213 1302 907.18 1293.25 915.904C1291.96 917.19 1290.55 917.868 1288.98 918.638C1287.52 927.115 1284.33 934.801 1277.81 939.943C1276.97 940.593 1276.1 941.187 1275.23 941.773C1276.73 954.065 1264.37 972.77 1260.07 984.666C1251.92 1007.24 1253.63 1053.52 1245.34 1070.57C1247.01 1073.33 1248.51 1075.57 1249.45 1078.75C1252.2 1085.73 1271.13 1146.78 1270.8 1150.41C1277.6 1155.26 1286.59 1163.7 1288.73 1172.6L1288.14 1175.6C1287.63 1175.94 1287.14 1176.29 1286.63 1176.61C1281.79 1179.54 1197.87 1175.76 1189.6 1173.21C1193.52 1162.1 1193.46 1154.28 1189.13 1143.35C1189.82 1141.86 1189.89 1141.78 1190.53 1140.02C1196.17 1124.38 1195.03 1075.28 1189.29 1060.36C1189.56 1059.78 1189.84 1059.2 1190.09 1058.61C1195.75 1044.77 1194.57 940.664 1189.58 925.688C1189.9 924.869 1190.21 924.049 1190.49 923.208C1193.29 914.597 1191.89 909.292 1188.73 901.38C1189.52 899.826 1190.2 898.251 1190.75 896.57C1195.59 881.982 1194.56 836.97 1188.82 823.414C1188.98 823.103 1189.15 822.807 1189.31 822.489C1193.9 813.213 1192.28 803.889 1189.9 794.253C1195.19 777.603 1194.7 738.341 1189.91 721.783C1193.1 712.041 1192.42 703.967 1189.81 694.275C1190.07 693.498 1190.35 692.721 1190.59 691.937C1195.03 677.745 1194.67 637.409 1188.87 624.27C1189.65 622.546 1190.39 620.816 1190.97 619C1193.65 610.679 1191.82 604.533 1188.82 596.925C1189 596.565 1189.2 596.211 1189.37 595.844C1195.87 581.772 1194.06 539.105 1189.72 524.341C1193.02 514.932 1192.19 508.574 1189.79 499.186C1195.69 483.574 1194.9 432.897 1189.48 417.68C1192.67 408.483 1192.12 403.439 1188.75 394.68C1197 377.832 1191.9 339.912 1191.22 320.175Z" fill="#FF6602"/>
<path d="M1295.46 338.276L1191.12 321.24L1192.18 1149.62H1303.98L1295.46 338.276Z" fill="#FF6601"/>
<path d="M1146.72 337.425C1162.76 336.684 1177.62 329.047 1191.22 320.175C1191.9 339.912 1197 377.832 1188.75 394.68C1192.12 403.439 1192.66 408.483 1189.48 417.68C1194.9 432.897 1195.69 483.574 1189.79 499.186C1192.19 508.574 1193.02 514.932 1189.71 524.341C1194.06 539.105 1195.86 581.772 1189.37 595.844C1189.2 596.211 1189 596.565 1188.81 596.925C1191.82 604.533 1193.65 610.679 1190.97 619C1190.39 620.816 1189.64 622.546 1188.87 624.27C1194.67 637.409 1195.03 677.745 1190.59 691.937C1190.35 692.721 1190.07 693.498 1189.8 694.275C1192.42 703.967 1193.1 712.041 1189.91 721.783C1194.7 738.341 1195.19 777.603 1189.9 794.253C1192.28 803.889 1193.9 813.213 1189.31 822.489C1189.15 822.807 1188.98 823.103 1188.81 823.414C1194.55 836.97 1195.59 881.982 1190.75 896.57C1190.19 898.251 1189.52 899.826 1188.73 901.38C1191.89 909.292 1193.28 914.597 1190.49 923.208C1190.21 924.049 1189.89 924.869 1189.58 925.688C1194.57 940.664 1195.75 1044.77 1190.09 1058.61C1189.84 1059.2 1189.56 1059.78 1189.29 1060.36C1195.03 1075.28 1196.16 1124.38 1190.53 1140.02C1189.89 1141.78 1189.82 1141.86 1189.13 1143.35C1193.46 1154.28 1193.51 1162.1 1189.59 1173.21C1185.09 1177.08 981.122 1171.07 959.891 1170.76C960.88 1168.75 961.864 1166.59 962.304 1164.33C965.867 1146.26 961.008 1024.18 960.867 995.453L960 563C960.006 538.806 960 447 960 427.5C982.106 420.337 1142.2 345.803 1146.72 337.425Z" fill="#DF7C9A"/>
<path d="M1092.49 435.998L1097.79 437.467C1098.25 438.52 1098.97 440.039 1099.29 441.226C1103.22 455.968 1102.82 507.769 1096.71 521.721C1090.4 527.965 1038.77 545.838 1027.1 550.726C1019.15 535.552 1032.7 487.192 1022.5 465.046C1045.59 459.627 1070.6 445.902 1092.49 435.998Z" fill="#0021FE"/>
<path d="M1093.03 618.061L1097.91 619.452C1098.36 620.512 1099.09 622.08 1099.39 623.288C1103.27 638.412 1102.63 689.931 1096.61 704.292C1084.82 715.1 1044.21 727.257 1028.2 732.979C1022.74 729.737 1029.73 662.706 1022.3 649.15C1044.96 643.845 1071.34 627.731 1093.03 618.061Z" fill="#0021FE"/>
<path d="M1969.16 -2.96288C1969.34 -54.2009 1974.71 -102.652 1936.48 -142.413C1935.22 -143.728 1933.94 -145.01 1932.62 -146.259C1931.3 -147.509 1929.96 -148.725 1928.58 -149.907C1927.2 -151.089 1925.8 -152.235 1924.37 -153.345C1922.94 -154.456 1921.48 -155.53 1920 -156.567C1918.52 -157.603 1917.01 -158.602 1915.48 -159.562C1913.95 -160.524 1912.39 -161.445 1910.82 -162.327C1909.24 -163.208 1907.64 -164.05 1906.03 -164.851C1904.41 -165.652 1902.77 -166.412 1901.12 -167.13C1899.47 -167.848 1897.8 -168.524 1896.11 -169.158C1894.42 -169.792 1892.72 -170.383 1891.01 -170.931C1889.29 -171.479 1887.57 -171.983 1885.83 -172.443C1884.09 -172.904 1882.34 -173.32 1880.58 -173.692C1878.82 -174.063 1877.05 -174.39 1875.28 -174.673C1873.5 -174.955 1871.72 -175.192 1869.94 -175.385C1868.15 -175.577 1866.36 -175.723 1864.56 -175.824C1862.77 -175.926 1860.97 -175.982 1859.18 -175.993C1857.36 -176.014 1855.54 -175.988 1853.72 -175.916C1851.9 -175.842 1850.08 -175.723 1848.27 -175.557C1846.46 -175.392 1844.65 -175.18 1842.85 -174.922C1841.04 -174.664 1839.25 -174.36 1837.46 -174.01C1835.67 -173.66 1833.89 -173.265 1832.13 -172.825C1830.36 -172.384 1828.6 -171.898 1826.86 -171.368C1825.11 -170.836 1823.38 -170.26 1821.66 -169.642C1819.95 -169.023 1818.25 -168.36 1816.56 -167.654C1814.88 -166.948 1813.21 -166.199 1811.57 -165.408C1809.92 -164.617 1808.29 -163.785 1806.68 -162.91C1805.08 -162.036 1803.49 -161.12 1801.93 -160.164C1800.37 -159.209 1798.83 -158.215 1797.32 -157.181C1795.8 -156.146 1794.31 -155.073 1792.85 -153.963C1791.39 -152.853 1789.96 -151.707 1788.56 -150.523C1787.15 -149.34 1785.78 -148.121 1784.43 -146.867C1783.08 -145.613 1781.77 -144.325 1780.49 -143.004C1741.98 -103.49 1749.74 -52.5258 1749.89 -1.61217C1741.16 -1.16941 1732.44 -0.624606 1723.7 -0.734787L1297.06 -0.993923C1296.22 0.546563 1295.42 2.17478 1294.9 3.85809C1293.79 7.48997 1292.77 547.336 1292.77 547.336C1292.77 547.336 1290.91 921.807 1294.32 933.961C1294.32 933.961 1293.97 1106.72 1300.31 1158.29C1302.11 1160.59 1303.3 1162.03 1306.02 1163.29C1324.84 1163.45 1343.66 1163.2 1362.47 1162.56C1394.92 1164.32 1427.9 1162.98 1460.39 1162.83L1551.81 1162.89L1649.98 1162.58L1718.44 1162.66L1730.17 1162.85L1751.35 1162.75C1784.05 1163.24 1816.83 1162.78 1849.53 1162.79L1867.39 1162.8L1933.8 1162.72L1933.92 591.412L1968.8 591.432L1982.28 591.335L1982.29 449.255C1982.27 426.757 1985.49 397.684 1980.35 376.027L1982.33 365.671C1986.78 361.771 1989.75 362.638 1995.49 362.375C1999.42 322.786 1995.09 280.009 1994.82 240.032C1994.23 158.961 1994.57 77.894 1995.82 -3.16897L1969.16 -2.96288Z" fill="#303289"/>
<path d="M1650.02 67.4388L1549.94 66.7637L1550.52 1163.46L1649.85 1163.14L1650.02 67.4388Z" fill="#FF6601"/>
<path d="M1459.6 66.937L1362.92 66.7637C1360.37 70.8501 1359.85 74.1536 1359.69 78.8763C1356.76 166.68 1359.45 255.683 1359.45 343.611L1359.43 862.074V1075.29C1359.45 1095.87 1356.24 1139.75 1360.45 1157.23C1360.93 1159.22 1361.74 1160.82 1362.76 1162.56C1395.14 1164.32 1428.07 1162.98 1460.5 1162.83L1459.6 66.937Z" fill="#FF6601"/>
<path d="M1191.12 322.305L1295.46 337.211L1191.12 238.189V322.305Z" fill="white"/>
<path d="M1191.12 322.304V238.188L959 429.844L1191.12 322.304Z" fill="#A6AEE3"/>
<path fill-rule="evenodd" clip-rule="evenodd" d="M525.66 520.375C513.579 485.62 556.194 456.386 570.997 422.699C581.171 399.545 583.226 374.055 598.733 354.076C616.252 331.506 638.056 313.348 664.42 302.337C697.836 288.382 734.979 269.77 768.642 283.117C802.879 296.691 822.517 334.116 833.353 369.315C843.193 401.276 830.305 433.794 825.203 466.844C819.975 500.718 822.512 536.395 803.195 564.708C781.21 596.931 750.787 633.213 711.779 633.09C672.596 632.966 653.674 584.427 620.158 564.129C589.722 545.697 537.343 553.986 525.66 520.375Z" fill="#E84845"/>
<path fill-rule="evenodd" clip-rule="evenodd" d="M506.048 21.9455C484.573 -39.8352 560.325 -91.8004 586.638 -151.681C604.723 -192.84 608.376 -238.15 635.942 -273.664C667.083 -313.784 705.84 -346.062 752.705 -365.634C812.104 -390.441 878.129 -423.525 937.968 -399.8C998.827 -375.671 1033.73 -309.145 1053 -246.575C1070.49 -189.762 1047.58 -131.959 1038.51 -73.2104C1029.22 -12.9976 1033.73 50.4214 999.388 100.749C960.308 158.029 906.229 222.523 836.888 222.304C767.237 222.084 733.603 135.802 674.026 99.7217C619.923 66.9565 526.815 81.6901 506.048 21.9455Z" fill="#0021FE"/>
<path fill-rule="evenodd" clip-rule="evenodd" d="M1816.89 -34.3243C1858.14 -26.7305 1882.48 13.1235 1913.75 41.0789C1941.14 65.5644 1978.18 83.3774 1988.1 118.743C1997.9 153.687 1981.08 189.989 1964.59 222.322C1950.17 250.588 1918.59 263.554 1900.84 289.851C1867.77 338.827 1874.71 428.78 1816.89 441.054C1764 452.28 1748.29 360.406 1702.3 331.996C1649.76 299.537 1545.27 326.943 1533.93 266.251C1521.88 201.761 1630.34 181.142 1663.53 124.541C1685.56 86.9775 1659.86 31.2464 1690.1 -0.0862046C1721.26 -32.366 1772.75 -42.4474 1816.89 -34.3243Z" fill="#367D57"/>
<path d="M648.383 -24.3214L960.002 -40.0391V929.67H648.383V-24.3214Z" fill="#0021FE"/>
<path d="M692.084 481.376L774.832 481.394C774.661 530.594 774.881 579.791 775.492 628.985L690.754 628.661C690.858 579.563 691.301 530.468 692.084 481.376Z" fill="#E84845"/>
<path d="M690.754 679.673L774.522 679.555C776.018 727.413 775.301 775.497 775.436 823.391C747.71 825.068 719.393 824.152 691.578 824.388L690.754 679.673Z" fill="#E84845"/>
<path d="M826.055 679.708L916.26 679.555C915.196 727.841 914.846 776.132 915.211 824.43L826.647 823.797C825.75 775.801 826.853 727.732 826.055 679.708Z" fill="#E84845"/>
<path d="M734.917 282.093L778.226 281.831L776.625 434.202L736.482 434.907L691.163 433.968C691.824 383.388 691.688 332.808 690.754 282.228L734.917 282.093Z" fill="#E84845"/>
<path d="M689.383 82.6016L777.846 82.2852C776.562 132.728 778.011 183.515 778.222 233.994L690.144 233.353L689.383 82.6016Z" fill="#E84845"/>
<path d="M826.055 481.403L917.627 481.376C915.453 531.439 915.888 581.61 915.824 631.718C886.17 631.177 856.461 631.475 826.806 631.375C828.79 581.637 826.58 531.195 826.055 481.403Z" fill="#E84845"/>
<path d="M824.691 82.2852L916.264 82.5472C914.034 133.259 915.357 184.577 915.13 235.361C885.404 234.52 855.478 235.189 825.725 235.153L824.691 82.2852Z" fill="#E84845"/>
<path d="M826.055 280.926C855.889 282.32 886.363 280.754 916.26 280.464C913.828 332.231 915.188 384.442 915.332 436.273C885.66 435.121 855.979 434.87 826.289 435.522L826.055 280.926Z" fill="#E84845"/>
<path d="M149.52 -52.3389L652.484 -24.3205V929.671H149.52V-52.3389Z" fill="#0021FE"/>
<path d="M142 -141.604V932.604H278.139V17.1529H344.499V932.604H450.537V17.1529H509.371V932.604H639.353V-141.604H142Z" fill="#E07C9B"/>
<path fill-rule="evenodd" clip-rule="evenodd" d="M1188.28 -266.045C1245.68 -274.697 1294.01 -222.768 1336.77 -183.508C1375.37 -148.068 1400.89 -103.262 1419.08 -54.1223C1438.02 -2.97976 1454.15 50.263 1443.09 103.664C1431.19 161.086 1409.33 227.528 1355.78 251.415C1302.44 275.206 1246.66 215.395 1188.28 217.31C1126.31 219.343 1070.72 284.24 1012.6 262.674C953.626 240.794 928.965 171.148 906.015 112.584C881.78 50.7444 842.667 -23.8203 878.379 -79.8215C915.3 -137.72 1010.24 -107.792 1069.1 -143.162C1119.24 -173.289 1130.44 -257.326 1188.28 -266.045Z" fill="#ECA760"/>
<path fill-rule="evenodd" clip-rule="evenodd" d="M1761.67 195.463C1826.59 203.413 1839.85 294.313 1882.01 344.322C1910.98 378.695 1950.05 401.942 1969.78 442.338C1992.07 487.972 2003.96 536.988 2000.88 587.682C1996.97 651.934 1997.57 725.781 1949.9 769.041C1901.42 813.037 1826.32 815.055 1761.67 804.771C1702.96 795.434 1661.17 749.395 1612.43 715.365C1562.47 680.487 1503.56 656.586 1473.51 603.584C1439.32 543.26 1405.26 466.293 1436.01 404.146C1466.91 341.72 1559.18 349.553 1617.82 311.973C1671.08 277.847 1698.88 187.776 1761.67 195.463Z" fill="#E07C9B"/>
<path fill-rule="evenodd" clip-rule="evenodd" d="M835.984 565.289C902.889 570.24 916.557 626.858 960.002 658.007C989.863 679.416 1030.12 693.896 1050.45 719.057C1073.43 747.481 1085.68 778.01 1082.5 809.586C1078.48 849.606 1079.09 895.602 1029.97 922.547C980.009 949.951 902.614 951.207 835.984 944.802C775.483 938.986 732.415 910.311 682.186 889.115C630.705 867.39 569.989 852.503 539.027 819.49C503.787 781.917 468.685 733.978 500.38 695.269C532.216 656.386 627.31 661.265 687.745 637.858C742.627 616.602 771.283 560.5 835.984 565.289Z" fill="#EBA661"/>
<path d="M265.305 394C274.975 400.953 320.677 485.789 329.109 500.56C342.809 524.56 357.637 547.742 369.941 572.521C384.863 602.568 398.923 633.535 410.125 665.16C411.451 668.761 412.81 672.352 414 676H378.842H336.328C326.707 666.702 316.55 653.28 308.192 642.632L272.363 595.702C261.267 581.055 249.946 566.581 238.403 552.28C232.174 544.815 226.079 537.242 220.118 529.56L215 522.84C219.863 507.596 226.545 492.52 232.327 477.571C243.021 449.596 254.014 421.739 265.305 394Z" fill="#16175C"/>
<path d="M378 676C385.42 670.713 400.954 667.326 410.032 665C411.39 668.654 412.782 672.298 414 676H378Z" fill="#071FF5"/>
<path d="M225 517.34C228.555 511.234 234.818 494.963 241.271 493.133C242.368 492.822 242.896 493.106 243.942 493.465C246.21 495.623 246.76 498.675 246.976 501.82C247.298 506.492 244.241 539.512 243.049 542C236.9 533.898 230.884 525.678 225 517.34Z" fill="#071FF5"/>
<path d="M275 589.09C286.855 577.796 326.775 541.834 340.997 543.029C342.849 543.186 344.688 543.905 345.923 545.471C348.272 548.446 348.16 553.621 347.807 557.281C346.059 575.411 320.537 622.072 310.698 640L275 589.09Z" fill="#071FF5"/>
<path d="M1786 54.0898C1774.15 42.7963 1734.22 6.83354 1720 8.02911C1718.15 8.18628 1716.31 8.90473 1715.08 10.4708C1712.73 13.4457 1712.84 18.6209 1713.19 22.2806C1714.94 40.4108 1740.46 87.072 1750.3 105L1786 54.0898Z" fill="#071FF5"/>
<path d="M94.1654 132C113.453 152.936 128.202 178.462 145.631 201.17C161.52 221.874 178.414 241.627 194.338 262.32C199.583 269.137 205.22 275.914 210 283.127L193.916 470.167C193.679 470.605 193.412 470.731 193.03 471C190.342 468.609 186.015 461.055 183.586 457.622C177.239 448.686 170.788 439.843 164.234 431.091C151.859 414.414 139.177 397.997 126.924 381.216C119.694 371.312 112.94 360.978 105.593 351.179C98.2945 341.443 90.3747 332.285 83.0839 322.541C71.4459 306.988 60.9163 290.654 50.2234 274.317C44.128 265.004 37.6833 255.963 32 246.33C40.9056 230.426 48.9832 213.858 57.6375 197.771C69.656 175.74 81.832 153.817 94.1654 132Z" fill="#16175C"/>
<path d="M32.8421 246C38.53 255.656 44.9798 264.719 51.0801 274.054C61.7815 290.43 72.3194 306.803 83.9667 322.393C91.2633 332.16 99.1894 341.341 106.494 351.1C113.846 360.923 120.605 371.281 127.842 381.209C140.105 398.03 152.797 414.486 165.182 431.203C171.741 439.975 178.196 448.84 184.548 457.797C186.98 461.239 191.31 468.811 194 471.207C194.383 470.938 194.65 470.811 194.887 470.372C192.515 506.549 191.371 536.16 199.559 571.709L213.086 531.108C215.424 524.105 217.519 516.855 220.218 510.027L225.229 517.309C231.065 525.634 237.032 533.841 243.13 541.93C254.431 557.428 265.514 573.112 276.378 588.984L311.455 639.84C319.637 651.379 329.582 665.924 339 676H150.42H0V667.186V509.447V473.594V304.216L0.95022 304.18L1.17381 303.307C12.7105 284.939 22.5878 265.262 32.8421 246Z" fill="#367D57"/>
<path d="M0 473L0.936422 473.116L1.2872 474.172C5.89674 480.699 40.0142 526.839 40 530C27.5709 524.158 15.5137 517.044 3.07987 511.073L1.32927 510.429L0 509.16V473Z" fill="#16175C"/>
<path d="M0 510L1.30856 511.254L3.03188 511.891C15.272 517.791 27.1414 524.822 39.3768 530.595C43.3083 533.277 52.4696 548.019 56.028 552.803L115.579 632.924C126.582 647.588 138.334 661.984 150 676H0V667.215V510Z" fill="#D2809B"/>
<path d="M-68.3817 -90.4471C28.5533 -98.4794 127.894 -110.081 225.048 -112C236.297 -107.508 247.933 -103.379 258.584 -97.6072L410.913 -22.5606C437.45 -9.43982 464.352 5.91988 491.816 16.8599C491.583 303.94 488.324 591.426 492.144 878.455C461.517 880.927 431.472 886.015 400.969 889.054C372.134 891.925 343.096 892.528 314.299 895.938C286.164 899.267 258.213 904.85 229.933 906.791C157.151 911.545 82.5397 924.433 10.2978 935.329C-15.6857 939.247 -45.2051 947.563 -71.1375 947.999L-71.3489 789.99L-71.4145 678.082L-71.4219 638.712L-71.3489 518.139L-71.4073 479.155L-71.3052 357.724L-71.3489 319.205L-71.3125 196.08L-71.101 116.156C-69.7596 47.3975 -70.4668 -21.492 -70.3575 -90.2653L-68.3817 -90.4471Z" fill="#EBA661"/>
<path d="M-68.3711 -90.4471C28.5639 -98.4794 127.905 -110.081 225.059 -112C231.11 -37.2661 227.267 39.3361 228.274 114.383C129.757 113.299 30.926 116.243 -67.5182 113.881C-66.9592 71.0949 -66.8329 28.3063 -67.1391 -14.4847C-67.1974 -39.585 -65.9579 -65.4703 -68.3711 -90.4471Z" fill="#FE6501"/>
<path d="M-71.101 116.157C28.8522 118.127 128.922 114.515 228.839 117.146L229.933 906.792C157.151 911.546 82.5397 924.434 10.2978 935.33C-15.6857 939.248 -45.2051 947.564 -71.1375 948L-71.3489 789.991L-71.4145 678.083L-71.4219 638.713L-71.3489 518.14L-71.4073 479.156L-71.3052 357.725L-71.3489 319.206L-71.3125 196.082L-71.101 116.157Z" fill="#FDBECD"/>
<path d="M5.26799 516.998L71.0214 517.013C70.8854 556.717 71.0603 596.418 71.5463 636.117L4.21094 635.856C4.29356 596.234 4.64586 556.615 5.26799 516.998Z" fill="#DF7C9A"/>
<path d="M3.34375 676.657L71.5177 676.562C72.7352 714.951 72.1519 753.521 72.2612 791.938C49.697 793.283 26.6517 792.549 4.01456 792.738L3.34375 676.657Z" fill="#DF7C9A"/>
<path d="M112.062 676.352L185.369 676.229C184.504 715.046 184.219 753.867 184.516 792.694L112.544 792.186C111.815 753.601 112.711 714.958 112.062 676.352Z" fill="#DF7C9A"/>
<path d="M39.1651 356.793L73.8753 356.582L72.5922 479.198L40.419 479.765L4.09759 479.009C4.62737 438.306 4.51803 397.604 3.76953 356.902L39.1651 356.793Z" fill="#DF7C9A"/>
<path d="M3.00781 196.612L73.3688 196.357C72.3481 236.919 73.5 277.757 73.6677 318.348L3.61298 317.832L3.00781 196.612Z" fill="#DF7C9A"/>
<path d="M112.164 517.035L185.871 517.013C184.122 557.342 184.472 597.758 184.421 638.124C160.551 637.688 136.638 637.927 112.769 637.847C114.366 597.78 112.587 557.146 112.164 517.035Z" fill="#DF7C9A"/>
<path d="M111.598 196.205L185.239 196.416C183.446 237.196 184.51 278.462 184.328 319.3C160.422 318.624 136.356 319.162 112.429 319.133L111.598 196.205Z" fill="#DF7C9A"/>
<path d="M112.02 356.386C136.166 357.506 160.83 356.248 185.027 356.016C183.059 397.581 184.159 439.502 184.276 481.117C160.261 480.192 136.239 479.991 112.209 480.514L112.02 356.386Z" fill="#DF7C9A"/>
<path d="M197.21 696L480 -23H323.405C317.932 -15.0251 300.547 19.3089 274.784 92.8459C242.581 184.767 198.476 489.492 189.636 570.71C182.564 635.685 191.316 682.359 197.21 696Z" fill="#FF6602"/>
<path d="M-68.0739 530L150.426 -48H59.5C55.1667 -41.6667 41.4 -14.4 21 44C-4.5 117 -68.0739 368.5 -75.0739 433C-80.6739 484.6 -72.7406 519.167 -68.0739 530Z" fill="#E84845"/>
<path d="M1897.42 279.559L1927.97 246.699V672H1919.51V640.548C1907.29 634.915 1878.43 622.616 1860.76 618.485C1838.66 613.322 1812.34 642.896 1793.07 640.548C1773.8 638.201 1793.07 594.075 1803.88 576.237C1812.53 561.966 1884.57 553.078 1919.51 550.418V511.456H1874.39C1851.36 511.456 1833.02 541.03 1793.07 567.318C1753.11 593.606 1723.5 578.584 1711.28 567.318C1699.06 556.052 1698.12 508.17 1711.28 481.413C1724.44 454.655 1744.18 425.551 1793.07 411.938C1832.18 401.047 1893.66 428.367 1919.51 443.389C1918.26 439.79 1914.25 428.461 1908.23 411.938C1900.71 391.283 1869.69 375.792 1843.83 370.628C1817.98 365.464 1771.51 414.793 1744.18 411.938C1711.28 408.5 1701.04 399.808 1686.47 381.5C1671.9 363.192 1677.86 298.915 1711.28 279.559C1744.18 260.5 1808.11 269.858 1843.83 279.559C1838.97 271.423 1824.18 250.83 1803.88 233.555C1778.5 211.962 1744.18 151.875 1744.18 116.668C1744.18 81.4614 1763.45 52.3567 1803.88 42.4988C1844.3 32.6408 1865.92 73.0115 1888.96 116.668C1907.38 151.594 1902.27 239.815 1897.42 279.559Z" fill="#C7ECC4"/>
<path d="M229 0H300C291.531 19.9584 278.517 40.8153 272.078 61.5329L263.07 90.6986C261.663 95.3342 260.634 100.668 258.575 105C254.549 98.5766 252.69 87.6331 250.562 80.1581C242.987 53.5403 236.611 26.5866 229 0Z" fill="#071FF5"/>
<path d="M221.614 1H229.067C235.767 23.8545 248.277 56.0245 254.945 78.9058C256.818 85.3314 258.454 94.7387 261.998 100.26C260.38 108.986 256.957 117.641 254.638 126.231L240.19 195C237.737 192.476 231.585 187.796 230.05 184.613C225.875 166.665 222.755 148.75 221.613 130.346C219.149 90.6692 217.738 40.5337 221.614 1Z" fill="#DAA671"/>
<path d="M142 -23H149.085C152.827 18.7004 158.022 60.1619 162.109 101.814C162.336 107.556 162.525 113.296 163.045 119.021C163.392 129.77 165.922 151.241 160.983 160.421C159.376 163.408 156.548 165.855 153.214 166.684C150.029 167.477 146.769 166.714 143.978 165.108C125.385 154.415 110.919 96.7834 105 75.5C116.5 47 127.869 6.04175 142 -23Z" fill="#071FF5"/>
<path d="M1280.17 -85H1366.12C1366.55 -83.8143 1366.84 -83.1325 1366.77 -81.8517C1366.41 -75.1614 1362.4 -66.1371 1360.67 -59.466C1357.37 -46.5231 1354.54 -33.475 1352.2 -20.3218C1346.93 8.653 1344.05 38.04 1339.1 67.074C1334.72 92.728 1328.07 118.278 1322.73 143.773C1318.96 161.731 1316.51 181.427 1310.53 198.701C1305.41 213.498 1297.28 228.214 1290.3 242.25C1285.9 251.096 1281.64 262.241 1274.09 268.773C1274.51 267.952 1274.88 267.132 1275.27 266.303C1277.81 260.911 1276.46 138.804 1275.77 124.94C1273.81 85.04 1267.91 45.908 1269.17 5.7662C1269.57 -6.9568 1270.86 -19.9289 1272.45 -32.5572C1273.57 -41.5093 1281.6 -79.1928 1280.17 -85Z" fill="#367D57"/>
<path d="M1214.61 -21.1871L1268.54 -3.6527C1268.57 -2.82103 1268.61 -2.33403 1268.31 -1.5447C1266.72 2.57975 1262.36 7.42401 1259.91 11.2569C1255.2 18.7034 1250.77 26.3145 1246.61 34.0902C1237.4 51.1955 1229.59 69.047 1220.57 86.2547C1212.58 101.458 1203.2 116.133 1194.65 131.04C1188.62 141.539 1183.06 153.398 1175.79 163.016C1169.55 171.256 1161.45 178.831 1154.21 186.214C1149.64 190.867 1144.7 196.991 1138.63 199.549C1139.06 199.12 1139.46 198.681 1139.87 198.24C1142.56 195.375 1166.63 118.483 1169.02 109.643C1175.93 84.2079 1180.21 58.4507 1189.19 33.5206C1192.04 25.6191 1195.5 17.7428 1199.07 10.1435C1201.6 4.75496 1214.33 -17.2516 1214.61 -21.1871Z" fill="#367D57"/>
<path d="M1193.57 -36.956L1226.04 9.53105C1225.57 10.2117 1225.31 10.6261 1224.59 11.0722C1220.83 13.4056 1214.44 14.6468 1210.17 16.2319C1201.92 19.3343 1193.8 22.7378 1185.8 26.4424C1168.14 34.5408 1151.16 44.0877 1133.58 52.3816C1118.05 59.7066 1101.72 65.7645 1085.91 72.5102C1074.78 77.257 1063.2 83.3744 1051.6 86.6674C1041.66 89.4896 1030.63 90.6532 1020.4 92.1818C1013.95 93.1447 1006.31 95.052 999.927 93.4368C1000.53 93.3537 1001.11 93.244 1001.71 93.1416C1005.58 92.4779 1071.12 45.6068 1078.36 39.9948C1099.2 23.8576 1118.13 5.87961 1140.32 -8.6074C1147.35 -13.1987 1154.85 -17.4028 1162.28 -21.3147C1167.55 -24.0917 1190.97 -33.9882 1193.57 -36.956Z" fill="#367D57"/>
<path d="M432.983 -69.5334L365.519 -52.9426C365.411 -51.929 365.315 -51.3378 365.617 -50.346C367.191 -45.1642 372.08 -38.855 374.726 -33.9527C379.82 -24.4319 384.555 -14.7353 388.93 -4.86291C398.66 16.8625 406.593 39.3728 416.082 61.2064C424.472 80.4971 434.624 99.2679 443.736 118.248C450.162 131.616 455.887 146.603 463.915 159.007C470.79 169.633 480.012 179.615 488.2 189.284C493.361 195.378 498.856 203.304 506.043 206.974C505.555 206.41 505.106 205.838 504.64 205.263C501.606 201.521 479.095 105.417 476.961 94.4016C470.797 62.7053 467.875 30.8513 459.137 -0.413255C456.367 -10.3225 452.851 -20.2554 449.165 -29.8606C446.558 -36.671 432.981 -64.6992 432.983 -69.5334Z" fill="#303289"/>
<path d="M496.761 -32.1013L457.815 -7.92841C457.954 -7.27024 458.014 -6.87973 458.406 -6.31908C460.451 -3.38882 464.806 -0.427542 467.466 2.1087C472.604 7.0434 477.553 12.1617 482.313 17.4635C492.85 29.1104 502.42 41.6162 512.828 53.3798C522.028 63.7723 532.227 73.4792 541.817 83.5296C548.576 90.6064 555.225 98.8419 562.793 104.987C569.275 110.252 577.097 114.634 584.208 119.031C588.689 121.801 593.754 125.653 599.012 126.49C598.591 126.236 598.193 125.968 597.783 125.702C595.115 123.973 561.385 68.2649 557.799 61.7888C547.465 43.1582 539.133 23.7674 527.272 5.9328C523.513 0.280282 519.28 -5.2348 515.008 -10.5097C511.983 -14.2511 497.746 -29.0678 496.761 -32.1013Z" fill="#303289"/>
<path d="M510.235 -48.5395L493.716 -5.78211C494.223 -5.34032 494.507 -5.06505 495.157 -4.85372C498.555 -3.74695 503.815 -4.00737 507.466 -3.58583C514.54 -2.74322 521.574 -1.63995 528.567 -0.276036C543.994 2.67113 559.166 6.88648 574.561 10.0042C588.165 12.7559 602.153 14.3583 615.863 16.6019C625.521 18.1779 635.79 20.7445 645.532 21.0896C653.877 21.3865 662.761 20.1705 671.085 19.3958C676.331 18.9071 682.694 18.9299 687.394 16.4294C686.905 16.4806 686.426 16.507 685.939 16.5417C682.768 16.7689 622.284 -7.37105 615.519 -10.3789C596.047 -19.0225 577.714 -29.4786 557.503 -36.5668C551.096 -38.8132 544.395 -40.6646 537.807 -42.3007C533.139 -43.4641 512.849 -46.712 510.235 -48.5395Z" fill="#303289"/>
<path d="M889.358 822.783L836.407 809.761C836.322 808.965 836.246 808.501 836.483 807.723C837.719 803.655 841.556 798.703 843.633 794.856C847.631 787.383 851.347 779.772 854.782 772.024C862.418 754.972 868.645 737.304 876.093 720.167C882.678 705.026 890.646 690.293 897.798 675.395C902.842 664.903 907.335 653.14 913.636 643.404C919.032 635.064 926.27 627.23 932.697 619.64C936.748 614.857 941.061 608.636 946.702 605.756C946.319 606.198 945.967 606.647 945.601 607.099C943.219 610.036 925.551 685.466 923.875 694.112C919.038 718.99 916.744 743.992 909.886 768.531C907.712 776.309 904.952 784.105 902.059 791.644C900.013 796.989 889.357 818.988 889.358 822.783Z" fill="#303289"/>
<path d="M939.416 793.402L908.849 774.429C908.957 773.913 909.005 773.606 909.312 773.166C910.917 770.866 914.335 768.542 916.423 766.551C920.456 762.678 924.341 758.661 928.076 754.5C936.347 745.358 943.858 735.542 952.028 726.309C959.248 718.152 967.253 710.534 974.78 702.645C980.085 697.091 985.304 690.627 991.244 685.803C996.332 681.671 1002.47 678.232 1008.05 674.781C1011.57 672.606 1015.55 669.583 1019.67 668.926C1019.34 669.126 1019.03 669.336 1018.71 669.544C1016.61 670.901 990.139 714.626 987.324 719.709C979.214 734.332 972.674 749.552 963.365 763.55C960.414 767.986 957.091 772.315 953.738 776.455C951.364 779.392 940.19 791.021 939.416 793.402Z" fill="#303289"/>
<path d="M949.994 806.305L937.028 772.745C937.426 772.398 937.649 772.182 938.159 772.016C940.826 771.148 944.955 771.352 947.82 771.021C953.373 770.36 958.893 769.494 964.382 768.423C976.491 766.11 988.399 762.802 1000.48 760.354C1011.16 758.195 1022.14 756.937 1032.9 755.176C1040.48 753.939 1048.54 751.925 1056.19 751.654C1062.74 751.421 1069.71 752.375 1076.24 752.983C1080.36 753.367 1085.35 753.349 1089.04 755.311C1088.66 755.271 1088.28 755.251 1087.9 755.223C1085.41 755.045 1037.94 773.992 1032.63 776.353C1017.35 783.137 1002.96 791.344 987.094 796.907C982.065 798.671 976.806 800.124 971.635 801.408C967.971 802.321 952.046 804.87 949.994 806.305Z" fill="#303289"/>
<path d="M866.325 894.362L959.023 896.221C959.512 894.951 959.84 894.222 959.792 892.84C959.549 885.616 955.419 875.797 953.697 868.564C950.411 854.534 947.648 840.4 945.409 826.164C940.352 794.801 937.882 763.044 933.171 731.624C929.002 703.861 922.383 676.162 917.175 648.55C913.497 629.1 911.281 607.805 905.205 589.046C900.003 572.976 891.553 556.929 884.329 541.64C879.775 532.005 875.422 519.892 867.42 512.684C867.855 513.579 868.237 514.471 868.639 515.374C871.262 521.244 867.165 652.908 866.121 667.845C863.144 710.835 855.935 752.912 856.425 796.232C856.581 809.963 857.692 823.981 859.134 837.635C860.148 847.314 867.993 888.13 866.325 894.362Z" fill="#367D57"/>
<path d="M796.994 824.122L855.537 806.377C855.585 805.481 855.642 804.957 855.33 804.099C853.703 799.616 849.109 794.297 846.553 790.111C841.629 781.977 837.012 773.673 832.703 765.197C823.132 746.55 815.103 727.128 805.737 708.374C797.458 691.805 787.653 675.775 778.753 659.512C772.477 648.058 766.742 635.149 759.103 624.618C752.561 615.596 743.985 607.251 736.333 599.132C731.51 594.015 726.307 587.303 719.816 584.413C720.272 584.885 720.693 585.367 721.13 585.852C723.973 589 748.263 672.449 750.655 682.034C757.557 709.616 761.618 737.488 770.763 764.569C773.662 773.153 777.219 781.722 780.909 789.995C783.52 795.862 796.769 819.871 796.994 824.122Z" fill="#367D57"/>
<path d="M773.958 840.672L809.992 791.238C809.49 790.494 809.219 790.041 808.453 789.545C804.455 786.947 797.583 785.47 793.021 783.668C784.191 780.144 775.502 776.298 766.956 772.129C748.082 763.013 729.973 752.349 711.199 743.024C694.608 734.788 677.125 727.901 660.223 720.284C648.314 714.924 635.958 708.076 623.516 704.273C612.859 701.014 600.987 699.521 589.988 697.651C583.055 696.473 574.86 694.251 567.937 695.855C568.586 695.957 569.212 696.088 569.853 696.212C574.019 697.011 643.682 748.979 651.367 755.189C673.494 773.043 693.527 792.842 717.143 808.947C724.628 814.05 732.63 818.747 740.559 823.127C746.178 826.236 771.218 837.415 773.958 840.672Z" fill="#367D57"/>
<path d="M1424 -23H1694.28L1694.41 -21.225C1688.78 -9.703 1677.55 1.5281 1669.89 11.9784C1642.45 49.3743 1614.56 96.714 1572.59 119.173C1549.12 131.73 1514.82 135.876 1489.57 127.886C1432.9 109.949 1425.24 56.7876 1425.6 5.2319C1425.65 -1.5595 1427.65 -16.6239 1424.32 -22.4926C1424.22 -22.6667 1424.1 -22.8309 1424 -23Z" fill="#E84845"/>
<path d="M1928 -23H1762.08L1762 -21.9119C1765.46 -14.8489 1772.35 -7.96426 1777.05 -1.55822C1793.9 21.3655 1811.02 50.3847 1836.78 64.1521C1851.19 71.8496 1872.25 74.3911 1887.75 69.4932C1922.54 58.4978 1927.24 25.9098 1927.02 -5.69383C1926.99 -9.85696 1925.76 -19.0914 1927.8 -22.689C1927.86 -22.7957 1927.94 -22.8963 1928 -23Z" fill="#E84845"/>
<path d="M1658.18 -134.72L1712.11 -117.186C1712.14 -116.354 1712.18 -115.867 1711.88 -115.078C1710.29 -110.953 1705.93 -106.109 1703.48 -102.276C1698.77 -94.8298 1694.34 -87.2187 1690.18 -79.443C1680.97 -62.3377 1673.16 -44.4862 1664.14 -27.2785C1656.15 -12.0753 1646.77 2.5995 1638.22 17.5071C1632.19 28.0058 1626.63 39.8643 1619.36 49.483C1613.12 57.723 1605.02 65.2981 1597.78 72.6811C1593.21 77.3339 1588.27 83.4578 1582.2 86.0161C1582.63 85.5867 1583.03 85.1476 1583.44 84.707C1586.13 81.842 1610.2 4.94986 1612.59 -3.88995C1619.5 -29.3253 1623.78 -55.0825 1632.76 -80.0126C1635.61 -87.9141 1639.07 -95.7904 1642.64 -103.39C1645.17 -108.778 1657.9 -130.785 1658.18 -134.72Z" fill="#367D57"/>
<path d="M290.032 439.494C311.349 385.499 336.17 333.328 358.956 280C383.278 317.083 404.668 355.919 425.571 394.999C455.418 451.217 483.966 508.087 511.213 565.61C521.443 587.087 530.638 609.102 541.151 630.429C554.501 657.52 571.155 682.452 585.679 708.849C599.938 734.757 611.8 762.343 623 789.704H474.269H430.707H378.031C366.111 778.156 353.526 761.488 343.171 748.264L298.777 689.983C285.029 671.794 271.003 653.819 256.7 636.058C248.982 626.788 241.43 617.383 234.045 607.843L227.703 599.497C233.729 580.567 242.007 561.843 249.171 543.278C262.422 508.537 276.042 473.942 290.032 439.494Z" fill="#367D57"/>
<path d="M290.032 439.494C302.013 448.128 358.64 553.485 369.087 571.829C386.061 601.634 404.434 630.423 419.679 661.196C438.168 698.51 455.589 736.968 469.468 776.242C471.111 780.714 472.795 785.174 474.269 789.704H430.707H378.031C366.111 778.157 353.526 761.489 343.171 748.265L298.777 689.983C285.029 671.794 271.003 653.819 256.7 636.058C248.982 626.788 241.43 617.383 234.045 607.843L227.703 599.498C233.729 580.567 242.007 561.844 249.171 543.279C262.422 508.538 276.042 473.943 290.032 439.494Z" fill="#16175C"/>
<path d="M234.047 607.842C238.509 600.857 246.371 582.24 254.47 580.147C255.847 579.791 256.511 580.115 257.823 580.527C260.67 582.995 261.36 586.488 261.632 590.086C262.035 595.431 258.199 633.211 256.702 636.058C248.984 626.788 241.433 617.382 234.047 607.842Z" fill="#071FF5"/>
<path d="M298.777 689.983C313.52 677.054 363.165 635.884 380.851 637.253C383.154 637.433 385.442 638.255 386.977 640.048C389.899 643.454 389.759 649.378 389.32 653.568C387.147 674.323 355.407 727.74 343.171 748.264L298.777 689.983Z" fill="#071FF5"/>
<path d="M-9.43556 296.92C-2.23714 307.986 5.92565 318.372 13.646 329.07C27.1895 347.837 40.5261 366.601 55.2668 384.467C64.5012 395.66 74.5324 406.181 83.7771 417.366C93.0815 428.622 101.636 440.493 110.795 451.87C126.314 471.148 142.377 490.006 158.051 509.164C166.352 519.217 174.522 529.376 182.561 539.641C185.638 543.585 191.119 552.263 194.523 555.009C195.008 554.7 195.346 554.555 195.645 554.052C192.643 595.511 191.195 629.446 201.558 670.185L218.678 623.656C221.637 615.63 224.288 607.322 227.704 599.497L234.046 607.842C241.432 617.382 248.983 626.787 256.701 636.058C271.004 653.818 285.03 671.793 298.779 689.982L343.172 748.264C353.527 761.488 366.113 778.156 378.032 789.703H139.369H-51V779.602V598.832V557.745V363.636L-49.7974 363.595L-49.5144 362.595C-34.9138 341.545 -22.4132 318.995 -9.43556 296.92Z" fill="#367D57"/>
<path d="M-51 485.832L-49.3393 487.274L-47.1522 488.006C-31.6179 494.791 -16.5542 502.874 -1.02596 509.512C3.96362 512.597 15.5905 529.548 20.1065 535.048L95.6846 627.174C109.648 644.035 124.563 660.587 139.369 676.703H-51V666.602V485.832Z" fill="#D2809B"/>
<path d="M1506.97 787.58C1507.02 787.4 1507.1 787.22 1507.13 787.03C1505.55 783.23 1502.55 778.45 1500.38 775.47C1495.55 768.81 1491.24 761.5 1485.83 755.31C1475.2 743.17 1462.43 732.91 1451.71 720.78C1443.24 711.2 1435.54 700.92 1428.14 690.5C1409.84 664.71 1394.54 637.69 1380.16 609.56C1373.66 596.87 1366.16 576.87 1358 566C1376.2 571.61 1394.09 582.77 1411.1 591.45C1439.2 605.997 1467.54 620.05 1496.13 633.61L1650.46 704.66L1702.69 728.15C1711.58 732.16 1721.39 735.82 1729.79 740.74C1741.96 745.9 1817.83 782.05 1821.94 786.85L1822.05 787.58H1506.97Z" fill="#071FF5"/>
<path d="M24.2302 525.593L3 502.783V798H8.87796V776.168C17.37 772.258 37.4244 763.721 49.7052 760.854C65.0563 757.269 83.3469 777.798 96.7383 776.168C110.13 774.539 96.7383 743.909 89.2272 731.527C83.2184 721.622 33.1574 715.452 8.87796 713.606V686.561H40.2333C56.2364 686.561 68.9757 707.089 96.7383 725.336C124.501 743.584 145.078 733.157 153.571 725.336C162.064 717.516 162.715 684.28 153.571 665.706C144.427 647.133 130.708 626.931 96.7383 617.481C69.5627 609.922 26.8416 628.886 8.87796 639.313C9.74893 636.815 12.5361 628.951 16.7168 617.481C21.9427 603.144 43.4995 592.391 61.4647 588.807C79.4299 585.222 111.716 619.463 130.708 617.481C153.571 615.095 160.683 609.061 170.809 596.353C180.934 583.645 176.791 539.028 153.571 525.593C130.707 512.363 86.2877 518.859 61.4647 525.593C64.8397 519.945 75.1173 505.651 89.2272 493.66C106.865 478.671 130.708 436.962 130.708 412.524C130.708 388.086 117.316 367.883 89.2272 361.04C61.138 354.198 46.1136 382.22 30.1093 412.524C17.3059 436.767 20.8551 498.004 24.2302 525.593Z" fill="#FF6601"/>
<path d="M970.66 234.434L960.521 223.46L959.999 365.009L962.817 365.019L962.856 354.552C966.934 352.692 976.565 348.634 982.458 347.281C989.825 345.589 998.559 355.465 1004.98 354.707C1011.41 353.95 1005.04 339.24 1001.46 333.29C998.597 328.529 974.605 325.483 962.966 324.555L963.014 311.587L978.048 311.643C985.721 311.671 991.793 321.536 1005.07 330.334C1018.35 339.133 1028.24 334.17 1032.32 330.435C1036.41 326.7 1036.78 310.766 1032.43 301.844C1028.08 292.923 1021.53 283.212 1005.26 278.621C992.247 274.948 971.729 283.965 963.098 288.933C963.52 287.737 964.87 283.971 966.895 278.479C969.426 271.614 979.781 266.497 988.401 264.81C997.021 263.123 1012.44 279.598 1021.55 278.681C1032.52 277.577 1035.94 274.697 1040.82 268.622C1045.69 262.546 1043.79 241.146 1032.68 234.663C1021.74 228.279 1000.43 231.315 988.513 234.5C990.141 231.798 995.094 224.963 1001.88 219.238C1010.36 212.083 1021.87 192.127 1021.91 180.409C1021.96 168.692 1015.57 158.982 1002.12 155.651C988.66 152.32 981.406 165.73 973.679 180.231C967.497 191.833 969.091 221.201 970.66 234.434Z" fill="#367D57"/>
<path d="M437.712 260.834L438.463 261.665C445.358 261.771 451.707 262.37 456.721 267.64C457.54 268.5 459.07 269.87 459.174 271.096C456.617 270.862 454.247 267.509 451.9 266.341C447.906 264.354 438.674 264.098 436.465 262.401C437.071 261.919 437.328 261.497 437.712 260.834Z" fill="#131762" fill-opacity="0.984314"/>
<path d="M269.085 442.813C269.026 437.997 269.768 433.233 269.837 428.419L270.154 428.341C271.522 432.138 272.049 438.501 270.68 442.334C270.631 442.472 270.592 442.613 270.547 442.752L270.464 443.001L269.085 442.813Z" fill="#131762"/>
<path d="M567.713 367.641C569.178 367.479 570.552 367.249 571.815 368.064C570.727 369.882 566.534 370.578 564.839 372.402C560.619 376.949 561.137 382.472 555.129 386.493C553.943 386.963 553.168 387.129 552.001 386.634L551.969 385.627C553.667 383.898 555.51 382.748 556.962 380.715C560.563 375.673 561.427 370.065 567.713 367.641Z" fill="#131762"/>
<path d="M339.534 168.472C370.395 167.457 405.649 174.61 429.411 195.941C439.213 204.74 447.285 215.027 455.384 225.349C457.101 227.537 458.819 229.727 460.555 231.904C462.998 234.968 465.717 237.806 468.434 240.641C473.467 245.893 478.492 251.138 481.738 257.8C484.365 263.191 485.513 268.606 486.631 273.874C488.548 282.908 490.372 291.508 499.402 298.804C504.714 303.097 510.867 306.035 516.991 308.959C519.004 309.921 521.014 310.88 522.99 311.886C524.658 312.736 526.315 313.617 527.973 314.498C532.684 317.003 537.406 319.514 542.415 321.315C546.186 322.671 550.874 323.814 555.81 325.018C566.535 327.632 578.434 330.533 584.661 336.531C585.72 337.552 586.343 338.295 586.412 339.778C584.581 338.877 582.88 337.759 581.176 336.64C579.034 335.234 576.888 333.824 574.475 332.837C569.099 330.637 563.418 329.249 557.744 327.863C554.273 327.015 550.805 326.167 547.412 325.135C536.646 321.861 506.69 307.674 497.957 300.928C487.435 292.801 485.684 283.905 483.849 274.582C482.699 268.737 481.515 262.723 478.116 256.626C475.401 251.758 471.614 247.851 467.816 243.932C465.951 242.009 464.084 240.083 462.34 238.039C458.565 233.615 455.055 229.153 451.586 224.744C442.157 212.759 433.039 201.167 419.754 191.811C407.804 183.394 394.263 178.138 380.132 174.961C370.209 172.731 359.831 171.923 349.714 171.207C348.542 171.125 347.361 171.095 346.179 171.065C344.454 171.022 342.727 170.979 341.025 170.77C340.022 170.647 339.228 170.521 338.438 169.83C338.568 169.169 338.794 169.008 339.213 168.708C339.309 168.639 339.416 168.563 339.534 168.472Z" fill="#131762"/>
<path d="M339.534 168.472C370.395 167.457 405.649 174.61 429.411 195.941C439.213 204.74 447.285 215.027 455.384 225.349C457.101 227.537 458.819 229.727 460.555 231.904C462.998 234.968 465.717 237.806 468.434 240.641C473.467 245.893 478.492 251.138 481.738 257.8C484.365 263.191 485.513 268.606 486.631 273.874C488.548 282.908 490.372 291.508 499.402 298.804C504.714 303.097 510.867 306.035 516.991 308.959C519.004 309.921 521.014 310.88 522.99 311.886C524.658 312.736 526.315 313.617 527.973 314.498C532.684 317.003 537.406 319.514 542.415 321.315C546.186 322.671 550.874 323.814 555.81 325.018C566.535 327.632 578.434 330.533 584.661 336.531C585.72 337.552 586.343 338.295 586.412 339.778C584.581 338.877 582.88 337.759 581.176 336.64C579.034 335.234 576.888 333.824 574.475 332.837C569.099 330.637 563.418 329.249 557.744 327.863C554.273 327.015 550.805 326.167 547.412 325.135C536.646 321.861 506.69 307.674 497.957 300.928C487.435 292.801 485.684 283.905 483.849 274.582C482.699 268.737 481.515 262.723 478.116 256.626C475.401 251.758 471.614 247.851 467.816 243.932C465.951 242.009 464.084 240.083 462.34 238.039C458.565 233.615 455.055 229.153 451.586 224.744C442.157 212.759 433.039 201.167 419.754 191.811C407.804 183.394 394.263 178.138 380.132 174.961C370.209 172.731 359.831 171.923 349.714 171.207C348.542 171.125 347.361 171.095 346.179 171.065C344.454 171.022 342.727 170.979 341.025 170.77C340.022 170.647 339.228 170.521 338.438 169.83C338.568 169.169 338.794 169.008 339.213 168.708C339.309 168.639 339.416 168.563 339.534 168.472Z" stroke="#131762"/>
<path d="M437.71 260.834C439.661 258.549 441.87 258.096 444.759 257.902C448.786 257.633 461.707 258.838 465.565 260.095C467.631 260.768 469.53 261.823 471.15 263.303C472.892 264.893 474.104 266.847 474.173 269.286C474.313 274.312 472.004 279.178 471.905 284.374C462.781 278.595 461.202 271.342 448.823 274.328C436.31 277.346 423.673 283.643 413.37 291.488C410.663 293.551 407.173 300.236 405.07 300.261C404.382 299.475 403.889 299.091 403.995 297.933C404.423 293.304 410.631 289.634 413.001 285.987C415.742 281.769 416.161 276.817 420.565 273.667C427.705 268.558 438.602 272.427 444.101 269.861L444.203 269.203C440.489 265.579 431.434 267.414 430.588 265.497C431.977 263.925 434.568 263.192 436.464 262.401C437.07 261.919 437.327 261.498 437.71 260.834ZM437.71 260.834C437.327 261.498 437.07 261.919 436.464 262.401C438.673 264.098 447.905 264.354 451.899 266.342C454.246 267.51 456.616 270.862 459.173 271.096C459.069 269.871 457.539 268.5 456.72 267.64C451.706 262.37 445.356 261.772 438.462 261.665L437.71 260.834Z" fill="#131762"/>
<path d="M459.437 298.439C460.054 298.355 460.696 298.276 461.319 298.334C464.584 298.638 476.54 317.411 479.497 320.744C483.17 318.456 486.142 313.834 490.264 312.53C491.168 312.245 492.344 312.129 493.19 312.646C493.791 313.014 493.68 313.238 493.844 313.889C492.921 316.139 491.865 318.311 490.569 320.364C487.199 325.708 483.054 328.698 477.019 330.04C477.207 333.141 477.116 336.171 476.982 339.271C478.761 338.947 480.657 338.868 482.353 339.616C484.52 340.572 488.496 343.073 489.217 345.573C489.555 346.744 489.23 347.295 488.736 348.305C487.665 348.56 487.33 348.065 486.416 347.494C485.694 348.004 486.354 351.591 486.099 352.845C485.949 353.584 485.908 353.532 485.289 353.93C484.203 353.411 483.871 352.561 483.33 351.53C483.025 350.951 483.096 351.067 482.581 350.816C482.394 350.942 482.284 354.996 481.717 355.74C481.326 356.254 481.26 356.116 480.68 356.165C479.292 354.128 480.399 351.593 479.097 349.652C477.985 349.758 477.067 350.496 476.103 351.036C472.269 353.185 468.699 352.666 464.545 352.023C450.917 347.805 436.653 344.772 423.312 339.661C418.976 338 402.06 330.867 400.347 326.413C400.021 325.572 400.274 325.313 400.603 324.572C405.207 323.12 412.476 331.383 420.576 328.213C424.405 326.715 427.575 322.971 430.438 320.086C438.76 311.703 447.934 301.849 459.437 298.439ZM472.383 330.592C472.279 333.321 472.343 336.603 470.227 338.647C469.281 339.564 468.758 339.549 467.543 339.553C466.135 338.841 465.33 337.753 464.824 336.255C464.338 334.809 464.202 333.274 464.055 331.762C462.223 332.864 459.26 334.097 458.013 335.853C458.114 336.697 458.335 336.967 458.848 337.596C462.189 340.003 466.241 340.74 469.058 343.771L469.833 343.756C471.554 340.906 474.847 335.781 473.929 332.24C473.673 331.246 473.438 331.062 472.541 330.647C472.491 330.623 472.437 330.61 472.383 330.592Z" fill="#131762"/>
<path d="M473.605 465.973L474.353 466.582L475.458 467.482L475.622 467.616L475.641 467.826C475.691 468.399 475.771 469.097 475.86 469.87C476.026 471.315 476.222 473.023 476.31 474.677C476.377 475.959 476.383 477.244 476.259 478.401C476.136 479.552 475.883 480.62 475.403 481.443L475.02 482.099L474.569 481.488C473.2 479.636 473.308 477.413 473.562 475.329C473.604 474.982 473.651 474.641 473.696 474.304C473.792 473.6 473.884 472.915 473.935 472.231C474.008 471.231 473.984 470.298 473.747 469.446L473.605 465.973ZM473.605 465.973L473.538 466.935M473.605 465.973L473.538 466.935M473.538 466.935C473.476 467.839 473.491 468.53 473.747 469.446L473.538 466.935Z" fill="#131762" fill-opacity="0.980392" stroke="#131762"/>
<path d="M419.029 457.609L418.29 457.02L418.219 457.962C418.177 458.512 418.093 459.248 417.995 460.101C417.974 460.279 417.953 460.461 417.932 460.648C417.809 461.727 417.677 462.944 417.592 464.151C417.507 465.356 417.467 466.564 417.533 467.623C417.598 468.665 417.767 469.632 418.147 470.31L418.212 470.425L418.325 470.494L419.194 471.016L419.685 471.312L419.911 470.785C420.182 470.152 420.374 469.253 420.504 468.257C420.635 467.251 420.708 466.109 420.726 464.97C420.761 462.713 420.581 460.383 420.173 459.122L420.173 459.122C420.05 458.742 419.909 458.465 419.705 458.22C419.522 458.002 419.301 457.825 419.066 457.638C419.054 457.629 419.041 457.619 419.029 457.609Z" fill="#131762" fill-opacity="0.980392" stroke="#131762"/>
<path d="M437.025 460.391L436.396 459.814L436.2 460.645C435.842 462.17 435.471 464.687 435.366 467.166C435.313 468.406 435.326 469.649 435.443 470.761C435.559 471.863 435.781 472.878 436.172 473.636L436.237 473.762L436.358 473.835L437.567 474.567L438.25 474.98L438.324 474.185C438.457 472.758 438.702 469.972 438.674 467.269C438.66 465.919 438.578 464.574 438.375 463.422C438.175 462.292 437.844 461.26 437.271 460.617L437.271 460.617L437.269 460.614C437.214 460.554 437.159 460.506 437.119 460.471C437.102 460.457 437.088 460.445 437.077 460.436C437.056 460.418 437.042 460.406 437.025 460.391Z" fill="#131762" fill-opacity="0.980392" stroke="#131762"/>
<path d="M583.047 440.689C584.363 435.097 585.751 429.513 586.821 423.865L586.452 423.29L586.993 423.186L587.294 421.832C589.954 423.657 588.461 428.078 591.793 429.681L592.419 429.227C592.623 426.381 589.955 421.537 588.176 419.408C582.324 412.407 570.647 410.652 571.413 399.304C571.85 392.818 575.629 380.937 578.212 374.74C579.934 370.603 582.283 366.848 583.486 362.487C584.16 360.044 583.169 352.195 584.842 351C586.719 354.763 585.896 362.333 584.626 366.264C581.982 374.456 571.708 395.99 575.422 403.848C580.017 413.575 592.467 410.654 595.824 427.675C596.659 431.907 596.745 435.744 595.422 439.872C593.834 444.826 591.892 450.168 589.773 454.912C599.849 463.451 606.17 473.774 607.401 487.302C607.994 493.801 607.032 500.86 604.525 506.894C608.33 511.147 611.957 517.653 611.628 523.619C611.467 526.557 610.261 528.948 608.07 530.846C605.642 532.948 601.213 534.605 600.27 537.883C600.5 548.154 616.779 555.764 612.362 578.809C611.181 584.972 608.631 590.563 604.403 595.165C603.096 596.589 601.326 597.682 599.589 598.477L599.03 598.21C599.124 591.01 613.095 584.934 608.892 564.925C606.926 555.557 597.819 546.392 596.602 539.047C596.277 537.086 596.896 535.366 598.273 533.976C601.814 530.405 607.969 529.848 608.089 523.696C608.188 518.62 605.534 513.776 603.013 509.583C599.853 515.166 595.346 519.129 589.186 520.828C579.589 523.474 567.607 520.801 559.165 515.706C556.236 513.937 553.638 511.819 551.155 509.446C539.579 512.307 528.168 515.625 516.53 518.287C489.06 524.569 461.334 529.995 434.205 537.744C401.906 546.972 370.062 557.734 337.688 566.72C321.537 571.204 301.898 576.674 285.291 578.377C290.466 582.479 294.45 587.731 299.923 591.563C311.504 599.674 325.025 604.423 337.994 609.644C349.735 614.372 361.42 620.157 373.694 623.24C399.276 629.665 443.979 624.27 470.713 621.908C478.915 621.184 487.103 620.443 495.329 620.063C506.092 619.564 516.986 619.465 527.687 618.088C539.606 616.552 550.89 612.57 562.623 610.25C567.156 609.353 571.799 610.033 576.229 608.565C582.432 606.51 587.785 602.077 594.029 600.187C591.446 603.904 588.62 606.276 584.69 608.414C577.325 612.424 568.567 614.887 560.695 617.73C548.508 622.27 536.232 626.543 523.868 630.551C511.926 634.429 499.979 637.872 488.239 642.386C476.088 647.166 464.424 652.967 453.245 659.788C437.18 669.423 422.129 682.02 408.103 694.477C402.071 699.837 396.689 705.915 390.884 711.521C383.871 718.293 385.485 718.804 378.651 725.791C372.593 731.984 371.553 735.947 365.146 741.767C362.139 744.498 359.949 755.034 356.165 755.773L355.444 755.358C355.359 754.313 355.347 754.02 356.022 753.194C359.467 748.991 360.929 741.713 364.907 737.578C371.334 730.898 372.83 726.606 379.341 720.01C384.926 714.349 382.071 715.022 387.84 709.557C413.08 685.647 438.563 662.543 469.813 647.096C478.135 642.983 486.905 639.448 495.641 636.363C502.733 633.86 533.279 626.004 537.434 622.011C517.636 625.337 498.088 625.049 478.227 627.008C445.195 630.269 399.671 638.486 367.586 630.357C356.188 627.469 345.752 622.253 334.809 618.075C320.464 612.597 306.217 607.92 293.623 598.692C286.677 593.605 280.772 587.666 275.209 581.064C272.753 581.106 270.241 581.261 267.789 581.12C263.174 578.221 260.676 573.826 259.409 568.5C259.199 567.615 259.06 566.718 258.941 565.816C256.633 565.26 254.197 564.551 251.815 564.559C244.587 564.582 231.815 570.785 223.441 572.603C194.547 578.872 170.387 574.139 147.37 554.667C140.416 548.785 133.701 541.834 128.943 533.947C126.893 530.55 123.96 525.249 124.938 521.134C125.197 520.048 125.797 519.296 126.755 518.804C127.997 518.168 129.567 518.645 130.794 519.126C135.814 521.096 139.856 526.787 143.531 530.649C155.568 543.294 170.237 554.799 187.682 557.707C199.581 559.69 213.294 557.132 224.764 553.887C240.163 549.528 253.383 541.261 268.722 552.542C271.718 554.745 274.136 557.433 276.584 560.221C336.243 549.956 392.074 528.993 450.625 514.687C471.071 509.794 491.62 505.41 512.273 501.534C522.719 499.494 539.381 497.565 548.879 493.607C542.529 492.649 536.088 492.284 529.705 491.598C520.444 490.534 511.213 489.246 502.011 487.734C477.408 483.519 452.954 478.35 428.425 473.724C415.109 471.212 401.777 469.128 388.434 466.835C380.198 465.419 372.032 463.762 363.758 462.553C354.873 461.252 345.952 460.227 337.057 458.991C330.379 458.064 323.713 456.846 317.009 456.143L280.51 452.048C275.439 451.44 269.288 451.381 264.457 449.785C264.457 449.785 263.617 449.67 263.078 449.597C252.033 447.831 240.864 446.599 229.789 444.95C201.035 440.921 172.456 435.865 144.051 429.78C136.6 428.159 128.583 427.753 121.387 425.177C118.456 424.129 115.651 422.535 113.77 419.943C112.388 418.039 111.711 415.731 112.117 413.369C112.505 411.106 113.828 409.201 115.675 407.921C120.479 404.589 127.353 406.046 132.668 407.173C161.884 413.376 191.057 419.434 220.543 424.183C258.44 430.29 296.606 434.853 334.613 440.21C359.386 443.757 384.122 447.556 408.822 451.607C415.668 452.789 422.431 454.383 429.278 455.586C441.911 457.809 454.659 459.638 467.252 462.053C494.494 467.53 521.557 473.809 548.442 480.891C553.574 471.783 562.182 465.257 569.519 458.093C572.299 455.378 574.726 452.221 577.654 449.68L575.223 457.52C579.536 456.065 583.309 453.56 587.531 452.029C588.565 449.469 589.428 446.89 590.254 444.255C586.805 446.881 583.079 449.273 578.702 449.794L578.311 449.299C579.793 446.752 581.848 445.67 584.303 444.258L583.047 440.689ZM264.457 449.785C264.457 449.785 264.389 449.922 264.434 449.783C264.478 449.644 264.457 449.785 264.457 449.785ZM436.641 460.5C435.938 463.484 435.174 470.44 436.57 473.147L437.779 473.879C438.045 471.027 438.752 462.822 436.851 460.69C436.787 460.619 436.709 460.563 436.641 460.5ZM418.668 457.74C418.462 460.448 417.246 467.509 418.533 469.806L419.402 470.328C420.376 468.054 420.41 461.371 419.647 459.016C419.428 458.34 419.189 458.156 418.668 457.74ZM473.987 466.71C473.927 467.581 473.943 468.21 474.178 469.052C475.216 472.779 472.44 477.573 474.921 480.931C476.633 477.994 475.39 471.008 475.093 467.61L473.987 466.71Z" fill="#131762"/>
</g>
<defs>
<clipPath id="clip0_2911_2011">
<rect width="1920" height="783" fill="white"/>
</clipPath>
</defs>
</svg>
