<svg width="1922" height="939" viewBox="0 0 1922 939" fill="none" xmlns="http://www.w3.org/2000/svg">
<g clip-path="url(#clip0_2918_1931)">
<rect width="1922" height="939" fill="#0021FF"/>
<path d="M345.46 1381.72C315.427 1298.07 49.3086 729.324 -83 549V952.639C-83 971.322 131.23 1416.93 131.23 1533H383C383 1523.24 375.492 1465.38 345.46 1381.72Z" fill="#FF303B"/>
<path d="M852.265 -19H-8V247.071C-8 247.071 31.8608 234.33 57.2333 225.663C252.981 158.796 478.192 -103.103 540.368 8.52444C569.231 60.3447 559.224 108.938 515.905 146.657C365.101 277.966 207.796 399.041 296.252 578.385C483.798 958.632 1062.13 323.018 1153.97 434.646C1227.36 523.846 1067.84 578.385 955.721 616.614C798.597 670.187 698.044 847.076 852.265 1028.97C1034.2 1243.56 1501.03 553.919 1623.34 689.503C1717.98 794.403 1490.33 914.796 1433.25 1015.21C1363.52 1137.87 1395.54 1303.4 1522.94 1365.38C1712.24 1457.47 1949 1015.21 1949 1015.21V578.385C1949 578.385 1839.79 616.614 1734.44 524.355C1541.8 355.64 1949 146.657 1949 146.657V-19H1465.87C1465.87 -19 1169.64 346.156 955.721 266.44C743.712 187.434 852.265 -19 852.265 -19Z" fill="#007F55"/>
</g>
<defs>
<clipPath id="clip0_2918_1931">
<rect width="1922" height="939" fill="white"/>
</clipPath>
</defs>
</svg>
