<svg width="608" height="608" viewBox="0 0 608 608" fill="none" xmlns="http://www.w3.org/2000/svg">
<g clip-path="url(#clip0_408_1874)" filter="url(#filter0_d_408_1874)">
<path opacity="0.5" d="M224.773 246.094L550.236 157.156" stroke="#2F3031" stroke-width="0.166696" stroke-miterlimit="10" stroke-linecap="round"/>
<path d="M484.875 74.5652L553.287 196.579" stroke="#2F3031" stroke-width="0.277827" stroke-miterlimit="10" stroke-linecap="round"/>
<path d="M553.284 335.871L346.625 530.188" stroke="#2F3031" stroke-width="0.277827" stroke-miterlimit="10" stroke-linecap="round"/>
<path d="M553.284 328.113L346.625 494.219" stroke="#2F3031" stroke-width="0.277827" stroke-miterlimit="10" stroke-linecap="round"/>
<path d="M56.293 228.559L212.391 170.252" stroke="#2F3031" stroke-width="0.277827" stroke-miterlimit="10" stroke-linecap="round"/>
<path d="M484.87 250.885L194.988 170.252" stroke="#2F3031" stroke-width="0.277827" stroke-miterlimit="10" stroke-linecap="round"/>
<path d="M56.293 339.751L223.408 391.601" stroke="#2F3031" stroke-width="0.277827" stroke-miterlimit="10" stroke-linecap="round"/>
<path d="M372.72 494.219L56.293 354.561" stroke="#2F3031" stroke-width="0.277827" stroke-miterlimit="10" stroke-linecap="round"/>
<path d="M372.72 530.188L56.293 369.372" stroke="#2F3031" stroke-width="0.277827" stroke-miterlimit="10" stroke-linecap="round"/>
<path d="M360.742 230.444L553.284 270.171" stroke="#2F3031" stroke-width="0.277827" stroke-miterlimit="10" stroke-linecap="round"/>
<path d="M381.427 231.843L56.293 275.57" stroke="#2F3031" stroke-width="0.277827" stroke-miterlimit="10" stroke-linecap="round"/>
<path d="M56.293 336.698L390.523 427.923" stroke="#2F3031" stroke-width="0.277827" stroke-miterlimit="10" stroke-linecap="round"/>
<path d="M365.328 427.923L553.285 317.425" stroke="#2F3031" stroke-width="0.277827" stroke-miterlimit="10" stroke-linecap="round"/>
<path d="M516.61 85.1443L56.293 250.314" stroke="#2F3031" stroke-width="0.277827" stroke-miterlimit="10" stroke-linecap="round"/>
<path d="M223.408 285.833L56.293 289.213" stroke="#2F3031" stroke-width="0.277827" stroke-miterlimit="10" stroke-linecap="round"/>
<path d="M194.988 285.833L553.283 292.095" stroke="#2F3031" stroke-width="0.277827" stroke-miterlimit="10" stroke-linecap="round"/>
<path d="M203.453 391.601L553.284 303.076" stroke="#2F3031" stroke-width="0.277827" stroke-miterlimit="10" stroke-linecap="round"/>
<g opacity="0.5">
<path d="M484.875 70.7468L553.287 192.772" stroke="#2F3031" stroke-width="0.166696" stroke-miterlimit="10" stroke-linecap="round"/>
<path d="M553.284 332.065L346.625 526.37" stroke="#2F3031" stroke-width="0.166696" stroke-miterlimit="10" stroke-linecap="round"/>
<path d="M553.284 324.307L346.625 490.401" stroke="#2F3031" stroke-width="0.166696" stroke-miterlimit="10" stroke-linecap="round"/>
<path d="M56.293 224.741L212.391 166.434" stroke="#2F3031" stroke-width="0.166696" stroke-miterlimit="10" stroke-linecap="round"/>
<path d="M484.87 247.079L194.988 166.434" stroke="#2F3031" stroke-width="0.166696" stroke-miterlimit="10" stroke-linecap="round"/>
<path d="M56.293 335.944L223.408 387.783" stroke="#2F3031" stroke-width="0.166696" stroke-miterlimit="10" stroke-linecap="round"/>
<path d="M372.72 490.401L56.293 350.755" stroke="#2F3031" stroke-width="0.166696" stroke-miterlimit="10" stroke-linecap="round"/>
<path d="M372.72 526.37L56.293 365.566" stroke="#2F3031" stroke-width="0.166696" stroke-miterlimit="10" stroke-linecap="round"/>
<path d="M360.742 226.638L553.284 266.365" stroke="#2F3031" stroke-width="0.166696" stroke-miterlimit="10" stroke-linecap="round"/>
<path d="M381.427 228.037L56.293 271.764" stroke="#2F3031" stroke-width="0.166696" stroke-miterlimit="10" stroke-linecap="round"/>
<path d="M56.293 332.892L390.523 424.104" stroke="#2F3031" stroke-width="0.166696" stroke-miterlimit="10" stroke-linecap="round"/>
<path d="M365.328 424.104L553.285 313.606" stroke="#2F3031" stroke-width="0.166696" stroke-miterlimit="10" stroke-linecap="round"/>
<path d="M516.61 81.3259L56.293 246.495" stroke="#2F3031" stroke-width="0.166696" stroke-miterlimit="10" stroke-linecap="round"/>
<path d="M223.408 282.027L56.293 285.395" stroke="#2F3031" stroke-width="0.166696" stroke-miterlimit="10" stroke-linecap="round"/>
<path d="M194.988 282.027L553.283 288.289" stroke="#2F3031" stroke-width="0.166696" stroke-miterlimit="10" stroke-linecap="round"/>
<path d="M203.453 387.782L553.284 299.27" stroke="#2F3031" stroke-width="0.166696" stroke-miterlimit="10" stroke-linecap="round"/>
</g>
<g opacity="0.5">
<path d="M484.875 77.4834L553.287 199.497" stroke="#2F3031" stroke-width="0.166696" stroke-miterlimit="10" stroke-linecap="round"/>
<path d="M553.284 338.802L346.625 533.106" stroke="#2F3031" stroke-width="0.166696" stroke-miterlimit="10" stroke-linecap="round"/>
<path d="M553.284 331.044L346.625 497.137" stroke="#2F3031" stroke-width="0.166696" stroke-miterlimit="10" stroke-linecap="round"/>
<path d="M56.293 231.477L212.391 173.17" stroke="#2F3031" stroke-width="0.166696" stroke-miterlimit="10" stroke-linecap="round"/>
<path d="M484.87 253.815L194.988 173.17" stroke="#2F3031" stroke-width="0.166696" stroke-miterlimit="10" stroke-linecap="round"/>
<path d="M56.293 342.681L223.408 394.519" stroke="#2F3031" stroke-width="0.166696" stroke-miterlimit="10" stroke-linecap="round"/>
<path d="M372.72 497.137L56.293 357.492" stroke="#2F3031" stroke-width="0.166696" stroke-miterlimit="10" stroke-linecap="round"/>
<path d="M372.72 533.106L56.293 372.302" stroke="#2F3031" stroke-width="0.166696" stroke-miterlimit="10" stroke-linecap="round"/>
<path d="M360.742 233.375L553.284 273.101" stroke="#2F3031" stroke-width="0.166696" stroke-miterlimit="10" stroke-linecap="round"/>
<path d="M381.427 234.773L56.293 278.5" stroke="#2F3031" stroke-width="0.166696" stroke-miterlimit="10" stroke-linecap="round"/>
<path d="M56.293 339.617L390.523 430.841" stroke="#2F3031" stroke-width="0.166696" stroke-miterlimit="10" stroke-linecap="round"/>
<path d="M365.328 430.841L553.285 320.343" stroke="#2F3031" stroke-width="0.166696" stroke-miterlimit="10" stroke-linecap="round"/>
<path d="M516.61 88.0625L56.293 253.232" stroke="#2F3031" stroke-width="0.166696" stroke-miterlimit="10" stroke-linecap="round"/>
<path d="M223.408 288.763L56.293 292.132" stroke="#2F3031" stroke-width="0.166696" stroke-miterlimit="10" stroke-linecap="round"/>
<path d="M194.988 288.763L553.283 295.026" stroke="#2F3031" stroke-width="0.166696" stroke-miterlimit="10" stroke-linecap="round"/>
<path d="M203.453 394.519L553.284 306.006" stroke="#2F3031" stroke-width="0.166696" stroke-miterlimit="10" stroke-linecap="round"/>
</g>
<path d="M61.7773 226.857V372.181L66.3738 374.491V225.142L61.7773 226.857Z" stroke="#2F3031" stroke-width="0.277827" stroke-miterlimit="10" stroke-linecap="round"/>
<path d="M66.375 225.142L71.3849 226.2V372.996L66.375 374.491" stroke="#2F3031" stroke-width="0.277827" stroke-miterlimit="10" stroke-linecap="round"/>
<path d="M214.508 388.804V175.676L224.771 178.533V386.202L214.508 388.804Z" stroke="#2F3031" stroke-width="0.277827" stroke-miterlimit="10" stroke-linecap="round"/>
<path d="M214.507 175.676L204.633 178.716V385.752L214.507 388.804V175.676Z" stroke="#2F3031" stroke-width="0.277827" stroke-miterlimit="10" stroke-linecap="round"/>
<path d="M262.711 248.563V393.036L270.165 395.066V247.59L262.711 248.563Z" stroke="#2F3031" stroke-width="0.277827" stroke-miterlimit="10" stroke-linecap="round"/>
<path d="M270.164 247.59L277.752 248.769V392.33L270.164 395.066" stroke="#2F3031" stroke-width="0.277827" stroke-miterlimit="10" stroke-linecap="round"/>
<path d="M373.317 423.217V233.022L362.75 234.36V420.335L373.317 423.217Z" stroke="#2F3031" stroke-width="0.277827" stroke-miterlimit="10" stroke-linecap="round"/>
<path d="M373.316 233.022L382.911 235.017V417.575L373.316 423.217V233.022Z" stroke="#2F3031" stroke-width="0.277827" stroke-miterlimit="10" stroke-linecap="round"/>
<path d="M495.125 92.854V390.555L500.852 385.168V103.068L495.125 92.854Z" stroke="#2F3031" stroke-width="0.555655" stroke-miterlimit="10" stroke-linecap="round"/>
<path d="M495.126 92.854L486.176 96.0642V389.327L495.126 390.555V92.854Z" stroke="#2F3031" stroke-width="0.555655" stroke-miterlimit="10" stroke-linecap="round"/>
<path d="M544.531 180.965V344.104L541.102 347.338V174.837L544.531 180.965Z" stroke="#2F3031" stroke-width="0.277827" stroke-miterlimit="10" stroke-linecap="round"/>
<path d="M541.102 174.837L535.715 176.661V347.338H541.102" stroke="#2F3031" stroke-width="0.277827" stroke-miterlimit="10" stroke-linecap="round"/>
<path d="M330.988 151.745V367.974L338.734 369.372V148.972L330.988 151.745Z" stroke="#2F3031" stroke-width="0.277827" stroke-miterlimit="10" stroke-linecap="round"/>
<path d="M338.734 148.972L346.626 153.204V365.676L338.734 369.372V148.972Z" stroke="#2F3031" stroke-width="0.277827" stroke-miterlimit="10" stroke-linecap="round"/>
<path d="M502.65 391.601L56.293 330.168" stroke="#2F3031" stroke-width="0.277827" stroke-miterlimit="10" stroke-linecap="round"/>
<path d="M535.712 378.893L461.719 371.257V251.177" stroke="#2F3031" stroke-width="0.555655" stroke-miterlimit="10" stroke-linecap="round"/>
<path d="M452.454 125.99L369.645 153.484" stroke="#2F3031" stroke-width="0.555655" stroke-miterlimit="10" stroke-linecap="round"/>
<path d="M374.871 147.854V233.022" stroke="#2F3031" stroke-width="0.555655" stroke-miterlimit="10" stroke-linecap="round"/>
<path d="M374.871 151.757L391.798 159.138L448.451 141.506" stroke="#2F3031" stroke-width="0.555655" stroke-miterlimit="10" stroke-linecap="round"/>
<path d="M391.801 159.138V235.868" stroke="#2F3031" stroke-width="0.555655" stroke-miterlimit="10" stroke-linecap="round"/>
<path d="M397.797 238.069V163.37L448.455 147.854" stroke="#2F3031" stroke-width="0.555655" stroke-miterlimit="10" stroke-linecap="round"/>
<path d="M397.797 163.37L402.029 165.838L448.455 151.733" stroke="#2F3031" stroke-width="0.555655" stroke-miterlimit="10" stroke-linecap="round"/>
<path d="M402.027 165.838V238.969" stroke="#2F3031" stroke-width="0.555655" stroke-miterlimit="10" stroke-linecap="round"/>
<path d="M428.73 153.897V244.465" stroke="#2F3031" stroke-width="0.555655" stroke-miterlimit="10" stroke-linecap="round"/>
<path d="M432.594 245.267V152.705L435.743 155.587V245.912" stroke="#2F3031" stroke-width="0.555655" stroke-miterlimit="10" stroke-linecap="round" stroke-linejoin="round"/>
<path d="M508.621 154.262V233.022L530.594 244.185V183.178L508.621 154.262Z" stroke="#2F3031" stroke-width="0.555655" stroke-miterlimit="10" stroke-linecap="round"/>
<path d="M530.594 183.178H524.368L508.621 166.726" stroke="#2F3031" stroke-width="0.555655" stroke-miterlimit="10" stroke-linecap="round"/>
<path d="M524.367 183.178V240.829" stroke="#2F3031" stroke-width="0.555655" stroke-miterlimit="10" stroke-linecap="round"/>
<path d="M522.252 239.941V184.589L508.621 170.252" stroke="#2F3031" stroke-width="0.555655" stroke-miterlimit="10" stroke-linecap="round"/>
<path d="M522.252 184.589H520.55L508.621 173.134" stroke="#2F3031" stroke-width="0.555655" stroke-miterlimit="10" stroke-linecap="round"/>
<path d="M520.547 184.589V239.078" stroke="#2F3031" stroke-width="0.555655" stroke-miterlimit="10" stroke-linecap="round"/>
<path d="M352.864 418.049V259.178L283.613 266.402V398.739L301.367 391.601V264.553" stroke="#2F3031" stroke-width="0.555655" stroke-miterlimit="10" stroke-linecap="round"/>
<path d="M301.367 391.601L352.865 404.879" stroke="#2F3031" stroke-width="0.555655" stroke-miterlimit="10" stroke-linecap="round"/>
<path d="M324.529 277.224L307.141 278.634V310.895H324.529V277.224Z" stroke="#2F3031" stroke-width="0.555655" stroke-miterlimit="10" stroke-linecap="round"/>
<path d="M328.301 277.224V310.895H349.69V275.57L328.301 277.224Z" stroke="#2F3031" stroke-width="0.555655" stroke-miterlimit="10" stroke-linecap="round"/>
<path d="M307.141 315.066H324.529V346.098L307.141 344.931V315.066Z" stroke="#2F3031" stroke-width="0.555655" stroke-miterlimit="10" stroke-linecap="round"/>
<path d="M328.301 315.066V346.098L349.69 347.338V315.54L328.301 315.066Z" stroke="#2F3031" stroke-width="0.555655" stroke-miterlimit="10" stroke-linecap="round"/>
<path d="M393.77 259.178V289.311L454.205 290.369V266.754L393.77 259.178Z" stroke="#2F3031" stroke-width="0.555655" stroke-miterlimit="10" stroke-linecap="round"/>
<path d="M447.43 290.247V265.903" stroke="#2F3031" stroke-width="0.555655" stroke-miterlimit="10" stroke-linecap="round"/>
<path d="M421.883 262.705V289.809" stroke="#2F3031" stroke-width="0.555655" stroke-miterlimit="10" stroke-linecap="round"/>
<path d="M426.832 263.325V289.809" stroke="#2F3031" stroke-width="0.555655" stroke-miterlimit="10" stroke-linecap="round"/>
<path d="M418.332 262.705V289.761" stroke="#2F3031" stroke-width="0.555655" stroke-miterlimit="10" stroke-linecap="round"/>
<path d="M508.621 273.454V291.317L530.594 291.706V276.567L508.621 273.454Z" stroke="#2F3031" stroke-width="0.555655" stroke-miterlimit="10" stroke-linecap="round"/>
<path d="M527.227 276.081V291.645" stroke="#2F3031" stroke-width="0.555655" stroke-miterlimit="10" stroke-linecap="round"/>
<path d="M519.602 275.011V291.512" stroke="#2F3031" stroke-width="0.555655" stroke-miterlimit="10" stroke-linecap="round"/>
<path d="M516.605 274.767V291.463" stroke="#2F3031" stroke-width="0.555655" stroke-miterlimit="10" stroke-linecap="round"/>
<path d="M514.727 274.318V291.427" stroke="#2F3031" stroke-width="0.555655" stroke-miterlimit="10" stroke-linecap="round"/>
<path d="M61.7773 223.379V356.993L355.879 486.777L495.123 374.71L461.72 371.257L373.317 423.217V233.022L231.47 252.016V384.511" stroke="#2F3031" stroke-width="1.11131" stroke-miterlimit="10" stroke-linecap="round"/>
<path d="M495.125 85.1444V258.181" stroke="#2F3031" stroke-width="1.11131" stroke-miterlimit="10" stroke-linecap="round"/>
<path d="M204.961 173.025V286.222H214.507V388.804L231.47 384.511L283.612 398.739" stroke="#2F3031" stroke-width="1.11131" stroke-miterlimit="10" stroke-linecap="round"/>
<path d="M107.851 355.741L71.3828 360.884V289.213L107.158 288.18L107.851 355.741ZM107.851 355.741L214.506 388.804" stroke="#2F3031" stroke-width="1.11131" stroke-miterlimit="10" stroke-linecap="round"/>
<path d="M61.7773 356.993V372.181L355.782 521.579V486.777" stroke="#2F3031" stroke-width="1.11131" stroke-miterlimit="10" stroke-linecap="round"/>
<path d="M181.006 510.842C198.339 510.842 212.391 505.457 212.391 498.815C212.391 492.173 198.339 486.789 181.006 486.789C163.673 486.789 149.621 492.173 149.621 498.815C149.621 505.457 163.673 510.842 181.006 510.842Z" stroke="#2F3031" stroke-width="0.555655" stroke-miterlimit="10" stroke-linecap="round"/>
<path d="M158.631 462.019C158.631 465.339 151.603 468.038 142.933 468.038C134.263 468.038 127.234 465.351 127.234 462.019C127.234 458.687 134.263 456 142.933 456C151.603 456 158.631 458.687 158.631 462.019Z" stroke="#2F3031" stroke-width="0.555655" stroke-miterlimit="10" stroke-linecap="round"/>
<path d="M508.62 439.049C517.291 439.049 524.319 436.354 524.319 433.03C524.319 429.706 517.291 427.011 508.62 427.011C499.95 427.011 492.922 429.706 492.922 433.03C492.922 436.354 499.95 439.049 508.62 439.049Z" stroke="#2F3031" stroke-width="0.555655" stroke-miterlimit="10" stroke-linecap="round"/>
<path d="M496.022 462.019C496.022 465.339 488.994 468.038 480.324 468.038C471.653 468.038 464.625 465.351 464.625 462.019C464.625 458.687 471.653 456 480.324 456C488.994 456 496.022 458.687 496.022 462.019Z" stroke="#2F3031" stroke-width="0.555655" stroke-miterlimit="10" stroke-linecap="round"/>
<path d="M447.433 504.835C456.103 504.835 463.131 502.14 463.131 498.815C463.131 495.491 456.103 492.796 447.433 492.796C438.763 492.796 431.734 495.491 431.734 498.815C431.734 502.14 438.763 504.835 447.433 504.835Z" stroke="#2F3031" stroke-width="0.555655" stroke-miterlimit="10" stroke-linecap="round"/>
<path d="M355.782 521.579L544.529 344.104V180.965L495.123 92.854L330.988 151.745V208.082L204.961 173.025L61.7773 226.857" stroke="#2F3031" stroke-width="1.11131" stroke-miterlimit="10" stroke-linecap="round"/>
<path d="M330.988 208.082V238.652" stroke="#2F3031" stroke-width="1.11131" stroke-miterlimit="10" stroke-linecap="round"/>
<path d="M495.125 374.711V258.181" stroke="#2F3031" stroke-width="1.11131" stroke-miterlimit="10" stroke-linecap="round"/>
<path d="M373.316 233.022L461.209 251.177L461.72 371.257" stroke="#2F3031" stroke-width="1.11131" stroke-miterlimit="10" stroke-linecap="round"/>
<path d="M232.613 200.02V233.022L321.004 250.314V222.759L232.613 200.02Z" stroke="#2F3031" stroke-width="0.555655" stroke-miterlimit="10" stroke-linecap="round"/>
<path d="M321.001 222.759L313.875 224.547L314.24 248.988" stroke="#2F3031" stroke-width="0.555655" stroke-miterlimit="10" stroke-linecap="round"/>
<path d="M313.879 224.547L232.613 204.337" stroke="#2F3031" stroke-width="0.555655" stroke-miterlimit="10" stroke-linecap="round"/>
<path d="M311.434 248.441V226.091L232.613 206.696" stroke="#2F3031" stroke-width="0.555655" stroke-miterlimit="10" stroke-linecap="round"/>
<path d="M311.434 226.091H309.488V248.064" stroke="#2F3031" stroke-width="0.555655" stroke-miterlimit="10" stroke-linecap="round"/>
<path d="M293.07 221.567V244.842" stroke="#2F3031" stroke-width="0.555655" stroke-miterlimit="10" stroke-linecap="round"/>
<path d="M290.336 220.899V244.1" stroke="#2F3031" stroke-width="0.555655" stroke-miterlimit="10" stroke-linecap="round"/>
<path d="M288.453 220.899V244.027" stroke="#2F3031" stroke-width="0.555655" stroke-miterlimit="10" stroke-linecap="round"/>
<path d="M262.711 214.442V238.908" stroke="#2F3031" stroke-width="0.555655" stroke-miterlimit="10" stroke-linecap="round"/>
<path d="M258.941 238.166V213.165" stroke="#2F3031" stroke-width="0.555655" stroke-miterlimit="10" stroke-linecap="round"/>
<path d="M256.727 212.618V237.643" stroke="#2F3031" stroke-width="0.555655" stroke-miterlimit="10" stroke-linecap="round"/>
<path d="M204.959 286.222L107.156 288.18" stroke="#2F3031" stroke-width="1.11131" stroke-miterlimit="10" stroke-linecap="round"/>
<path d="M179.012 206.282V259.069" stroke="#2F3031" stroke-width="0.555655" stroke-miterlimit="10" stroke-linecap="round"/>
<path d="M139.844 220.327V264.334" stroke="#2F3031" stroke-width="0.555655" stroke-miterlimit="10" stroke-linecap="round"/>
<path d="M116.07 228.863V267.532" stroke="#2F3031" stroke-width="0.555655" stroke-miterlimit="10" stroke-linecap="round"/>
<path d="M84.5078 240.184V272.749" stroke="#2F3031" stroke-width="0.555655" stroke-miterlimit="10" stroke-linecap="round"/>
<path d="M84.5078 240.184L89.2016 240.841V271.144" stroke="#2F3031" stroke-width="0.555655" stroke-miterlimit="10" stroke-linecap="round"/>
<path d="M89.1992 240.841L116.073 232.195" stroke="#2F3031" stroke-width="0.555655" stroke-miterlimit="10" stroke-linecap="round"/>
<path d="M139.844 220.327L146.216 221.093V263.349" stroke="#2F3031" stroke-width="0.555655" stroke-miterlimit="10" stroke-linecap="round"/>
<path d="M146.215 221.093L179.01 209.809" stroke="#2F3031" stroke-width="0.555655" stroke-miterlimit="10" stroke-linecap="round"/>
<path d="M148.211 263.216V222.321L179.012 211.985" stroke="#2F3031" stroke-width="0.555655" stroke-miterlimit="10" stroke-linecap="round"/>
<path d="M165.719 216.436V260.856" stroke="#2F3031" stroke-width="0.555655" stroke-miterlimit="10" stroke-linecap="round"/>
<path d="M168.262 260.516V215.585L170.074 216.436V260.273" stroke="#2F3031" stroke-width="0.555655" stroke-miterlimit="10" stroke-linecap="round"/>
<path d="M148.211 222.321L149.622 222.917V263.021" stroke="#2F3031" stroke-width="0.555655" stroke-miterlimit="10" stroke-linecap="round"/>
<path d="M149.621 222.917L165.721 217.737" stroke="#2F3031" stroke-width="0.555655" stroke-miterlimit="10" stroke-linecap="round"/>
<path d="M170.074 216.436L179.012 213.396" stroke="#2F3031" stroke-width="0.555655" stroke-miterlimit="10" stroke-linecap="round"/>
<path d="M90.8633 270.925V241.838L116.071 234.311" stroke="#2F3031" stroke-width="0.555655" stroke-miterlimit="10" stroke-linecap="round"/>
<path d="M103.465 238.081V269.222" stroke="#2F3031" stroke-width="0.555655" stroke-miterlimit="10" stroke-linecap="round"/>
<path d="M105.137 269.004V237.57L106.365 238.081V268.833" stroke="#2F3031" stroke-width="0.555655" stroke-miterlimit="10" stroke-linecap="round"/>
<path d="M90.8633 241.838L91.9942 242.252V270.767" stroke="#2F3031" stroke-width="0.555655" stroke-miterlimit="10" stroke-linecap="round"/>
<path d="M91.9961 242.251L103.463 238.895" stroke="#2F3031" stroke-width="0.555655" stroke-miterlimit="10" stroke-linecap="round"/>
<path d="M106.367 238.081L116.071 235.199" stroke="#2F3031" stroke-width="0.555655" stroke-miterlimit="10" stroke-linecap="round"/>
<path d="M66.375 184.589V420.578" stroke="#2F3031" stroke-width="0.166696" stroke-miterlimit="10" stroke-linecap="round"/>
<path d="M204.633 140.46V492.456" stroke="#2F3031" stroke-width="0.166696" stroke-miterlimit="10" stroke-linecap="round"/>
<path d="M214.508 144.339V502.682" stroke="#2F3031" stroke-width="0.166696" stroke-miterlimit="10" stroke-linecap="round"/>
<path d="M330.574 136.934V536.463" stroke="#2F3031" stroke-width="0.166696" stroke-miterlimit="10" stroke-linecap="round"/>
<path d="M495.125 66.6003V427.315" stroke="#2F3031" stroke-width="0.166696" stroke-miterlimit="10" stroke-linecap="round"/>
<path d="M270.164 112.553V412.552" stroke="#2F3031" stroke-width="0.166696" stroke-miterlimit="10" stroke-linecap="round"/>
<path d="M544.527 147.209V379.854" stroke="#2F3031" stroke-width="0.166696" stroke-miterlimit="10" stroke-linecap="round"/>
<path d="M373.66 205.006V437.651" stroke="#2F3031" stroke-width="0.166696" stroke-miterlimit="10" stroke-linecap="round"/>
<path d="M56.293 212.01L514.725 29.8407" stroke="#2F3031" stroke-width="0.166696" stroke-miterlimit="10" stroke-linecap="round"/>
<path d="M553.286 174.837L469.941 29.8408" stroke="#2F3031" stroke-width="0.166696" stroke-miterlimit="10" stroke-linecap="round"/>
<path d="M448.453 123.704V248.246" stroke="#2F3031" stroke-width="0.555655" stroke-miterlimit="10" stroke-linecap="round"/>
<path d="M116.949 295.026H204.635V350.755L116.949 338.51V295.026Z" stroke="#2F3031" stroke-width="0.555655" stroke-miterlimit="10" stroke-linecap="round"/>
<path d="M122.506 295.026V337.635L116.949 338.51" stroke="#2F3031" stroke-width="0.555655" stroke-miterlimit="10" stroke-linecap="round"/>
<path d="M122.508 337.635L204.636 348.457" stroke="#2F3031" stroke-width="0.555655" stroke-miterlimit="10" stroke-linecap="round"/>
<path d="M125.164 295.026V335.945L204.63 345.223" stroke="#2F3031" stroke-width="0.555655" stroke-miterlimit="10" stroke-linecap="round"/>
<path d="M160.785 295.026V340.103" stroke="#2F3031" stroke-width="0.555655" stroke-miterlimit="10" stroke-linecap="round"/>
<path d="M167.375 340.577V295.026" stroke="#2F3031" stroke-width="0.555655" stroke-miterlimit="10" stroke-linecap="round"/>
<path d="M164.906 295.026V340.577" stroke="#2F3031" stroke-width="0.555655" stroke-miterlimit="10" stroke-linecap="round"/>
<path d="M125.164 335.945H127.17V295.026" stroke="#2F3031" stroke-width="0.555655" stroke-miterlimit="10" stroke-linecap="round"/>
</g>
<defs>
<filter id="filter0_d_408_1874" x="-3.18742" y="0" width="614.375" height="614.375" filterUnits="userSpaceOnUse" color-interpolation-filters="sRGB">
<feFlood flood-opacity="0" result="BackgroundImageFix"/>
<feColorMatrix in="SourceAlpha" type="matrix" values="0 0 0 0 0 0 0 0 0 0 0 0 0 0 0 0 0 0 127 0" result="hardAlpha"/>
<feOffset dy="3.18742"/>
<feGaussianBlur stdDeviation="1.59371"/>
<feComposite in2="hardAlpha" operator="out"/>
<feColorMatrix type="matrix" values="0 0 0 0 1 0 0 0 0 1 0 0 0 0 1 0 0 0 0.25 0"/>
<feBlend mode="normal" in2="BackgroundImageFix" result="effect1_dropShadow_408_1874"/>
<feBlend mode="normal" in="SourceGraphic" in2="effect1_dropShadow_408_1874" result="shape"/>
</filter>
<clipPath id="clip0_408_1874">
<rect width="608" height="608" fill="white"/>
</clipPath>
</defs>
</svg>
