<svg width="420" height="474" viewBox="0 0 420 474" fill="none" xmlns="http://www.w3.org/2000/svg">
<g filter="url(#filter0_f_2756_2840)">
<ellipse cx="210" cy="288" rx="144" ry="146" fill="#F2C791"/>
</g>
<path d="M201.141 0.135819C202.376 0.0451638 203.642 0.0561089 204.881 0.0344752C261.486 -0.955309 314.915 19.3847 355.754 58.8254C396.602 98.2751 418.977 151.087 419.946 207.778C420.877 262.496 399.785 315.961 361.707 355.269C330.313 387.677 291.559 409.013 247.014 416.807C237.727 418.432 228.237 419.716 218.798 419.858C170.21 421.605 122.096 407.338 83.3741 377.716C79.5466 374.788 75.7298 371.863 72.1311 368.652C30.222 331.264 3.51881 278.059 0.330414 221.836C-2.79922 166.649 16.4135 111.848 53.2956 70.6381C92.3658 26.9829 142.717 3.37332 201.141 0.135819Z" fill="#1B1B1B"/>
<path d="M206.105 7.52059L206.113 7.52012C206.268 7.51194 206.425 7.50684 206.586 7.50157L206.641 7.49979C213.364 7.27948 220.259 7.75046 226.995 8.30807C273.025 12.1182 315.821 31.9224 349.403 63.4658C387.112 98.8867 410.408 150.064 411.942 201.816C412.385 216.784 411.622 231.861 409.001 246.604C402.308 284.257 383.714 320.553 357.541 348.382C351.118 355.21 344.322 361.82 337.058 367.73C313.509 386.887 284.483 400.911 254.858 407.534C241.555 410.507 227.939 412.021 214.318 412.441C162.435 413.349 111.418 394.516 73.3382 359.156C34.5496 323.138 9.73337 270.803 7.8445 217.795C5.90476 163.359 25.3129 111.716 62.5173 71.8644C92.6239 39.616 132.13 17.8335 175.702 10.4071C185.732 8.69772 195.928 7.88356 206.105 7.52059ZM206.086 7.00662L206.086 7.00613L206.086 7.00662Z" stroke="#2D2E30" stroke-width="1.02941"/>
<path d="M213.242 394.928L213.242 394.929C214.995 395.81 216.338 397.401 216.893 399.28L216.893 399.28C217.447 401.153 217.203 403.312 216.238 405.009L216.238 405.009C215.153 406.918 213.502 407.82 211.355 408.379C209.994 408.563 208.519 408.385 207.266 407.85C205.492 407.093 204.1 405.636 203.456 403.821L203.456 403.821C202.823 402.039 202.926 400.051 203.746 398.348L203.746 398.348C204.791 396.178 206.573 394.946 208.865 394.19C210.475 394.119 211.845 394.225 213.242 394.928Z" stroke="#2D2E30" stroke-width="1.02941"/>
<path d="M211.264 398.059L211.264 398.059C210.672 397.865 210.07 397.846 209.371 397.851C208.183 398.34 207.349 398.85 206.869 399.94C206.511 400.754 206.5 401.65 206.828 402.483L211.264 398.059ZM211.264 398.059C212.208 398.369 213.007 399.106 213.413 400.021M211.264 398.059L213.413 400.021M213.413 400.021C213.798 400.89 213.794 401.862 213.401 402.726C212.923 403.777 212.108 404.289 210.949 404.734C210.933 404.735 210.916 404.736 210.9 404.737C210.127 404.772 209.508 404.801 208.918 404.554L208.918 404.554C207.987 404.166 207.191 403.402 206.828 402.483L213.413 400.021Z" stroke="#2D2E30" stroke-width="1.02941"/>
<path d="M214.403 13.5895L214.403 13.5894C213.03 12.5889 211.438 12.2466 209.691 12.2032C207.406 12.5959 205.664 13.2344 204.329 15.1023L214.403 13.5895ZM214.403 13.5895C215.953 14.719 216.971 16.4863 217.192 18.3946L217.192 18.3947M214.403 13.5895L217.192 18.3947M217.192 18.3947C217.412 20.2828 216.874 22.3055 215.68 23.7705C214.338 25.4173 212.621 26.0181 210.486 26.2945C208.912 26.2858 207.457 26.0253 206.157 25.2272C204.553 24.2421 203.492 22.5883 203.14 20.7245L203.14 20.7245M217.192 18.3947L203.14 20.7245M203.14 20.7245C202.772 18.7735 203.181 16.7104 204.329 15.1023L203.14 20.7245ZM202.634 20.82L202.634 20.82L202.634 20.82Z" stroke="#2D2E30" stroke-width="1.02941"/>
<path d="M209.178 15.7934C208.015 16.3938 207.283 16.9975 206.923 18.1839L209.178 15.7934ZM209.178 15.7934C209.819 15.7462 210.38 15.725 210.934 15.8559L209.178 15.7934ZM213.66 17.2991L213.256 17.5313C212.768 16.681 211.912 16.0869 210.934 15.8559L213.66 17.2991ZM213.66 17.2991L213.256 17.5313C213.661 18.2362 213.75 19.1046 213.521 19.9002M213.66 17.2991L213.521 19.9002M213.521 19.9002C213.166 21.1332 212.282 21.8965 211.086 22.5462M213.521 19.9002L211.086 22.5462M211.086 22.5462C210.461 22.6481 209.956 22.6991 209.412 22.5795L211.086 22.5462ZM209.412 22.5795C208.482 22.3748 207.665 21.7916 207.207 20.9707L209.412 22.5795ZM207.207 20.9706C206.741 20.133 206.643 19.1081 206.923 18.1841L207.207 20.9706Z" stroke="#2D2E30" stroke-width="1.02941"/>
<path d="M26.0538 208.499L26.0538 208.499C25.6448 206.567 24.512 204.83 22.8443 203.799L26.0538 208.499ZM26.0538 208.499C26.4688 210.458 26.1527 212.465 25.0476 214.117C23.8218 215.95 22.0804 216.845 19.8996 217.321C18.3708 217.42 16.8961 217.13 15.568 216.389C13.8939 215.455 12.6829 213.842 12.234 211.976L11.7339 212.096M26.0538 208.499L11.7339 212.096M11.7339 212.096L12.234 211.976C11.7418 209.93 12.1072 207.716 13.264 205.962C14.5285 204.045 16.2593 203.193 18.5209 202.774M11.7339 212.096L18.5209 202.774M18.5209 202.774C20.0373 202.675 21.566 203.008 22.8443 203.799L18.5209 202.774Z" stroke="#2D2E30" stroke-width="1.02941"/>
<path d="M19.8615 206.63L19.8613 206.63C19.3677 206.528 18.8218 206.557 18.2415 206.608C16.9718 207.312 16.1405 208.003 15.795 209.329C15.5747 210.175 15.6769 211.065 16.1137 211.803L19.8615 206.63ZM19.8615 206.63C20.6669 206.795 21.4576 207.416 21.9063 208.15M19.8615 206.63L21.9063 208.15M21.9063 208.15C22.4187 208.989 22.5222 210.013 22.2479 210.98L21.9063 208.15ZM20.0869 213.386C21.2103 212.782 21.916 212.15 22.2479 210.98L20.0869 213.386ZM20.0869 213.386C19.4507 213.442 18.8815 213.457 18.3022 213.343L20.0869 213.386ZM18.3021 213.343C17.4198 213.169 16.5713 212.575 16.1138 211.803L18.3021 213.343Z" stroke="#2D2E30" stroke-width="1.02941"/>
<path d="M73.8122 83.1437L73.8123 83.1437C75.1636 83.6177 76.5924 83.6968 77.9987 83.4063C80.1329 82.6758 81.7892 81.5628 82.8007 79.5656L73.8122 83.1437ZM73.8122 83.1437C71.9802 82.5015 70.5239 81.137 69.7393 79.3589C68.9752 77.6268 68.9133 75.6256 69.6202 73.8783C70.5502 71.5804 72.3521 70.2073 74.656 69.2647M73.8122 83.1437L74.656 69.2647M74.656 69.2647C76.3614 69.0643 77.9089 69.1515 79.422 69.8575L74.656 69.2647ZM83.1873 74.0394C82.5497 72.2275 81.1592 70.6686 79.4221 69.8576L83.1873 74.0394ZM83.1873 74.0394C83.8281 75.8611 83.6761 77.8364 82.8007 79.5655L83.1873 74.0394Z" stroke="#2D2E30" stroke-width="1.02941"/>
<path d="M77.2475 72.8766L77.2474 72.8766C76.6924 72.7006 76.167 72.6691 75.546 72.6941C74.1956 73.3437 73.354 73.9491 72.9055 75.3031L72.9054 75.3031C72.5955 76.2383 72.658 77.2593 73.12 78.1083L77.2475 72.8766ZM77.2475 72.8766C78.2231 73.1856 79.0457 73.8394 79.4867 74.7336L79.4868 74.7338M77.2475 72.8766L79.4868 74.7338M79.4868 74.7338C79.923 75.6173 79.9386 76.6068 79.585 77.5481L79.5849 77.5483M79.4868 74.7338L79.5849 77.5483M79.5849 77.5483C79.1489 78.7103 78.3252 79.339 77.1363 79.8913C76.484 79.919 75.8771 79.9273 75.3241 79.7864L75.3238 79.7864M79.5849 77.5483L75.3238 79.7864M75.3238 79.7864C74.3943 79.5501 73.5728 78.9396 73.1201 78.1085L75.3238 79.7864Z" stroke="#2D2E30" stroke-width="1.02941"/>
<path d="M79.9196 337.2L79.9195 337.2C78.4666 336.328 76.916 336.129 75.1876 336.264C72.9569 336.739 71.2216 337.608 70.0081 339.522L79.9196 337.2ZM79.9196 337.2C81.5943 338.203 82.7697 339.884 83.2038 341.795M79.9196 337.2L83.2038 341.795M83.2038 341.795C83.6408 343.721 83.3032 345.759 82.2125 347.396L82.2124 347.396C80.9796 349.246 79.2232 350.13 77.0351 350.619C75.3226 350.712 73.834 350.484 72.4042 349.601L72.4042 349.601C70.7422 348.575 69.5185 346.898 69.0772 344.999L69.0772 344.999C68.6423 343.128 68.9797 341.144 70.0081 339.522L83.2038 341.795Z" stroke="#2D2E30" stroke-width="1.02941"/>
<path d="M79.1976 341.484L79.1976 341.484C78.6863 340.711 77.8309 340.167 76.9154 340.033L79.1976 341.484ZM79.1976 341.484C79.7157 342.266 79.8556 343.254 79.6053 344.175L79.6053 344.175M79.1976 341.484L79.6053 344.175M79.6053 344.175C79.2582 345.451 78.4335 346.245 77.232 346.903C76.6385 346.985 76.1167 347.038 75.5981 346.953C74.6302 346.795 73.7047 346.219 73.1944 345.407L73.1943 345.407M79.6053 344.175L73.1943 345.407M73.1943 345.407C72.6675 344.569 72.5658 343.575 72.8403 342.597L73.1943 345.407ZM75.0836 340.112C73.9503 340.801 73.1693 341.426 72.8403 342.597L75.0836 340.112ZM75.0836 340.112C75.1323 340.107 75.1806 340.101 75.2285 340.095C75.8398 340.022 76.3891 339.956 76.9154 340.033L75.0836 340.112Z" stroke="#2D2E30" stroke-width="1.02941"/>
<path d="M406.519 214.316L406.519 214.316C405.19 216.167 403.415 216.957 401.154 217.354C399.412 217.403 397.789 217.092 396.378 216.141L396.378 216.141C394.822 215.093 393.799 213.382 393.47 211.519L393.47 211.519C393.114 209.506 393.59 207.447 394.773 205.776L394.773 205.776C396.09 203.915 397.871 202.964 400.124 202.58C401.644 202.538 403.223 202.978 404.508 203.796C406.152 204.843 407.319 206.548 407.723 208.457C408.155 210.5 407.735 212.624 406.519 214.316Z" stroke="#2D2E30" stroke-width="1.02941"/>
<path d="M397.455 211.699L397.455 211.699C397.884 212.575 398.705 213.233 399.657 213.538L397.455 211.699ZM397.455 211.699C397.028 210.825 396.996 209.773 397.344 208.852L397.345 208.852M397.455 211.699L397.345 208.852M397.345 208.852C397.821 207.591 398.705 206.963 400.004 206.39M397.345 208.852L400.004 206.39M400.004 206.39C400.668 206.371 401.226 206.374 401.776 206.555L400.004 206.39ZM401.776 206.555C402.698 206.857 403.483 207.522 403.877 208.388L401.776 206.555ZM403.878 208.388C404.298 209.312 404.277 210.345 403.891 211.312L403.878 208.388ZM403.891 211.312C403.415 212.509 402.583 213.12 401.354 213.695C400.727 213.709 400.17 213.701 399.657 213.538L403.891 211.312Z" stroke="#2D2E30" stroke-width="1.02941"/>
<path d="M347.898 69.8328L347.898 69.8328C349.616 70.7047 350.962 72.2413 351.544 74.0699C352.131 75.918 351.952 77.9335 351.037 79.642C349.948 81.6754 348.214 82.7439 346.004 83.4681C344.412 83.7426 342.94 83.6327 341.483 82.9752L341.483 82.9752C339.725 82.1816 338.334 80.6371 337.649 78.8229L337.648 78.8228C336.932 76.9262 337.047 74.8541 337.961 73.0417L337.961 73.0417C339.024 70.9338 340.707 69.8512 342.941 69.0645C344.729 68.8394 346.302 69.0226 347.898 69.8328Z" stroke="#2D2E30" stroke-width="1.02941"/>
<path d="M343.598 79.6622L343.598 79.6623C344.158 79.8356 344.746 79.8183 345.433 79.7888C346.579 79.2582 347.373 78.636 347.833 77.5185C348.192 76.6467 348.171 75.6148 347.784 74.7525C347.382 73.8567 346.599 73.1334 345.674 72.8101L343.598 79.6622ZM343.598 79.6622C342.6 79.3539 341.703 78.6476 341.226 77.7404C340.813 76.9532 340.737 76.0557 341.007 75.2077L341.007 75.2077M343.598 79.6622L341.007 75.2077M341.007 75.2077C341.404 73.961 342.308 73.3029 343.567 72.6689M341.007 75.2077L343.567 72.6689M343.567 72.6689C343.608 72.6671 343.649 72.6653 343.689 72.6635C344.436 72.63 345.077 72.6013 345.674 72.8101L343.567 72.6689Z" stroke="#2D2E30" stroke-width="1.02941"/>
<path d="M348.417 336.23L348.417 336.23C350.178 337.095 351.51 338.599 352.127 340.459C352.753 342.349 352.632 344.466 351.716 346.223L351.716 346.223C350.603 348.358 348.81 349.334 346.499 350.101C344.57 350.321 342.809 350.166 341.172 349.207L341.172 349.207C339.479 348.215 338.203 346.51 337.721 344.607C337.232 342.678 337.597 340.666 338.644 338.956L338.211 338.692L338.644 338.956C339.808 337.055 341.478 335.945 343.639 335.407C345.275 335.278 346.97 335.519 348.417 336.23Z" stroke="#2D2E30" stroke-width="1.02941"/>
<path d="M348.108 340.955L348.108 340.955C347.59 340.105 346.663 339.464 345.685 339.27L348.108 340.955ZM348.108 340.955C348.609 341.778 348.733 342.777 348.475 343.716L348.474 343.716M348.108 340.955L348.474 343.716M348.474 343.716C348.109 345.048 347.244 345.765 345.969 346.492C345.27 346.599 344.637 346.695 344.089 346.557L344.089 346.557M348.474 343.716L344.089 346.557M344.089 346.557C343.09 346.304 342.18 345.549 341.708 344.622L341.708 344.622M344.089 346.557L341.708 344.622M341.708 344.622C341.224 343.67 341.138 342.555 341.487 341.554L341.487 341.554M341.708 344.622L341.487 341.554M341.487 341.554C341.913 340.332 342.726 339.825 344 339.24M341.487 341.554L344 339.24M344 339.24C344.01 339.239 344.02 339.238 344.029 339.238C344.635 339.201 345.172 339.169 345.685 339.27L344 339.24Z" stroke="#2D2E30" stroke-width="1.02941"/>
<path d="M203.614 31.1221L203.62 31.1217C203.666 31.1186 203.711 31.1155 203.756 31.1124C203.911 31.1017 204.06 31.0914 204.209 31.0847C239.663 29.4965 276.177 40.1163 305.856 59.3854C314.802 65.1932 323.285 72.0214 331.219 79.157C335.681 83.169 339.704 87.5057 343.708 91.9999C371.04 122.675 386.668 161.984 388.836 202.958C389.351 212.713 388.798 222.37 387.58 232.073C383.208 266.904 368.921 300.285 345.295 326.457C311.328 364.082 267.759 386.419 216.983 389.041C172.586 391.027 126.629 374.293 93.4612 344.751C86.1677 338.255 79.1819 331.319 72.9249 323.829C48.4677 294.551 33.692 257.613 31.5106 219.499C29.3609 181.94 39.6012 144.561 60.3026 113.17C65.9121 104.664 72.4221 96.5905 79.229 88.9981C102.047 63.5476 134.847 44.089 168.035 36.0208L167.914 35.5207L168.035 36.0208C179.762 33.17 191.565 31.7906 203.614 31.1221Z" stroke="#2D2E30" stroke-width="1.02941"/>
<path d="M368.184 136.162C370.612 141.341 373.595 147.901 375.112 153.63C374.413 152.888 373.681 152.184 372.912 151.498L372.912 151.498C355.193 135.678 333.16 127.19 309.373 128.415C303.738 122.297 298.048 116.395 291.735 110.934C291.418 93.0873 288.082 76.1294 278.891 60.5573C275.704 55.1582 272.011 50.102 268.324 45.0789C269.33 45.4218 270.348 45.8529 271.363 46.2828C271.963 46.5367 272.561 46.7901 273.156 47.0246C283.908 51.2671 294.245 56.4668 303.912 62.7965L304.194 62.3659L303.912 62.7965C331.529 80.8794 354.151 106.225 368.184 136.162Z" stroke="#2D2E30" stroke-width="1.02941"/>
<path d="M312.711 291.815C336.8 293.137 358.48 281.143 375.991 265.743C375.968 265.835 375.943 265.931 375.915 266.033C375.716 266.764 375.418 267.681 375.046 268.729C374.301 270.823 373.271 273.413 372.179 276.033C369.993 281.274 367.575 286.598 366.732 288.257C350.267 320.636 322.939 347.463 291.062 364.676C285.384 367.741 279.68 370.351 273.679 372.733C273.116 372.957 272.556 373.188 271.998 373.419C270.608 373.993 269.229 374.563 267.831 374.999C268.716 373.866 269.626 372.753 270.54 371.634C270.719 371.416 270.898 371.198 271.076 370.979C272.419 369.333 273.76 367.669 275.01 365.926L274.619 365.646L275.01 365.926C285.943 350.684 293.768 329.383 290.731 310.426C297.556 304.696 303.681 298.537 309.277 291.589C310.419 291.673 311.564 291.752 312.711 291.815Z" stroke="#2D2E30" stroke-width="1.02941"/>
<path d="M153.611 375.576C153.555 375.561 153.496 375.546 153.436 375.529C152.882 375.378 152.195 375.152 151.412 374.869C149.847 374.304 147.929 373.523 145.982 372.691C142.087 371.028 138.099 369.174 136.635 368.47C104.06 352.798 76.1373 327.55 58.2493 296.033C52.8235 286.473 48.4343 276.395 44.7368 266.041C45.2342 266.453 45.7257 266.892 46.2193 267.343C46.4134 267.521 46.6082 267.7 46.8038 267.881C47.539 268.559 48.2854 269.247 49.0485 269.868L49.0486 269.868C63.6314 281.742 81.5912 289.97 100.364 292.059L100.421 291.547L100.364 292.059C103.905 292.453 107.876 292.821 111.507 292.481C111.803 292.802 112.098 293.123 112.394 293.443C117.915 299.435 123.404 305.392 129.598 310.779C129.574 311.237 129.55 311.694 129.525 312.15C129.349 315.437 129.175 318.688 129.397 322.049C130.384 337.02 136.514 352.011 144.867 364.306C147.552 368.259 150.555 371.94 153.611 375.576Z" stroke="#2D2E30" stroke-width="1.02941"/>
<path d="M44.6421 154.149C46.0023 149.513 47.8639 144.694 49.884 140.374C70.906 95.4167 105.924 61.8576 152.65 44.7518C152.256 45.4312 151.753 46.1197 151.208 46.8121C150.917 47.1815 150.609 47.5583 150.303 47.9335C149.83 48.5114 149.361 49.0855 148.962 49.6235C147.097 52.143 145.31 54.7329 143.622 57.3752L144.055 57.6523L143.621 57.3752C132.785 74.3366 128.584 90.3742 129.428 110.343C123.148 115.678 117.614 121.197 112.262 127.451C87.0097 127.214 62.8993 136.77 44.6421 154.149Z" stroke="#2D2E30" stroke-width="1.02941"/>
<path d="M52.9068 153.575C69.4526 140.136 86.8401 133.434 108.027 132.471C107.808 132.813 107.502 133.231 107.168 133.664C106.841 134.09 106.494 134.522 106.19 134.901L106.165 134.931C105.861 135.311 105.59 135.648 105.441 135.857C103.08 139.145 100.861 142.568 98.79 146.043C90.3115 160.266 84.9949 175.814 82.4575 192.139C78.5662 217.166 83.1209 243.549 94.3026 266.192C98.0376 273.755 102.542 280.83 107.465 287.638C94.9169 287.202 83.2058 284.079 71.8421 278.683C60.4111 272.885 51.2812 265.552 41.8324 256.938C33.5917 227.48 32.5958 193.252 41.6149 163.868C43.5718 162.269 45.3996 160.508 47.2125 158.761L47.2232 158.751C49.0826 156.959 50.927 155.183 52.9068 153.575L52.5823 153.175L52.9068 153.575Z" stroke="#2D2E30" stroke-width="1.02941"/>
<path d="M261.611 376.824L262.125 376.812L261.611 376.824C261.614 376.969 261.619 377.058 261.623 377.117C261.624 377.138 261.625 377.151 261.625 377.16C261.623 377.167 261.621 377.178 261.618 377.193L261.613 377.213C261.611 377.22 261.61 377.228 261.608 377.237C260.092 378.01 257.957 378.681 255.725 379.272C254.305 379.649 252.882 379.985 251.571 380.294C250.72 380.495 249.915 380.685 249.19 380.868C220.863 387.998 190.257 386.522 162.271 378.472C162.249 378.465 162.223 378.458 162.196 378.45C161.898 378.365 161.345 378.206 160.82 378.023C160.532 377.923 160.264 377.819 160.058 377.721C159.954 377.672 159.876 377.629 159.821 377.593C159.796 377.576 159.781 377.565 159.774 377.559C159.745 377.51 159.711 377.415 159.689 377.237C159.667 377.068 159.662 376.88 159.655 376.654C159.654 376.62 159.653 376.586 159.651 376.55C159.636 376.058 159.611 375.361 159.248 374.815L159.248 374.814C158.407 373.545 157.397 372.332 156.377 371.153C156.136 370.875 155.895 370.599 155.655 370.324C154.872 369.427 154.103 368.546 153.398 367.652C149.78 363.059 146.573 358.12 143.749 352.996C136.873 339.812 134.038 329.549 134.346 314.733C150.787 326.981 166.595 333.434 186.968 336.691C193.818 337.786 200.827 338.771 207.801 338.982C227.564 339.58 249.567 334.737 267.24 325.872C273.966 322.499 280.105 318.514 286.17 314.137C286.249 314.458 286.307 314.86 286.344 315.327C286.398 316.013 286.404 316.799 286.384 317.606C286.36 318.618 286.299 319.609 286.246 320.469C286.212 321.005 286.182 321.491 286.166 321.899C285.794 331.464 283.03 340.997 278.893 349.629L279.337 349.842L278.893 349.629C276.24 355.166 272.994 360.545 269.248 365.405C268.492 366.385 267.692 367.344 266.883 368.315C266.531 368.736 266.178 369.16 265.826 369.588C264.669 370.995 263.533 372.443 262.565 373.982C262.065 374.776 261.585 375.734 261.611 376.824ZM159.783 377.572L159.783 377.572L159.783 377.572Z" stroke="#2D2E30" stroke-width="1.02941"/>
<path d="M313.376 286.983C314.286 285.552 315.232 284.144 316.182 282.73C316.325 282.517 316.468 282.304 316.611 282.091C317.873 280.211 319.132 278.314 320.3 276.35C328.835 261.99 334.751 246.447 337.568 229.963C342.372 201.856 336.722 173.638 322.944 148.825L322.527 149.057L322.944 148.825C319.932 143.401 316.463 138.237 312.906 133.183C321.322 133.044 329.683 134.077 337.676 136.741C351.033 141.191 362.155 148.33 372.578 157.76L372.578 157.76C372.949 158.096 373.342 158.436 373.744 158.786C374.44 159.39 375.167 160.02 375.865 160.697C376.96 161.756 377.907 162.855 378.432 163.982C379.07 165.354 379.537 167.103 379.935 168.927C380.125 169.799 380.298 170.679 380.466 171.536L380.488 171.645C380.662 172.533 380.832 173.397 381.011 174.187C385.828 195.456 386.131 217.14 382.794 238.664C381.863 244.667 380.773 250.985 378.638 256.63C376.912 257.999 375.259 259.472 373.625 260.948C373.384 261.166 373.144 261.384 372.903 261.602C371.476 262.895 370.058 264.18 368.6 265.403L368.906 265.768L368.6 265.403C362.798 270.27 356.543 274.434 349.918 278.109C338.37 284.389 326.463 287.17 313.376 286.983Z" stroke="#2D2E30" stroke-width="1.02941"/>
<path d="M204.056 34.9906L204.056 34.9908L204.068 34.9898C206.177 34.8225 208.349 34.8518 210.512 34.881C211.077 34.8887 211.641 34.8963 212.203 34.9004L212.206 34.3857L212.203 34.9004C228.398 35.018 244.368 37.8963 259.909 42.3943C261.46 44.7448 263.197 46.9824 264.939 49.1965C265.106 49.4087 265.273 49.6207 265.44 49.8325C267.058 51.8861 268.665 53.9268 270.139 56.0471C281.73 72.7167 285.583 87.0478 286.559 106.946C283.159 103.964 279.043 101.484 275.249 99.2428C257.828 88.9486 238.121 82.4877 217.82 81.4501C193.641 79.8291 169.412 85.8161 148.289 97.4573L148.538 97.908L148.289 97.4573C143.452 100.123 138.581 103.036 134.209 106.496C133.986 88.4867 139.294 72.2997 149.463 57.3759C152.434 53.0163 155.708 48.8765 158.992 44.7233C159.644 43.8987 160.297 43.0737 160.947 42.2462C174.583 37.3511 189.61 35.7854 204.056 34.9906Z" stroke="#2D2E30" stroke-width="1.02941"/>
<path d="M203.281 86.3188L203.29 86.3184L203.299 86.3176C203.543 86.2966 203.778 86.2771 204.012 86.2652C236.671 84.6492 268.61 96.2411 292.698 118.368C316.595 140.318 332.954 171.946 334.309 204.622C335.666 237.336 322.977 270.283 300.853 294.333C288.635 307.614 273.121 318.786 256.287 325.382C252.612 326.822 248.815 327.908 244.994 329C244.68 329.09 244.365 329.18 244.051 329.27C234.982 331.869 226.202 333.573 216.774 333.961L216.759 333.962L216.743 333.963C216.311 334.008 215.884 334.045 215.457 334.066C207.836 334.456 200.392 333.602 192.804 332.551C167.855 329.097 148.389 321.304 129.551 304.342C103.812 281.165 87.8303 250.111 86.0685 215.356C84.4244 182.92 97.1961 151.12 118.83 127.216C140.344 103.445 171.115 87.9507 203.281 86.3188Z" stroke="#2D2E30" stroke-width="1.02941"/>
<path d="M207.163 94.4468L207.166 94.4466C235.512 93.2656 263.966 104.015 285.243 122.618C308.052 142.562 323.924 171.856 325.935 202.291C327.947 232.743 316.979 264.104 296.872 287.023C293.502 290.864 289.689 294.437 285.804 297.783L286.105 298.133L285.804 297.783C274.544 307.482 264.712 312.69 250.79 317.83C238.569 322.342 226.324 325.082 213.327 325.926C205.975 326.08 199.064 324.961 191.789 323.728C167.931 319.687 150.161 312.395 132.253 295.805C109.428 274.659 95.3177 244.599 94.2032 213.46L93.6889 213.478L94.2032 213.46C93.1341 183.596 105.229 153.715 125.496 131.961C146.97 108.913 175.668 95.5566 207.163 94.4468Z" stroke="#2D2E30" stroke-width="1.02941"/>
<path d="M143.341 299.981C147.355 295.819 151.88 292.617 156.93 289.776C156.972 289.937 157.014 290.143 157.056 290.392C157.15 290.956 157.234 291.706 157.309 292.591C157.458 294.36 157.566 296.63 157.645 298.955C157.773 302.744 157.824 306.654 157.851 308.735C157.852 308.855 157.854 308.969 157.855 309.077C155.24 307.992 152.818 306.457 150.378 304.91C150.122 304.747 149.865 304.585 149.608 304.422C147.446 303.011 145.306 301.601 143.341 299.981Z" stroke="#2D2E30" stroke-width="1.02941"/>
<path d="M262.945 292.395C263.036 291.687 263.127 290.98 263.215 290.274C264.239 290.87 265.236 291.518 266.242 292.173C266.972 292.647 267.707 293.125 268.46 293.588C271.602 295.521 274.81 297.292 278.158 298.846C276.197 300.522 274.105 302.047 271.951 303.491C268.795 305.476 265.599 307.294 262.279 308.972C261.513 303.508 262.23 297.939 262.945 292.395Z" stroke="#2D2E30" stroke-width="1.02941"/>
<path d="M213.989 322.016L213.985 322.017C207.202 322.613 198.942 321.163 191.772 319.904C191.014 319.771 190.267 319.64 189.536 319.514C189.703 314.818 190.582 311.138 193.476 307.326C197.078 302.582 202.208 300.148 208.072 299.38C213.108 298.914 218.182 300.409 222.356 303.255L222.628 302.856L222.356 303.255C227.821 306.981 231.331 312.889 232.633 319.346C226.66 320.945 220.182 321.521 213.989 322.016Z" stroke="#2D2E30" stroke-width="1.02941"/>
<path d="M204.663 98.3345L204.663 98.3347L204.677 98.3336C213.978 97.584 224.304 98.585 233.444 100.593C232.799 103.775 231.746 106.775 230.163 109.614C226.786 115.666 221.565 119.591 214.939 121.497C209.507 122.648 204.147 121.913 199.383 119.057L199.383 119.057C192.426 114.887 189.17 108.232 187.178 100.579C193.001 99.5973 198.795 98.6465 204.663 98.3345Z" stroke="#2D2E30" stroke-width="1.02941"/>
<path d="M319.652 187.319L319.653 187.319C319.675 187.32 319.696 187.322 319.715 187.323C319.837 187.511 319.963 187.832 320.085 188.275C320.207 188.717 320.313 189.238 320.406 189.78C320.5 190.321 320.579 190.875 320.651 191.384C320.661 191.453 320.67 191.521 320.68 191.589C320.739 192.014 320.794 192.405 320.846 192.71L320.846 192.71C323.077 205.838 322.646 218.98 319.86 231.98C314.634 231.383 310.564 230.224 306.21 227.217C301.892 223.977 298.917 219.45 297.822 214.151L297.822 214.151C296.657 208.512 297.858 202.661 301.03 197.862L301.03 197.862C305.349 191.326 311.73 188.857 319.235 187.329C319.295 187.319 319.343 187.311 319.376 187.305C319.388 187.303 319.398 187.301 319.406 187.299C319.413 187.298 319.418 187.297 319.423 187.297C319.428 187.297 319.437 187.298 319.451 187.299C319.46 187.3 319.472 187.301 319.485 187.303C319.525 187.307 319.581 187.312 319.652 187.319Z" stroke="#2D2E30" stroke-width="1.02941"/>
<path d="M100.464 232.545C96.9723 217.825 97.6282 202.538 100.376 187.732C106.957 188.757 112.499 190.645 117.083 195.639C121.094 200.01 123.247 205.812 122.934 211.739C122.608 217.913 119.754 222.805 115.209 226.926C110.723 230.552 106.094 231.675 100.464 232.545Z" stroke="#2D2E30" stroke-width="1.02941"/>
<path d="M255.36 257.719L255.36 257.719C247.934 252.354 241.649 246.23 235.271 239.788C234.116 240.677 232.949 241.514 231.721 242.31C231.871 243.501 232.017 244.693 232.163 245.885C232.801 251.099 233.439 256.315 234.44 261.436L234.004 261.521L234.44 261.436C237.426 276.726 242.942 291.275 250.348 304.963C250.591 305.412 250.832 305.862 251.073 306.311C252.184 308.379 253.293 310.443 254.523 312.412C254.531 312.409 254.538 312.406 254.546 312.403C255.597 311.972 256.632 311.548 257.642 311.069C257.49 308.476 257.356 302.947 257.594 297.589C257.718 294.783 257.945 292.01 258.329 289.724C258.521 288.581 258.754 287.548 259.037 286.689C259.317 285.839 259.66 285.113 260.098 284.622L260.482 284.964L260.098 284.622C260.284 284.412 260.454 284.279 260.655 284.177C260.77 284.119 260.912 284.066 261.04 284.018C261.091 283.999 261.139 283.981 261.184 283.963L261.314 283.912L261.452 283.934C261.778 283.984 262.221 284.163 262.707 284.394C263.211 284.633 263.816 284.956 264.488 285.335C265.831 286.094 267.462 287.092 269.114 288.129C270.782 289.178 272.464 290.262 273.901 291.188C274.379 291.496 274.83 291.786 275.244 292.052C267.403 280.118 256.394 268.249 245.046 259.723C247.593 270.763 250.804 281.442 254.774 292.074C254.925 292.481 255.117 292.936 255.324 293.429L255.326 293.433C255.532 293.921 255.751 294.442 255.952 294.967C256.35 296.008 256.702 297.128 256.715 298.107L256.717 298.239L256.656 298.355L256.502 298.645L256.501 298.648C256.464 298.717 256.426 298.79 256.386 298.866C256.222 299.18 256.032 299.544 255.8 299.856C255.497 300.262 255.088 300.636 254.486 300.802C253.968 300.945 253.527 300.787 253.167 300.541M255.36 257.719L244.409 259.248C246.982 270.52 250.243 281.411 254.291 292.254C254.448 292.673 254.644 293.139 254.851 293.63C255.47 295.1 256.183 296.792 256.201 298.114L256.047 298.404C256.005 298.484 255.962 298.565 255.92 298.646C255.552 299.348 255.169 300.08 254.349 300.306C254.023 300.396 253.738 300.307 253.457 300.116C252.364 299.37 251.077 295.156 250.292 292.585C250.102 291.963 249.941 291.437 249.82 291.079C246.469 281.212 243.329 271.604 241.046 261.423C240.905 260.794 240.744 260.146 240.58 259.488C240.119 257.64 239.638 255.713 239.541 253.913C239.509 253.336 239.495 252.802 239.841 252.314C240.319 252.064 240.708 251.96 241.231 252.135M255.36 257.719C259.3 260.566 263.385 263.251 267.456 265.927C270.001 267.599 272.54 269.268 275.036 270.971C281.418 275.326 287.565 279.934 292.966 285.489M255.36 257.719L292.966 285.489M253.167 300.541L253.456 300.117L253.167 300.541C253.167 300.541 253.167 300.541 253.167 300.541ZM253.167 300.541C252.917 300.37 252.699 300.107 252.509 299.823C252.314 299.531 252.123 299.179 251.939 298.792C251.571 298.019 251.21 297.07 250.876 296.106C250.543 295.14 250.232 294.147 249.968 293.286C249.909 293.092 249.852 292.906 249.798 292.729C249.608 292.109 249.451 291.594 249.333 291.245L249.333 291.245C245.981 281.376 242.834 271.746 240.544 261.536L240.544 261.536C240.409 260.934 240.252 260.304 240.091 259.656C239.626 257.795 239.127 255.794 239.027 253.941L239.027 253.941C238.996 253.378 238.959 252.668 239.421 252.016L239.492 251.915L239.602 251.857C239.863 251.721 240.137 251.605 240.438 251.557C240.749 251.507 241.061 251.535 241.394 251.646M241.394 251.646C241.394 251.646 241.394 251.646 241.394 251.646L241.231 252.135M241.394 251.646L241.231 252.135M241.394 251.646C243.055 252.198 244.708 253.257 246.244 254.421C247.345 255.254 248.413 256.163 249.393 256.997C249.78 257.326 250.153 257.644 250.51 257.941C260.593 266.342 268.188 274.299 276.081 284.792L276.101 284.819C278.538 288.058 281.135 291.51 283.104 295.139M241.231 252.135C243.943 253.035 246.705 255.386 249.048 257.379C249.438 257.711 249.816 258.033 250.18 258.336C260.234 266.712 267.8 274.64 275.67 285.101L275.677 285.111C278.144 288.391 280.748 291.851 282.705 295.482C282.838 295.368 282.971 295.254 283.104 295.139M283.104 295.139C286.61 292.116 289.919 288.962 292.966 285.489M283.104 295.139C283.188 295.294 283.271 295.449 283.353 295.604C287.023 292.445 290.487 289.138 293.664 285.471C286.023 277.514 276.876 271.502 267.722 265.485C263.66 262.815 259.596 260.144 255.661 257.302L292.966 285.489" stroke="#2D2E30" stroke-width="1.02941"/>
<path d="M189.399 242.497C189.259 245.119 188.762 247.794 188.274 250.42C188.123 251.236 187.973 252.046 187.834 252.849C184.84 270.19 180.391 284.067 173.378 300.183C173.269 300.433 173.16 300.683 173.052 300.932C171.152 305.301 169.26 309.653 166.974 313.841M189.399 242.497C189.066 242.224 188.699 241.897 188.312 241.552C187.231 240.588 185.996 239.487 184.908 239.047M189.399 242.497L189.073 242.895C189.006 242.841 188.939 242.785 188.87 242.726M189.399 242.497L188.885 242.47C188.88 242.555 188.875 242.641 188.87 242.726M184.908 239.047C177.548 247.774 168.125 254.948 158.554 261.084C156.222 262.579 153.675 264.083 151.045 265.635C142.004 270.972 131.995 276.881 126.471 284.953M184.908 239.047L185.302 239.379C185.217 239.479 185.133 239.579 185.048 239.678M184.908 239.047L184.715 239.524C184.823 239.568 184.934 239.62 185.048 239.678M126.471 284.953C129.482 288.309 132.633 291.508 135.988 294.519C136.088 294.377 136.188 294.236 136.287 294.095M126.471 284.953L126.854 284.609C126.944 284.71 127.035 284.811 127.126 284.912M126.471 284.953L126.895 285.243C126.971 285.132 127.048 285.022 127.126 284.912M136.287 294.095C136.415 294.21 136.544 294.325 136.673 294.44C147.985 278.391 157.037 268.403 173.005 256.544C173.302 256.323 173.698 256.013 174.153 255.656C175.957 254.241 178.702 252.088 180.012 251.836M136.287 294.095C133.065 291.201 130.03 288.131 127.126 284.912M136.287 294.095C147.608 278.038 156.695 268.016 172.698 256.13L172.698 256.13C172.99 255.914 173.378 255.61 173.832 255.253C173.943 255.166 174.057 255.077 174.175 254.985C174.773 254.516 175.454 253.987 176.142 253.482C176.829 252.978 177.53 252.492 178.168 252.109C178.791 251.736 179.408 251.428 179.914 251.33M180.012 251.836C180.235 251.792 180.392 251.807 180.59 251.825C180.624 251.828 180.659 251.831 180.696 251.834C181.135 252.255 181.244 252.456 181.28 253.075C181.349 254.281 180.825 255.85 180.354 257.261C180.164 257.832 179.982 258.377 179.851 258.861C178.165 265.115 176.291 271.3 174.417 277.486C173.17 281.603 171.922 285.72 170.73 289.858C170.114 291.995 169.512 294.141 168.98 296.3M180.012 251.836L179.914 251.33M180.012 251.836L179.915 251.33C179.915 251.33 179.915 251.33 179.914 251.33M168.98 296.3C168.887 296.678 168.819 297.071 168.752 297.465C168.656 298.026 168.559 298.59 168.387 299.113C168.265 299.483 168.119 299.758 167.822 300.019M168.98 296.3L169.479 296.423M168.98 296.3L169.479 296.423C169.479 296.423 169.479 296.423 169.479 296.423M167.822 300.019C167.605 300.209 167.429 300.191 167.199 300.169C167.133 300.162 167.063 300.155 166.986 300.153C166.198 299.7 165.487 299.143 165.228 298.226C164.776 296.627 165.52 294.123 166.105 292.155C166.254 291.656 166.392 291.192 166.498 290.785C167.639 286.672 168.956 282.578 170.275 278.481C172.236 272.388 174.2 266.286 175.591 260.093C175.378 260.254 175.166 260.415 174.953 260.577M167.822 300.019L168.161 300.406C168.548 300.066 168.735 299.702 168.876 299.273C169.035 298.79 169.132 298.284 169.215 297.805C169.231 297.717 169.246 297.631 169.26 297.545C169.328 297.152 169.391 296.781 169.479 296.423M167.822 300.019L166.735 313.202M174.953 260.577C175.013 260.317 175.072 260.056 175.13 259.796C163.762 268.402 153.215 277.765 144.741 289.326C143.003 291.697 141.289 294.129 139.867 296.71C140.318 296.269 140.77 295.828 141.227 295.39M174.953 260.577C163.791 269.066 153.468 278.291 145.156 289.631C143.78 291.508 142.427 293.412 141.227 295.39M174.953 260.577L141.227 295.39M141.227 295.39C140.9 295.929 140.584 296.474 140.282 297.025C141.7 295.635 143.124 294.265 144.654 292.982C147.056 290.966 155.533 284.503 158.626 284.447C159.255 284.436 159.715 284.637 160.167 285.077M160.167 285.077C161.626 286.492 161.847 298.282 161.99 305.922C162.042 308.693 162.083 310.919 162.17 311.904M160.167 285.077L160.526 284.707C160.725 284.901 160.873 285.174 160.99 285.461C161.111 285.756 161.217 286.113 161.311 286.513C161.501 287.314 161.656 288.339 161.784 289.505C162.042 291.841 162.2 294.803 162.306 297.808C162.405 300.619 162.459 303.478 162.504 305.911C162.507 306.08 162.511 306.248 162.514 306.413C162.557 308.704 162.595 310.547 162.66 311.552M160.167 285.077L166.735 313.202M162.17 311.904L162.214 311.923C163.793 312.585 165.368 313.247 166.974 313.841M162.17 311.904L162.683 311.859C162.675 311.768 162.667 311.665 162.66 311.552M162.17 311.904L162.369 311.43L162.409 311.446C162.492 311.481 162.576 311.516 162.66 311.552M166.974 313.841L167.153 313.358C167.013 313.306 166.874 313.254 166.735 313.202M166.974 313.841L166.522 313.594C166.594 313.463 166.665 313.333 166.735 313.202M166.735 313.202C165.367 312.685 164.018 312.122 162.66 311.552M166.735 313.202C168.915 309.155 170.74 304.958 172.583 300.721C172.69 300.473 172.798 300.226 172.906 299.978L173.334 300.164L172.906 299.978C179.906 283.893 184.34 270.056 187.327 252.761C187.468 251.944 187.62 251.124 187.773 250.303C188.243 247.77 188.714 245.228 188.87 242.726M188.87 242.726C188.602 242.5 188.318 242.247 188.029 241.989L187.97 241.937C187.622 241.627 187.264 241.308 186.901 241.001C186.252 240.453 185.62 239.976 185.048 239.678M185.048 239.678C177.678 248.326 168.314 255.439 158.832 261.518C156.492 263.018 153.935 264.527 151.307 266.078C151.019 266.248 150.73 266.419 150.44 266.59C147.505 268.325 144.496 270.119 141.589 272.029C135.895 275.771 130.636 279.933 127.126 284.912M179.914 251.33C180.214 251.272 180.446 251.294 180.645 251.313C180.677 251.316 180.708 251.318 180.738 251.321L180.92 251.336L181.052 251.463C181.278 251.68 181.474 251.889 181.603 252.157C181.734 252.43 181.775 252.716 181.794 253.046L181.794 253.046C181.848 253.992 181.578 255.095 181.264 256.122C181.122 256.589 180.974 257.031 180.833 257.451C180.649 258.003 180.477 258.516 180.348 258.995C178.661 265.253 176.782 271.455 174.905 277.65C173.658 281.766 172.412 285.878 171.225 290.001L171.225 290.001C170.609 292.136 170.01 294.274 169.479 296.423" stroke="#2D2E30" stroke-width="1.02941"/>
<path d="M176.324 241.962L176.324 241.962C172.032 246.079 167.341 249.898 162.475 253.322C158.728 255.958 154.89 258.499 150.936 260.797C149.884 261.408 148.81 261.983 147.726 262.563C147.524 262.671 147.323 262.779 147.121 262.887C145.836 263.576 144.545 264.281 143.298 265.059C136.252 269.451 129.821 274.802 124.26 280.965L124.257 280.967C124.171 281.064 124.079 281.148 123.973 281.24C123.855 281.152 123.703 281.023 123.517 280.84C123.181 280.512 122.782 280.066 122.34 279.529C121.457 278.456 120.424 277.055 119.405 275.596C117.539 272.927 115.741 270.104 114.999 268.805C117.619 266.115 120.325 263.521 123.038 260.922C124.865 259.17 126.696 257.416 128.505 255.627L128.163 255.281L128.505 255.627C132.476 251.701 136.459 247.781 140.443 243.859C150.835 233.631 161.237 223.393 171.463 213.013C171.616 213.578 171.696 214.252 171.757 214.99C171.774 215.192 171.789 215.399 171.805 215.609C171.868 216.466 171.935 217.363 172.114 218.113C173.835 225.295 177.224 230.859 181.754 236.432C180.862 237.268 180.014 238.152 179.18 239.032C179.078 239.139 178.977 239.246 178.876 239.353C178.031 240.244 177.196 241.126 176.324 241.962Z" stroke="#2D2E30" stroke-width="1.02941"/>
<path d="M238.84 236.427C244.956 229.169 247.453 222.408 248.932 213.27C249.54 213.72 250.141 214.265 250.737 214.85C251.126 215.23 251.508 215.623 251.887 216.012L251.929 216.055C252.319 216.456 252.708 216.855 253.09 217.225C253.091 217.225 253.091 217.226 253.092 217.226L263.325 227.266L263.326 227.267L290.232 253.76C290.232 253.76 290.232 253.761 290.233 253.761C291.247 254.77 292.263 255.777 293.279 256.783C297.341 260.808 301.398 264.827 305.291 268.998C302.942 273.265 299.596 278.339 296.239 281.779C295.314 281.003 294.416 280.185 293.514 279.355C293.402 279.252 293.29 279.148 293.177 279.045C292.335 278.269 291.485 277.486 290.613 276.733C287.501 274.045 284.222 271.521 280.894 269.122C277.941 266.992 274.856 264.992 271.784 263.001C269.743 261.678 267.708 260.359 265.722 259.008C255.927 252.347 246.878 245.093 238.84 236.427Z" stroke="#2D2E30" stroke-width="1.02941"/>
<path d="M187.603 178.357L187.594 178.363L187.585 178.369C186.784 178.913 185.997 179.488 185.22 180.057C185.072 180.165 184.923 180.274 184.775 180.382L144.894 140.522C144.894 140.522 144.893 140.521 144.893 140.521C143.357 138.966 141.809 137.438 140.264 135.914C138.029 133.708 135.799 131.508 133.619 129.237C139.245 123.961 145.232 119.502 151.665 115.217C151.789 115.312 151.951 115.446 152.151 115.618C152.575 115.982 153.148 116.502 153.855 117.159C155.266 118.473 157.192 120.322 159.469 122.541C164.021 126.978 169.97 132.882 175.999 138.911C188.061 150.969 200.439 163.514 202.623 165.793C203.026 166.214 203.441 166.633 203.857 167.055C205.184 168.399 206.531 169.764 207.581 171.226C200.084 172.1 194.082 174.344 187.603 178.357Z" stroke="#2D2E30" stroke-width="1.02941"/>
<path d="M249.04 206.625C247.531 197.47 244.819 191.225 238.853 183.994C240.229 182.878 241.515 181.543 242.756 180.256C243.324 179.667 243.882 179.088 244.434 178.544L244.437 178.542L257.815 165.195L257.816 165.195L279.237 143.765L279.237 143.765C280.371 142.628 281.52 141.497 282.672 140.363C285.163 137.911 287.667 135.447 290.05 132.89C292.164 134.51 295.021 137.778 297.751 141.313C300.505 144.878 303.082 148.652 304.566 151.136C299.297 156.913 293.691 162.403 288.082 167.895C285.564 170.36 283.046 172.826 280.558 175.318C277.643 178.238 274.747 181.181 271.851 184.124C264.979 191.107 258.106 198.09 250.978 204.768L250.974 204.772L249.04 206.625Z" stroke="#2D2E30" stroke-width="1.02941"/>
<path d="M233.667 179.29C227.304 174.549 220.242 172.106 212.53 171.043C215.861 167.01 220.042 162.989 224.063 159.123C225.544 157.699 227.004 156.296 228.391 154.92L228.393 154.918L255.123 128.11L255.125 128.108C256.442 126.772 257.785 125.442 259.132 124.107C262.22 121.048 265.332 117.965 268.221 114.737C270.578 115.878 274.195 118.557 277.774 121.492C281.291 124.376 284.717 127.462 286.773 129.46L235.426 180.63L233.672 179.293L233.667 179.29Z" stroke="#2D2E30" stroke-width="1.02941"/>
<path d="M181.253 184.054C175.231 190.649 172.787 198.594 171.368 207.081L169.595 205.31L169.59 205.305C158.534 194.58 147.66 183.666 136.783 172.749C129.672 165.612 122.559 158.474 115.394 151.386C119.526 144.573 124.638 138.575 130.072 132.724C131.452 133.903 132.758 135.224 134.064 136.546C134.493 136.981 134.922 137.415 135.354 137.844C135.354 137.845 135.354 137.845 135.355 137.845L146.176 148.732L146.176 148.732L181.253 184.054Z" stroke="#2D2E30" stroke-width="1.02941"/>
<path d="M192.363 301.35C187.415 306.029 185.196 312.053 184.883 318.657C180.276 317.616 175.772 316.309 171.316 314.743C171.862 313.423 172.506 312.134 173.157 310.833C173.569 310.009 173.984 309.179 174.378 308.333L174.378 308.333C176.549 303.669 178.665 298.9 180.558 294.108L180.114 293.932L180.558 294.108C184.265 284.721 187.798 275.01 190.035 265.117L190.035 265.117C190.954 261.049 191.63 256.91 192.304 252.788C192.717 250.261 193.128 247.741 193.594 245.248L194.448 245.603L194.449 245.604C205.782 250.282 216.147 249.642 227.247 245.154C227.572 247.33 227.845 249.528 228.12 251.733C228.582 255.448 229.047 259.184 229.762 262.868L230.267 262.77L229.762 262.868C232.402 276.477 237.308 290.112 243.534 302.469C245.14 305.655 246.922 308.768 248.691 311.86C249.103 312.578 249.513 313.296 249.921 314.012C248.424 314.497 246.952 315.002 245.487 315.505C242.817 316.422 240.169 317.331 237.432 318.092C235.594 311.002 232.453 305.021 226.62 300.314L226.614 300.309L226.607 300.304C221.884 296.722 216.81 294.709 210.819 294.523C204.124 294.315 197.261 296.717 192.363 301.35Z" stroke="#2D2E30" stroke-width="1.02941"/>
<path d="M236.422 139.993L236.422 139.993L210.203 166.287C205.464 161.723 200.844 157.033 196.222 152.339C194.546 150.638 192.87 148.936 191.188 147.24L191.185 147.237L169.953 126.15L169.951 126.149C168.511 124.73 167.077 123.282 165.639 121.828C162.553 118.71 159.443 115.568 156.193 112.646C163.41 107.89 173.988 103.915 182.377 101.781C182.393 101.816 182.41 101.853 182.428 101.894C182.534 102.135 182.663 102.458 182.808 102.845C183.098 103.617 183.444 104.615 183.803 105.653C183.838 105.753 183.873 105.854 183.908 105.956C184.232 106.894 184.562 107.849 184.861 108.673C185.188 109.575 185.491 110.356 185.716 110.789C189.303 117.66 195.176 123.338 202.737 125.64C209.362 127.656 216.537 126.897 222.61 123.581C231.414 118.772 235.3 110.907 238.014 101.867C247.018 103.765 255.786 107.773 263.793 112.337C262.083 114.02 260.415 115.772 258.753 117.516C257.445 118.888 256.142 120.256 254.826 121.584C254.826 121.584 254.825 121.584 254.825 121.584L236.422 139.993Z" stroke="#2D2E30" stroke-width="1.02941"/>
<path d="M302.045 189.573L302.045 189.573C296.699 194.114 293.178 200.69 292.677 207.733L293.19 207.769L292.677 207.733C292.172 214.821 294.435 221.916 299.115 227.304C304.276 233.246 311.223 235.938 318.798 236.617C316.193 246.417 312.873 255.583 308.025 264.467C305.058 261.731 302.192 258.904 299.333 256.041L299.33 256.039L252.656 209.918C256.148 206.277 259.761 202.748 263.378 199.216C265.308 197.331 267.24 195.444 269.155 193.539L269.157 193.537L291.943 170.604C291.944 170.604 291.944 170.603 291.944 170.603C293.315 169.232 294.698 167.869 296.082 166.505C299.795 162.845 303.516 159.177 307.046 155.317C308.042 156.503 309.099 158.234 310.162 160.306C311.354 162.629 312.537 165.345 313.636 168.128C315.718 173.4 317.491 178.887 318.451 182.348C312.634 183.187 306.517 185.774 302.045 189.573Z" stroke="#2D2E30" stroke-width="1.02941"/>
<path d="M138.199 181.012C147.959 190.784 157.728 200.565 167.748 210.072L121.62 255.783L121.62 255.784C118.63 258.753 115.591 261.667 112.517 264.551C107.358 256.296 104.248 246.638 101.533 237.275C106.913 236.33 112.247 235.001 116.803 231.584C122.471 227.334 126.622 220.856 127.562 213.761C128.462 206.969 126.362 199.831 122.207 194.437C117.146 187.867 109.701 184.238 101.691 183.081C103.839 173.436 107.962 164.376 112.703 155.703C116.866 159.308 120.744 163.315 124.618 167.32C126.376 169.136 128.133 170.953 129.916 172.73L130.28 172.366L129.916 172.73C132.68 175.486 135.439 178.248 138.199 181.012Z" stroke="#2D2E30" stroke-width="1.02941"/>
<path d="M206.941 176.198L206.952 176.197L206.963 176.195C206.997 176.19 207.021 176.185 207.04 176.182C207.068 176.177 207.087 176.174 207.114 176.171L207.115 176.171C215.438 175.148 224.462 178.418 230.991 183.537C238.281 189.253 242.868 197.553 243.929 206.753C244.92 215.342 242.22 224.562 236.8 231.297C230.898 238.631 222.81 242.927 213.474 243.899L213.467 243.9L213.46 243.901L213.152 243.942C213.152 243.942 213.151 243.942 213.15 243.942C205.05 244.945 196.237 242.096 189.84 237.113L189.529 237.512L189.84 237.113C182.614 231.485 177.693 223.191 176.616 214.077C175.543 204.991 177.938 196.19 183.621 189.021C189.417 181.711 197.705 177.268 206.941 176.198Z" stroke="#2D2E30" stroke-width="1.02941"/>
<path d="M224.997 188.569L225.292 188.147L224.997 188.569C230.612 192.494 234.812 199.111 235.942 205.866C237.073 212.628 235.354 219.727 231.347 225.273C226.695 231.709 220.717 234.774 212.944 236.017C205.816 236.395 199.318 234.826 193.666 230.36C188.383 226.186 185.121 220.166 184.344 213.484C183.49 206.131 185.518 198.92 190.172 193.171L190.172 193.171C194.641 187.651 200.907 184.902 207.924 184.134C213.815 183.515 220.149 185.18 224.997 188.569Z" stroke="#2D2E30" stroke-width="1.02941"/>
<path d="M227.904 223.489L228.308 223.791L227.904 223.489C223.976 228.734 218.523 231.241 212.096 232.157C206.399 232.324 200.859 230.962 196.359 227.428L196.359 227.428C191.77 223.824 188.845 218.494 188.178 212.694L187.667 212.753L188.178 212.694C187.483 206.654 189.006 200.884 192.793 196.13L192.793 196.13C196.775 191.13 202.393 188.531 208.693 187.788C213.504 187.344 219.104 189.334 223.001 192.177L223.286 191.786L223.001 192.177C227.735 195.629 231.214 201.157 232.057 206.959C232.9 212.759 231.414 218.801 227.904 223.489Z" stroke="#2D2E30" stroke-width="1.02941"/>
<path d="M218.6 197.481L218.6 197.481C222.004 199.741 224.291 203.244 225.077 207.254C225.873 211.315 225.078 215.198 222.734 218.603C220.131 222.383 216.817 224.254 212.328 225.072C208.291 225.413 204.518 224.779 201.185 222.482L201.185 222.482C197.903 220.22 195.767 216.704 195.078 212.774L195.078 212.774C194.357 208.658 195.441 204.647 197.881 201.247L197.881 201.247C200.458 197.656 203.916 195.802 208.256 195.06C211.825 194.609 215.607 195.494 218.6 197.481ZM194.585 212.861L194.571 212.863L194.585 212.861Z" stroke="#2D2E30" stroke-width="1.02941"/>
<path d="M221.034 206.906L221.034 206.906C220.113 203.984 217.866 201.33 215.126 199.955C213.033 198.904 210.876 198.752 208.505 198.913C205.151 199.694 202.366 201.291 200.513 204.194L221.034 206.906ZM221.034 206.906C221.933 209.757 221.6 213.008 220.132 215.61M221.034 206.906L220.132 215.61M220.132 215.61C218.423 218.637 215.74 220.334 212.389 221.235C209.556 221.625 206.596 221.159 204.162 219.685L203.895 220.125L204.162 219.685C201.623 218.148 199.824 215.601 199.115 212.715C198.403 209.817 198.909 206.709 200.513 204.194L220.132 215.61Z" stroke="#2D2E30" stroke-width="1.02941"/>
<defs>
<filter id="filter0_f_2756_2840" x="26" y="102" width="368" height="372" filterUnits="userSpaceOnUse" color-interpolation-filters="sRGB">
<feFlood flood-opacity="0" result="BackgroundImageFix"/>
<feBlend mode="normal" in="SourceGraphic" in2="BackgroundImageFix" result="shape"/>
<feGaussianBlur stdDeviation="20" result="effect1_foregroundBlur_2756_2840"/>
</filter>
</defs>
</svg>
