<svg width="1920" height="299" viewBox="0 0 1920 299" fill="none" xmlns="http://www.w3.org/2000/svg">
<g clip-path="url(#clip0_2903_3397)">
<rect width="1920" height="299" fill="#151762"/>
<path fill-rule="evenodd" clip-rule="evenodd" d="M1439.65 135.672C1477.67 91.8717 1551.13 127.189 1608.82 120.984C1648.47 116.718 1684.93 99.5187 1724.44 105.038C1769.06 111.273 1811.02 126.829 1846.8 154.232C1892.14 188.965 1946.78 225.138 1955 281.641C1963.35 339.106 1927.62 395.334 1888.02 437.78C1852.06 476.322 1797.47 484.228 1748.28 503.197C1697.86 522.639 1651.08 554.113 1597.19 549.928C1535.86 545.164 1462.35 532.05 1431.85 478.62C1401.22 424.95 1452.71 360.977 1454.11 299.22C1455.39 243.137 1402.89 178.029 1439.65 135.672Z" fill="#ECA761"/>
<path fill-rule="evenodd" clip-rule="evenodd" d="M1842.91 609.966C1804.89 653.766 1731.43 618.449 1673.74 624.655C1634.09 628.92 1597.63 646.119 1558.13 640.6C1513.5 634.366 1471.54 618.809 1435.76 591.406C1390.42 556.673 1335.78 520.5 1327.57 463.997C1319.21 406.532 1354.94 350.305 1394.55 307.858C1430.5 269.316 1485.09 261.411 1534.28 242.441C1584.7 222.999 1631.48 191.525 1685.37 195.71C1746.7 200.474 1820.22 213.588 1850.71 267.019C1881.34 320.688 1829.85 384.661 1828.45 446.419C1827.17 502.502 1879.67 567.609 1842.91 609.966Z" fill="#FF303B"/>
<path fill-rule="evenodd" clip-rule="evenodd" d="M655.654 -9.50607C693.672 -53.3065 767.134 -17.9892 824.821 -24.1947C864.473 -28.46 900.935 -45.6595 940.437 -40.1405C985.062 -33.9057 1027.02 -18.3489 1062.8 9.05422C1108.14 43.7865 1162.78 79.9597 1171 136.463C1179.35 193.928 1143.62 250.155 1104.02 292.602C1068.06 331.144 1013.47 339.049 964.281 358.019C913.863 377.461 867.083 408.935 813.193 404.75C751.86 399.986 678.347 386.872 647.854 333.441C617.225 279.772 668.71 215.799 670.115 154.041C671.39 97.9584 618.889 32.8509 655.654 -9.50607Z" fill="#E07C9B"/>
<path d="M800.141 38.871C791.746 23.9575 800.141 -5 800.141 -5H632C632 -5 738.667 17.8201 749.917 71.7742C757.241 106.901 695.562 140.161 725.169 160.247C752.038 178.476 771.951 108.33 800.141 124.419C830.046 141.487 773.037 191.621 800.141 212.892C830.805 236.958 866.084 139.964 890.398 170.484C908.09 192.691 866.482 219.343 882.392 242.871C892.5 257.819 921.697 267 921.697 267H1017.05C1017.05 267 1090.1 150.69 1041.07 140.505C1016.77 135.458 1004.71 166.347 980.656 160.247C938.258 149.496 1009.63 64.6514 969.01 48.3763C931.587 33.3809 882.392 104.677 882.392 104.677C882.392 104.677 914.135 28.4493 882.392 8.89247C853.264 -9.05326 816.96 68.7496 800.141 38.871Z" fill="#0021FF"/>
<path d="M779.108 274.138C632.084 217.999 666.63 -5 666.63 -5H-377V299H1460.4C1460.4 299 1506.19 50.3801 1335.87 6.27216C1097.58 -55.4378 1005.64 360.638 779.108 274.138Z" fill="#007F55"/>
<path d="M1901.69 147.694L1920.98 96.7243L2116.66 573.766L2107.14 577.673L2092.67 542.395C2076.31 541.721 2038.16 541.256 2016.36 544.786C1989.11 549.198 1973.08 594.528 1950.3 600.796C1927.52 607.065 1928.91 548.669 1932.88 523.668C1936.05 503.667 2013.08 460.423 2051.2 441.3L2033.27 397.598L1982.46 418.44C1956.53 429.077 1949.49 470.717 1916.6 518.657C1883.71 566.597 1843.46 563.425 1824.51 556.434C1805.56 549.442 1782.48 496.168 1784.98 460.078C1787.49 423.987 1796.33 382.222 1845.11 344.373C1884.13 314.094 1965.93 316.341 2001.95 321.25C1998.88 317.792 1989.15 306.938 1974.78 291.182C1956.81 271.489 1914.75 268.442 1883.26 274.592C1851.77 280.741 1822.15 357.532 1790.07 366.953C1751.44 378.295 1735.91 373.272 1711.08 359.468C1686.25 345.663 1663.39 270.812 1692.11 233.667C1720.39 197.091 1796.67 178.062 1841.36 172.444C1832.15 165.56 1806.02 149.294 1775.2 139.297C1736.69 126.8 1670.41 75.2519 1654.21 35.7619C1638.01 -3.72806 1646.32 -45.2748 1687.3 -75.0031C1728.28 -104.731 1771.2 -69.4361 1817.22 -31.1064C1854.04 -0.442669 1888.88 100.87 1901.69 147.694Z" fill="#C7ECC4"/>
<path d="M1921.82 190.22L1959 150.382V666H1948.71V627.869C1933.83 621.04 1898.71 606.129 1877.2 601.121C1850.31 594.861 1818.28 630.715 1794.82 627.869C1771.37 625.024 1794.82 571.527 1807.98 549.901C1818.5 532.599 1906.18 521.824 1948.71 518.599V471.363H1893.79C1865.76 471.363 1843.45 507.217 1794.82 539.087C1746.2 570.958 1710.16 552.746 1695.28 539.087C1680.41 525.429 1679.27 467.379 1695.28 434.939C1711.3 402.5 1735.33 367.215 1794.82 350.71C1842.42 337.507 1917.24 370.629 1948.71 388.841C1947.18 384.478 1942.3 370.743 1934.98 350.71C1925.82 325.669 1888.07 306.888 1856.6 300.628C1825.14 294.368 1768.59 354.172 1735.33 350.71C1695.28 346.543 1682.83 336.005 1665.09 313.809C1647.36 291.614 1654.61 213.686 1695.28 190.22C1735.33 167.113 1813.13 178.458 1856.6 190.22C1850.69 180.355 1832.69 155.39 1807.98 134.447C1777.09 108.267 1735.33 35.4206 1735.33 -7.26277C1735.33 -49.9462 1758.78 -85.2315 1807.98 -97.1829C1857.17 -109.134 1883.49 -60.1905 1911.52 -7.26277C1933.94 35.0794 1927.73 142.035 1921.82 190.22Z" fill="#151762"/>
<path d="M610.179 225.797C586.526 178.252 389.019 -140.65 298 -238.408L326.277 1.12722C327.586 12.2145 485.725 261.672 493.856 330.554L643.018 312.945C642.334 307.153 633.833 273.341 610.179 225.797Z" fill="#151762"/>
<path d="M246.567 199.92L230 182.162V412H234.587V395.003C241.214 391.959 256.863 385.312 266.446 383.08C278.425 380.29 292.698 396.272 303.148 395.003C313.598 393.735 303.148 369.888 297.287 360.248C292.598 352.536 253.533 347.733 234.587 346.296V325.24H259.055C271.543 325.24 281.484 341.222 303.148 355.428C324.813 369.635 340.87 361.517 347.498 355.428C354.125 349.34 354.633 323.464 347.498 309.004C340.362 294.544 329.656 278.816 303.148 271.459C281.942 265.574 248.605 280.338 234.587 288.456C235.267 286.511 237.441 280.389 240.704 271.459C244.782 260.297 261.604 251.925 275.623 249.135C289.642 246.344 314.836 273.002 329.656 271.459C347.498 269.601 353.048 264.904 360.949 255.01C368.85 245.117 365.617 210.38 347.498 199.92C329.655 189.62 294.993 194.678 275.623 199.92C278.256 195.523 286.277 184.395 297.287 175.059C311.05 163.39 329.656 130.918 329.656 111.892C329.656 92.8658 319.206 77.1373 297.287 71.81C275.368 66.4826 263.644 88.2994 251.155 111.892C241.164 130.766 243.933 178.442 246.567 199.92Z" fill="#FF6601"/>
<path d="M308.146 317.473C283.463 248.61 64.7429 -219.562 -44 -368V-35.7365C-44 -20.3571 132.073 346.453 132.073 442H339C339 433.966 332.829 386.336 308.146 317.473Z" fill="#151762"/>
</g>
<defs>
<clipPath id="clip0_2903_3397">
<rect width="1920" height="299" fill="white"/>
</clipPath>
</defs>
</svg>
