<svg width="18" height="18" viewBox="0 0 18 18" fill="none" xmlns="http://www.w3.org/2000/svg">
<path d="M6.68172 15.5025C6.53922 15.5025 6.39672 15.45 6.28422 15.3375C6.06672 15.12 6.06672 14.76 6.28422 14.5425L11.1742 9.6525C11.5342 9.2925 11.5342 8.7075 11.1742 8.3475L6.28422 3.4575C6.06672 3.24 6.06672 2.88 6.28422 2.6625C6.50172 2.445 6.86172 2.445 7.07922 2.6625L11.9692 7.5525C12.3517 7.935 12.5692 8.4525 12.5692 9C12.5692 9.5475 12.3592 10.065 11.9692 10.4475L7.07922 15.3375C6.96672 15.4425 6.82422 15.5025 6.68172 15.5025Z" fill="#181919"/>
</svg>
