<svg width="18" height="18" viewBox="0 0 18 18" fill="none" xmlns="http://www.w3.org/2000/svg">
<path d="M11.3183 15.5025C11.4608 15.5025 11.6033 15.45 11.7158 15.3375C11.9333 15.12 11.9333 14.76 11.7158 14.5425L6.82578 9.6525C6.46578 9.2925 6.46578 8.7075 6.82578 8.3475L11.7158 3.4575C11.9333 3.24 11.9333 2.88 11.7158 2.6625C11.4983 2.445 11.1383 2.445 10.9208 2.6625L6.03078 7.5525C5.64828 7.935 5.43078 8.4525 5.43078 9C5.43078 9.5475 5.64078 10.065 6.03078 10.4475L10.9208 15.3375C11.0333 15.4425 11.1758 15.5025 11.3183 15.5025Z" fill="#181919"/>
</svg>
