<svg width="1920" height="676" viewBox="0 0 1920 676" fill="none" xmlns="http://www.w3.org/2000/svg">
<g clip-path="url(#clip0_2905_1885)">
<rect width="1920" height="676" fill="black" fill-opacity="0.2"/>
<rect width="1920" height="676" fill="#151762"/>
<path d="M1191.22 320.175C1210.12 320.853 1417.36 362.545 1427.79 368.281L1435.09 369.807C1475.92 371.983 1520.51 382.141 1560.8 390.272C1568.31 395.365 1572.08 399.208 1574.28 409.14C1576.4 418.74 1576.32 438.795 1571.99 447.47C1579.62 461.909 1582.68 549.172 1578.6 565.737C1578.01 568.11 1577.04 569.679 1575.63 571.544L1574.93 572.25L1569.13 569.036C1569.4 567.27 1569.54 566.959 1569.32 564.91C1567.86 551.489 1552.52 502.167 1543.51 495.866C1543.03 506.646 1522.9 544.312 1515.63 551.976C1514.6 553.057 1513.52 553.989 1512.32 554.823C1512.09 561.795 1511.25 566.316 1506.24 571.381C1505.06 572.575 1503.73 573.635 1502.43 574.666C1504.34 585.488 1480.85 632.909 1474.41 643.032C1472.87 645.441 1470.74 647.243 1468.52 648.811C1468.19 654.843 1465.9 659.598 1461.81 663.582C1459.34 665.991 1456.22 667.912 1453.32 669.593C1453.33 683.601 1429.58 725.124 1419.62 735.452C1418.3 736.822 1416.65 737.839 1415.03 738.715C1413.67 747.164 1410.87 752.575 1404.39 757.619C1403.88 758.015 1403.36 758.375 1402.84 758.749C1402.43 772.927 1376.75 808.707 1367.13 818.554C1365.34 820.383 1363.19 821.818 1361.09 823.146L1360.16 823.739C1359.69 830.768 1355.34 836.37 1350.61 840.855C1348.16 843.193 1345.48 845.094 1342.66 846.831C1341.74 856.213 1302 907.18 1293.25 915.904C1291.96 917.19 1290.55 917.868 1288.98 918.638C1287.52 927.115 1284.33 934.801 1277.81 939.943C1276.97 940.593 1276.1 941.187 1275.23 941.773C1276.73 954.065 1264.37 972.77 1260.07 984.666C1251.92 1007.24 1253.63 1053.52 1245.34 1070.57C1247.01 1073.33 1248.51 1075.57 1249.45 1078.75C1252.2 1085.73 1271.13 1146.78 1270.8 1150.41C1277.6 1155.26 1286.59 1163.7 1288.73 1172.6L1288.14 1175.6C1287.63 1175.94 1287.14 1176.29 1286.63 1176.61C1281.79 1179.54 1197.87 1175.76 1189.6 1173.21C1193.52 1162.1 1193.46 1154.28 1189.13 1143.35C1189.82 1141.86 1189.89 1141.78 1190.53 1140.02C1196.17 1124.38 1195.03 1075.28 1189.29 1060.36C1189.56 1059.78 1189.84 1059.2 1190.09 1058.61C1195.75 1044.77 1194.57 940.664 1189.58 925.688C1189.9 924.869 1190.21 924.049 1190.49 923.208C1193.29 914.597 1191.89 909.292 1188.73 901.38C1189.52 899.826 1190.2 898.251 1190.75 896.57C1195.59 881.982 1194.56 836.97 1188.82 823.414C1188.98 823.103 1189.15 822.807 1189.31 822.489C1193.9 813.213 1192.28 803.889 1189.9 794.253C1195.19 777.603 1194.7 738.341 1189.91 721.783C1193.1 712.041 1192.42 703.967 1189.81 694.275C1190.07 693.498 1190.35 692.721 1190.59 691.937C1195.03 677.745 1194.67 637.409 1188.87 624.27C1189.65 622.546 1190.39 620.816 1190.97 619C1193.65 610.679 1191.82 604.533 1188.82 596.925C1189 596.565 1189.2 596.211 1189.37 595.844C1195.87 581.772 1194.06 539.105 1189.72 524.341C1193.02 514.932 1192.19 508.574 1189.79 499.186C1195.69 483.574 1194.9 432.897 1189.48 417.68C1192.67 408.483 1192.12 403.439 1188.75 394.68C1197 377.832 1191.9 339.912 1191.22 320.175Z" fill="#FF6602"/>
<path d="M1146.72 337.425C1162.76 336.684 1177.62 329.047 1191.22 320.175C1191.9 339.912 1197 377.832 1188.75 394.68C1192.12 403.439 1192.66 408.483 1189.48 417.68C1194.9 432.897 1195.69 483.574 1189.79 499.186C1192.19 508.574 1193.02 514.932 1189.71 524.341C1194.06 539.105 1195.86 581.772 1189.37 595.844C1189.2 596.211 1189 596.565 1188.81 596.925C1191.82 604.533 1193.65 610.679 1190.97 619C1190.39 620.816 1189.64 622.546 1188.87 624.27C1194.67 637.409 1195.03 677.745 1190.59 691.937C1190.35 692.721 1190.07 693.498 1189.8 694.275C1192.42 703.967 1193.1 712.041 1189.91 721.783C1194.7 738.341 1195.19 777.603 1189.9 794.253C1192.28 803.889 1193.9 813.213 1189.31 822.489C1189.15 822.806 1188.98 823.103 1188.81 823.414C1194.55 836.97 1195.59 881.982 1190.75 896.57C1190.19 898.251 1189.52 899.826 1188.73 901.38C1191.89 909.292 1193.28 914.597 1190.49 923.208C1190.21 924.049 1189.89 924.869 1189.58 925.688C1194.57 940.664 1195.75 1044.77 1190.09 1058.61C1189.84 1059.2 1189.56 1059.78 1189.29 1060.36C1195.03 1075.28 1196.16 1124.38 1190.53 1140.02C1189.89 1141.78 1189.82 1141.86 1189.13 1143.35C1193.46 1154.28 1193.51 1162.1 1189.59 1173.21C1185.09 1177.08 981.122 1171.07 959.891 1170.76C960.88 1168.75 961.864 1166.59 962.304 1164.33C965.867 1146.26 961.008 1024.18 960.867 995.453L960 563C960.006 538.806 960 447 960 427.5C982.106 420.337 1142.2 345.803 1146.72 337.425Z" fill="#DF7C9A"/>
<path d="M1969.16 -2.96288C1969.34 -54.2009 1974.71 -102.652 1936.48 -142.413C1935.22 -143.728 1933.94 -145.01 1932.62 -146.259C1931.3 -147.509 1929.96 -148.725 1928.58 -149.907C1927.2 -151.089 1925.8 -152.235 1924.37 -153.345C1922.94 -154.456 1921.48 -155.53 1920 -156.567C1918.52 -157.603 1917.01 -158.602 1915.48 -159.562C1913.95 -160.524 1912.39 -161.445 1910.82 -162.327C1909.24 -163.208 1907.64 -164.05 1906.03 -164.851C1904.41 -165.652 1902.77 -166.412 1901.12 -167.13C1899.47 -167.848 1897.8 -168.524 1896.11 -169.158C1894.42 -169.792 1892.72 -170.383 1891.01 -170.931C1889.29 -171.479 1887.57 -171.983 1885.83 -172.443C1884.09 -172.904 1882.34 -173.32 1880.58 -173.692C1878.82 -174.063 1877.05 -174.39 1875.28 -174.673C1873.5 -174.955 1871.72 -175.192 1869.94 -175.385C1868.15 -175.577 1866.36 -175.723 1864.56 -175.824C1862.77 -175.926 1860.97 -175.982 1859.18 -175.993C1857.36 -176.014 1855.54 -175.988 1853.72 -175.916C1851.9 -175.842 1850.08 -175.723 1848.27 -175.557C1846.46 -175.392 1844.65 -175.18 1842.85 -174.922C1841.04 -174.664 1839.25 -174.36 1837.46 -174.01C1835.67 -173.66 1833.89 -173.265 1832.13 -172.825C1830.36 -172.384 1828.6 -171.898 1826.86 -171.368C1825.11 -170.836 1823.38 -170.26 1821.66 -169.642C1819.95 -169.023 1818.25 -168.36 1816.56 -167.654C1814.88 -166.948 1813.21 -166.199 1811.57 -165.408C1809.92 -164.617 1808.29 -163.785 1806.68 -162.91C1805.08 -162.036 1803.49 -161.12 1801.93 -160.164C1800.37 -159.209 1798.83 -158.215 1797.32 -157.181C1795.8 -156.146 1794.31 -155.073 1792.85 -153.963C1791.39 -152.853 1789.96 -151.707 1788.56 -150.523C1787.15 -149.34 1785.78 -148.121 1784.43 -146.867C1783.08 -145.613 1781.77 -144.325 1780.49 -143.004C1741.98 -103.49 1749.74 -52.5258 1749.89 -1.61217C1741.16 -1.1694 1732.44 -0.624603 1723.7 -0.734787L1297.06 -0.993927C1296.22 0.54657 1295.42 2.17477 1294.9 3.85809C1293.79 7.48997 1292.77 547.336 1292.77 547.336C1292.77 547.336 1290.91 921.807 1294.32 933.961C1294.32 933.961 1293.97 1106.72 1300.31 1158.29C1302.11 1160.59 1303.3 1162.03 1306.02 1163.29C1324.84 1163.45 1343.66 1163.2 1362.47 1162.56C1394.92 1164.32 1427.9 1162.98 1460.39 1162.83L1551.81 1162.89L1649.98 1162.58L1718.44 1162.66L1730.17 1162.85L1751.35 1162.75C1784.05 1163.24 1816.83 1162.78 1849.53 1162.79L1867.39 1162.8L1933.8 1162.72L1933.92 591.412L1968.8 591.432L1982.28 591.335L1982.29 449.255C1982.27 426.757 1985.49 397.684 1980.35 376.027L1982.33 365.671C1986.78 361.771 1989.75 362.638 1995.49 362.375C1999.42 322.786 1995.09 280.009 1994.82 240.032C1994.23 158.961 1994.57 77.894 1995.82 -3.16898L1969.16 -2.96288Z" fill="#303289"/>
<path d="M1650.02 67.4388L1549.94 66.7637L1550.52 1163.46L1649.85 1163.14L1650.02 67.4388Z" fill="#FF6601"/>
<path d="M1459.6 66.937L1362.92 66.7637C1360.37 70.8501 1359.85 74.1536 1359.69 78.8763C1356.76 166.68 1359.45 255.683 1359.45 343.611L1359.43 862.074V1075.29C1359.45 1095.87 1356.24 1139.75 1360.45 1157.23C1360.93 1159.22 1361.74 1160.82 1362.76 1162.56C1395.14 1164.32 1428.07 1162.98 1460.5 1162.83L1459.6 66.937Z" fill="#FF6601"/>
<path d="M1295.46 338.276L1191.12 321.24L1192.18 1149.62H1303.98L1295.46 338.276Z" fill="#FF6601"/>
<path d="M1092.49 435.998L1097.79 437.467C1098.25 438.52 1098.97 440.039 1099.29 441.226C1103.22 455.968 1102.82 507.769 1096.71 521.721C1090.4 527.965 1038.77 545.838 1027.1 550.726C1019.15 535.552 1032.7 487.192 1022.5 465.046C1045.59 459.627 1070.6 445.902 1092.49 435.998Z" fill="#0021FE"/>
<path d="M1093.03 618.061L1097.91 619.452C1098.36 620.512 1099.09 622.08 1099.39 623.288C1103.27 638.412 1102.63 689.931 1096.61 704.292C1084.82 715.1 1044.21 727.257 1028.2 732.979C1022.74 729.737 1029.73 662.706 1022.3 649.15C1044.96 643.845 1071.34 627.731 1093.03 618.061Z" fill="#0021FE"/>
<path d="M1191.12 322.305L1295.46 337.211L1191.12 238.189V322.305Z" fill="white"/>
<path d="M1191.12 322.305V238.189L959 429.845L1191.12 322.305Z" fill="#A6AEE3"/>
<path fill-rule="evenodd" clip-rule="evenodd" d="M525.66 520.375C513.579 485.62 556.194 456.386 570.997 422.699C581.171 399.545 583.226 374.055 598.733 354.076C616.252 331.506 638.056 313.348 664.42 302.337C697.836 288.382 734.979 269.77 768.642 283.117C802.879 296.691 822.517 334.116 833.353 369.315C843.193 401.276 830.305 433.794 825.204 466.844C819.975 500.718 822.512 536.395 803.195 564.708C781.21 596.931 750.787 633.213 711.779 633.09C672.596 632.966 653.674 584.427 620.158 564.129C589.722 545.697 537.343 553.986 525.66 520.375Z" fill="#E84845"/>
<path fill-rule="evenodd" clip-rule="evenodd" d="M506.048 21.9455C484.573 -39.8352 560.325 -91.8004 586.638 -151.681C604.723 -192.84 608.376 -238.15 635.942 -273.664C667.083 -313.784 705.84 -346.062 752.705 -365.634C812.104 -390.441 878.129 -423.525 937.968 -399.8C998.827 -375.671 1033.73 -309.145 1053 -246.575C1070.49 -189.762 1047.58 -131.959 1038.51 -73.2104C1029.22 -12.9976 1033.73 50.4214 999.388 100.749C960.308 158.029 906.229 222.523 836.888 222.304C767.237 222.084 733.603 135.802 674.026 99.7217C619.923 66.9565 526.815 81.6901 506.048 21.9455Z" fill="#0021FE"/>
<path fill-rule="evenodd" clip-rule="evenodd" d="M1816.89 -34.3243C1858.14 -26.7305 1882.48 13.1235 1913.75 41.0789C1941.14 65.5644 1978.18 83.3774 1988.1 118.743C1997.9 153.687 1981.08 189.989 1964.59 222.322C1950.17 250.588 1918.59 263.554 1900.84 289.851C1867.77 338.827 1874.71 428.78 1816.89 441.054C1764 452.28 1748.29 360.406 1702.3 331.996C1649.76 299.537 1545.27 326.943 1533.93 266.251C1521.88 201.761 1630.34 181.142 1663.53 124.541C1685.56 86.9775 1659.86 31.2464 1690.1 -0.0862045C1721.26 -32.366 1772.75 -42.4474 1816.89 -34.3243Z" fill="#367D57"/>
<path d="M648.383 -24.3214L960.002 -40.0391V929.67H648.383V-24.3214Z" fill="#0021FE"/>
<path d="M692.084 481.376L774.832 481.394C774.661 530.594 774.881 579.791 775.492 628.985L690.754 628.661C690.858 579.563 691.301 530.468 692.084 481.376Z" fill="#E84845"/>
<path d="M734.917 282.093L778.226 281.831L776.625 434.202L736.482 434.907L691.163 433.968C691.824 383.388 691.688 332.808 690.754 282.228L734.917 282.093Z" fill="#E84845"/>
<path d="M689.383 82.6016L777.846 82.2852C776.562 132.728 778.011 183.515 778.222 233.994L690.144 233.353L689.383 82.6016Z" fill="#E84845"/>
<path d="M826.055 481.403L917.627 481.376C915.453 531.439 915.888 581.61 915.824 631.718C886.17 631.177 856.461 631.475 826.806 631.375C828.79 581.637 826.58 531.195 826.055 481.403Z" fill="#E84845"/>
<path d="M824.691 82.2852L916.264 82.5472C914.034 133.259 915.357 184.577 915.13 235.361C885.404 234.52 855.478 235.189 825.725 235.153L824.691 82.2852Z" fill="#E84845"/>
<path d="M826.055 280.926C855.889 282.32 886.363 280.754 916.26 280.464C913.828 332.231 915.188 384.442 915.332 436.273C885.66 435.121 855.979 434.87 826.289 435.522L826.055 280.926Z" fill="#E84845"/>
<path d="M149.52 -52.3389L652.484 -24.3205V929.671H149.52V-52.3389Z" fill="#0021FE"/>
<path d="M142 -141.604V932.604H278.139V17.1529H344.499V932.604H450.537V17.1529H509.371V932.604H639.353V-141.604H142Z" fill="#E07C9B"/>
<path fill-rule="evenodd" clip-rule="evenodd" d="M1188.28 -266.045C1245.68 -274.697 1294.01 -222.768 1336.77 -183.508C1375.37 -148.068 1400.89 -103.262 1419.08 -54.1223C1438.02 -2.97977 1454.15 50.263 1443.09 103.664C1431.19 161.086 1409.33 227.528 1355.78 251.415C1302.44 275.206 1246.66 215.395 1188.28 217.31C1126.31 219.343 1070.72 284.24 1012.6 262.674C953.626 240.794 928.965 171.148 906.015 112.584C881.78 50.7444 842.667 -23.8203 878.379 -79.8215C915.3 -137.72 1010.24 -107.792 1069.1 -143.162C1119.24 -173.289 1130.44 -257.326 1188.28 -266.045Z" fill="#ECA760"/>
<path fill-rule="evenodd" clip-rule="evenodd" d="M1761.67 195.463C1826.59 203.413 1839.85 294.313 1882.01 344.322C1910.98 378.695 1950.05 401.942 1969.78 442.338C1992.07 487.972 2003.96 536.988 2000.88 587.682C1996.97 651.934 1997.57 725.781 1949.9 769.041C1901.42 813.037 1826.32 815.055 1761.67 804.771C1702.96 795.434 1661.17 749.396 1612.43 715.365C1562.47 680.487 1503.56 656.586 1473.51 603.584C1439.32 543.26 1405.26 466.293 1436.01 404.146C1466.91 341.72 1559.18 349.553 1617.82 311.973C1671.08 277.847 1698.88 187.776 1761.67 195.463Z" fill="#E07C9B"/>
<path fill-rule="evenodd" clip-rule="evenodd" d="M835.984 565.289C902.889 570.24 916.557 626.858 960.002 658.007C989.863 679.416 1030.12 693.896 1050.45 719.057C1073.43 747.481 1085.68 778.01 1082.5 809.586C1078.48 849.606 1079.09 895.602 1029.97 922.547C980.009 949.951 902.614 951.207 835.984 944.802C775.483 938.986 732.415 910.311 682.186 889.115C630.705 867.39 569.989 852.503 539.027 819.49C503.787 781.917 468.685 733.978 500.38 695.269C532.216 656.386 627.31 661.265 687.745 637.858C742.627 616.602 771.283 560.5 835.984 565.289Z" fill="#EBA661"/>
<path d="M265.305 394C274.975 400.953 320.677 485.789 329.109 500.56C342.809 524.56 357.637 547.742 369.941 572.521C384.863 602.568 398.923 633.535 410.125 665.16C411.451 668.761 412.81 672.352 414 676H378.842H336.328C326.707 666.702 316.55 653.28 308.192 642.632L272.363 595.702C261.267 581.055 249.946 566.581 238.403 552.28C232.174 544.815 226.079 537.242 220.118 529.56L215 522.84C219.863 507.596 226.545 492.52 232.327 477.571C243.021 449.596 254.014 421.739 265.305 394Z" fill="#16175C"/>
<path d="M378 676C385.42 670.713 400.954 667.326 410.032 665C411.39 668.654 412.782 672.298 414 676H378Z" fill="#071FF5"/>
<path d="M225 517.34C228.555 511.234 234.818 494.963 241.271 493.133C242.368 492.822 242.896 493.106 243.942 493.465C246.21 495.623 246.76 498.675 246.976 501.82C247.298 506.492 244.241 539.512 243.049 542C236.9 533.898 230.884 525.678 225 517.34Z" fill="#071FF5"/>
<path d="M275 589.09C286.855 577.796 326.775 541.834 340.997 543.029C342.849 543.186 344.688 543.905 345.923 545.471C348.272 548.446 348.16 553.621 347.807 557.281C346.059 575.411 320.537 622.072 310.698 640L275 589.09Z" fill="#071FF5"/>
<path d="M1786 54.0898C1774.15 42.7963 1734.22 6.83354 1720 8.02911C1718.15 8.18628 1716.31 8.90473 1715.08 10.4708C1712.73 13.4457 1712.84 18.6209 1713.19 22.2806C1714.94 40.4108 1740.46 87.072 1750.3 105L1786 54.0898Z" fill="#071FF5"/>
<path d="M94.1654 132C113.453 152.936 128.202 178.462 145.631 201.17C161.52 221.874 178.414 241.627 194.338 262.32C199.583 269.137 205.22 275.914 210 283.127L193.916 470.167C193.679 470.605 193.412 470.731 193.03 471C190.342 468.609 186.015 461.055 183.586 457.622C177.239 448.686 170.788 439.843 164.234 431.091C151.859 414.414 139.177 397.997 126.924 381.216C119.694 371.312 112.94 360.978 105.593 351.179C98.2945 341.443 90.3747 332.285 83.0839 322.541C71.4459 306.988 60.9163 290.654 50.2234 274.317C44.128 265.004 37.6833 255.963 32 246.33C40.9056 230.426 48.9832 213.858 57.6375 197.771C69.656 175.74 81.832 153.817 94.1654 132Z" fill="#16175C"/>
<path d="M32.8421 246C38.53 255.656 44.9798 264.719 51.0801 274.054C61.7815 290.43 72.3194 306.803 83.9667 322.393C91.2633 332.16 99.1894 341.341 106.494 351.1C113.846 360.923 120.605 371.281 127.842 381.209C140.105 398.03 152.797 414.486 165.182 431.203C171.741 439.975 178.196 448.84 184.548 457.797C186.98 461.239 191.31 468.811 194 471.207C194.383 470.938 194.65 470.811 194.887 470.372C192.515 506.549 191.371 536.16 199.559 571.709L213.086 531.108C215.424 524.105 217.519 516.855 220.218 510.027L225.229 517.309C231.065 525.634 237.032 533.841 243.13 541.93C254.431 557.428 265.514 573.112 276.378 588.984L311.455 639.84C319.637 651.379 329.582 665.924 339 676H150.42H0V667.186V509.447V473.594V304.216L0.95022 304.18L1.17381 303.307C12.7105 284.939 22.5878 265.262 32.8421 246Z" fill="#367D57"/>
<path d="M0 473L0.936422 473.116L1.2872 474.172C5.89674 480.699 40.0142 526.839 40 530C27.5709 524.158 15.5137 517.044 3.07987 511.073L1.32927 510.429L0 509.16V473Z" fill="#16175C"/>
<path d="M0 510L1.30856 511.254L3.03188 511.891C15.272 517.791 27.1414 524.822 39.3768 530.595C43.3083 533.277 52.4696 548.019 56.028 552.803L115.579 632.924C126.582 647.588 138.334 661.984 150 676H0V667.215V510Z" fill="#D2809B"/>
<path d="M-68.3817 -90.4471C28.5533 -98.4794 127.894 -110.081 225.048 -112C236.297 -107.508 247.933 -103.379 258.584 -97.6072L410.913 -22.5606C437.45 -9.43982 464.352 5.91988 491.816 16.8599C491.583 303.94 488.324 591.426 492.144 878.455C461.517 880.927 431.472 886.015 400.969 889.054C372.134 891.925 343.096 892.528 314.299 895.938C286.164 899.267 258.213 904.85 229.933 906.791C157.151 911.545 82.5397 924.433 10.2978 935.329C-15.6857 939.247 -45.2051 947.563 -71.1375 947.999L-71.3489 789.99L-71.4145 678.082L-71.4219 638.712L-71.3489 518.139L-71.4073 479.155L-71.3052 357.724L-71.3489 319.205L-71.3125 196.08L-71.101 116.156C-69.7596 47.3975 -70.4668 -21.492 -70.3575 -90.2653L-68.3817 -90.4471Z" fill="#EBA661"/>
<path d="M-68.3711 -90.4471C28.5639 -98.4794 127.905 -110.081 225.059 -112C231.11 -37.2661 227.267 39.3361 228.274 114.383C129.757 113.299 30.926 116.243 -67.5182 113.881C-66.9592 71.0949 -66.8329 28.3063 -67.1391 -14.4847C-67.1974 -39.585 -65.9579 -65.4703 -68.3711 -90.4471Z" fill="#FE6501"/>
<path d="M-71.101 116.157C28.8522 118.127 128.922 114.515 228.839 117.146L229.933 906.792C157.151 911.546 82.5397 924.434 10.2978 935.33C-15.6857 939.248 -45.2051 947.564 -71.1375 948L-71.3489 789.991L-71.4145 678.083L-71.4219 638.713L-71.3489 518.14L-71.4073 479.156L-71.3052 357.725L-71.3489 319.206L-71.3125 196.082L-71.101 116.157Z" fill="#FDBECD"/>
<path d="M5.26799 516.998L71.0214 517.013C70.8854 556.717 71.0603 596.418 71.5463 636.117L4.21094 635.856C4.29356 596.234 4.64586 556.615 5.26799 516.998Z" fill="#DF7C9A"/>
<path d="M39.1651 356.793L73.8753 356.582L72.5922 479.198L40.419 479.765L4.09759 479.009C4.62737 438.306 4.51803 397.604 3.76953 356.902L39.1651 356.793Z" fill="#DF7C9A"/>
<path d="M3.00781 196.612L73.3688 196.357C72.3481 236.919 73.5 277.757 73.6677 318.348L3.61298 317.832L3.00781 196.612Z" fill="#DF7C9A"/>
<path d="M112.164 517.035L185.871 517.013C184.122 557.342 184.472 597.758 184.421 638.124C160.551 637.688 136.638 637.927 112.769 637.847C114.366 597.78 112.587 557.146 112.164 517.035Z" fill="#DF7C9A"/>
<path d="M111.598 196.205L185.239 196.416C183.446 237.196 184.51 278.462 184.328 319.3C160.422 318.624 136.356 319.162 112.429 319.133L111.598 196.205Z" fill="#DF7C9A"/>
<path d="M112.02 356.386C136.166 357.506 160.83 356.248 185.027 356.016C183.059 397.581 184.159 439.502 184.276 481.117C160.261 480.192 136.239 479.991 112.209 480.514L112.02 356.386Z" fill="#DF7C9A"/>
<path d="M199.499 571L423.426 0H299.426C295.093 6.33333 281.326 33.6 260.926 92C235.426 165 200.502 407 193.502 471.5C187.902 523.1 194.832 560.167 199.499 571Z" fill="#FF6602"/>
<path d="M-68.0739 530L150.426 -48H59.5C55.1667 -41.6667 41.4 -14.4 21 44C-4.5 117 -68.0739 368.5 -75.0739 433C-80.6739 484.6 -72.7406 519.167 -68.0739 530Z" fill="#E84845"/>
<path d="M1903.45 279.559L1934 246.699V672H1925.54V640.548C1913.32 634.915 1884.46 622.616 1866.79 618.485C1844.69 613.322 1818.37 642.896 1799.1 640.548C1779.83 638.201 1799.1 594.075 1809.91 576.237C1818.56 561.966 1890.6 553.078 1925.54 550.418V511.456H1880.42C1857.39 511.456 1839.05 541.03 1799.1 567.318C1759.15 593.606 1729.53 578.584 1717.31 567.318C1705.09 556.052 1704.15 508.17 1717.31 481.413C1730.47 454.655 1750.21 425.551 1799.1 411.938C1838.21 401.047 1899.69 428.367 1925.54 443.389C1924.29 439.79 1920.28 428.461 1914.26 411.938C1906.74 391.283 1875.72 375.792 1849.86 370.628C1824.01 365.464 1777.54 414.793 1750.21 411.938C1717.31 408.5 1707.07 399.808 1692.5 381.5C1677.93 363.192 1683.89 298.915 1717.31 279.559C1750.21 260.5 1814.14 269.858 1849.86 279.559C1845.01 271.423 1830.21 250.83 1809.91 233.555C1784.53 211.962 1750.21 151.875 1750.21 116.668C1750.21 81.4614 1769.48 52.3567 1809.91 42.4988C1850.33 32.6408 1871.96 73.0115 1894.99 116.668C1913.41 151.594 1908.31 239.815 1903.45 279.559Z" fill="#C7ECC4"/>
<path d="M229 0H300C291.531 19.9584 278.517 40.8153 272.078 61.5329L263.07 90.6986C261.663 95.3342 260.634 100.668 258.575 105C254.549 98.5766 252.69 87.6331 250.562 80.1581C242.987 53.5403 236.611 26.5866 229 0Z" fill="#071FF5"/>
<path d="M221.614 1H229.067C235.767 23.8545 248.277 56.0245 254.945 78.9058C256.818 85.3314 258.454 94.7387 261.998 100.26C260.38 108.986 256.957 117.641 254.638 126.231L240.19 195C237.737 192.476 231.585 187.796 230.05 184.613C225.875 166.665 222.755 148.75 221.613 130.346C219.149 90.6692 217.738 40.5337 221.614 1Z" fill="#DAA671"/>
<path d="M142 -23H149.085C152.827 18.7004 158.022 60.1619 162.109 101.814C162.336 107.556 162.525 113.296 163.045 119.021C163.392 129.77 165.922 151.241 160.983 160.421C159.376 163.408 156.548 165.855 153.214 166.684C150.029 167.477 146.769 166.714 143.978 165.108C125.385 154.415 110.919 96.7834 105 75.5C116.5 47 127.869 6.04175 142 -23Z" fill="#071FF5"/>
<path d="M1280.17 -85H1366.12C1366.55 -83.8143 1366.84 -83.1325 1366.77 -81.8517C1366.41 -75.1614 1362.4 -66.1371 1360.67 -59.466C1357.37 -46.5231 1354.54 -33.475 1352.2 -20.3218C1346.93 8.653 1344.05 38.04 1339.1 67.074C1334.72 92.728 1328.07 118.278 1322.73 143.773C1318.96 161.731 1316.51 181.427 1310.53 198.701C1305.41 213.498 1297.28 228.214 1290.3 242.25C1285.9 251.096 1281.64 262.241 1274.09 268.773C1274.51 267.952 1274.88 267.132 1275.27 266.303C1277.81 260.911 1276.46 138.804 1275.77 124.94C1273.81 85.04 1267.91 45.908 1269.17 5.7662C1269.57 -6.9568 1270.86 -19.9289 1272.45 -32.5572C1273.57 -41.5093 1281.6 -79.1928 1280.17 -85Z" fill="#367D57"/>
<path d="M1214.61 -21.1871L1268.54 -3.6527C1268.57 -2.82103 1268.61 -2.33403 1268.31 -1.54469C1266.72 2.57975 1262.36 7.42401 1259.91 11.2569C1255.2 18.7034 1250.77 26.3145 1246.61 34.0902C1237.4 51.1955 1229.59 69.047 1220.57 86.2547C1212.58 101.458 1203.2 116.133 1194.65 131.04C1188.62 141.539 1183.06 153.398 1175.79 163.016C1169.55 171.256 1161.45 178.831 1154.21 186.214C1149.64 190.867 1144.7 196.991 1138.63 199.549C1139.06 199.12 1139.46 198.681 1139.87 198.24C1142.56 195.375 1166.63 118.483 1169.02 109.643C1175.93 84.2079 1180.21 58.4507 1189.19 33.5206C1192.04 25.6191 1195.5 17.7428 1199.07 10.1435C1201.6 4.75496 1214.33 -17.2516 1214.61 -21.1871Z" fill="#367D57"/>
<path d="M1193.57 -36.956L1226.04 9.53105C1225.57 10.2116 1225.31 10.6261 1224.59 11.0722C1220.83 13.4056 1214.44 14.6468 1210.17 16.2319C1201.92 19.3343 1193.8 22.7378 1185.8 26.4424C1168.14 34.5408 1151.16 44.0877 1133.58 52.3816C1118.05 59.7066 1101.72 65.7645 1085.91 72.5102C1074.78 77.257 1063.2 83.3744 1051.6 86.6674C1041.66 89.4896 1030.63 90.6532 1020.4 92.1818C1013.95 93.1447 1006.31 95.052 999.927 93.4368C1000.53 93.3537 1001.11 93.244 1001.71 93.1416C1005.58 92.4779 1071.12 45.6068 1078.36 39.9948C1099.2 23.8576 1118.13 5.87961 1140.32 -8.6074C1147.35 -13.1987 1154.85 -17.4028 1162.28 -21.3147C1167.55 -24.0917 1190.97 -33.9882 1193.57 -36.956Z" fill="#367D57"/>
<path d="M432.983 -69.5334L365.519 -52.9426C365.411 -51.929 365.315 -51.3378 365.617 -50.346C367.191 -45.1642 372.08 -38.855 374.726 -33.9527C379.82 -24.4319 384.555 -14.7353 388.93 -4.86291C398.66 16.8625 406.593 39.3728 416.082 61.2064C424.472 80.4971 434.624 99.2679 443.736 118.248C450.162 131.616 455.887 146.603 463.915 159.007C470.79 169.633 480.012 179.615 488.2 189.284C493.361 195.378 498.856 203.304 506.043 206.974C505.555 206.41 505.106 205.838 504.64 205.263C501.606 201.521 479.095 105.417 476.961 94.4016C470.797 62.7053 467.875 30.8513 459.137 -0.413254C456.367 -10.3225 452.851 -20.2554 449.165 -29.8606C446.558 -36.671 432.981 -64.6992 432.983 -69.5334Z" fill="#303289"/>
<path d="M496.761 -32.1013L457.815 -7.92842C457.954 -7.27024 458.014 -6.87973 458.406 -6.31908C460.451 -3.38882 464.806 -0.427541 467.466 2.1087C472.604 7.0434 477.553 12.1617 482.313 17.4635C492.85 29.1104 502.42 41.6162 512.828 53.3798C522.028 63.7723 532.227 73.4792 541.817 83.5296C548.576 90.6064 555.225 98.8419 562.793 104.987C569.275 110.252 577.097 114.634 584.208 119.031C588.689 121.801 593.754 125.653 599.012 126.49C598.591 126.236 598.193 125.968 597.783 125.702C595.115 123.973 561.385 68.2649 557.799 61.7888C547.465 43.1582 539.133 23.7674 527.272 5.9328C523.513 0.280283 519.28 -5.2348 515.008 -10.5097C511.983 -14.2511 497.746 -29.0678 496.761 -32.1013Z" fill="#303289"/>
<path d="M510.235 -48.5405L493.716 -5.78309C494.223 -5.3413 494.507 -5.06602 495.157 -4.8547C498.555 -3.74793 503.815 -4.00834 507.466 -3.58681C514.54 -2.7442 521.574 -1.64092 528.567 -0.277013C543.994 2.67016 559.166 6.88551 574.561 10.0032C588.165 12.7549 602.153 14.3573 615.863 16.6009C625.521 18.1769 635.79 20.7435 645.532 21.0887C653.877 21.3855 662.761 20.1695 671.085 19.3948C676.331 18.9061 682.694 18.9289 687.394 16.4285C686.905 16.4796 686.426 16.506 685.939 16.5407C682.768 16.768 622.284 -7.37202 615.519 -10.3799C596.047 -19.0235 577.714 -29.4796 557.503 -36.5678C551.096 -38.8141 544.395 -40.6656 537.807 -42.3017C533.139 -43.4651 512.849 -46.713 510.235 -48.5405Z" fill="#303289"/>
<path d="M889.358 712.07L836.407 699.048C836.322 698.252 836.246 697.788 836.483 697.01C837.719 692.943 841.556 687.991 843.633 684.143C847.631 676.67 851.347 669.059 854.782 661.311C862.418 644.259 868.645 626.591 876.093 609.454C882.678 594.313 890.646 579.58 897.798 564.682C902.842 554.19 907.335 542.427 913.636 532.691C919.032 524.351 926.27 516.517 932.697 508.927C936.748 504.144 941.061 497.923 946.702 495.043C946.319 495.485 945.967 495.934 945.601 496.386C943.219 499.323 925.551 574.754 923.875 583.399C919.038 608.277 916.744 633.279 909.886 657.818C907.712 665.596 904.952 673.392 902.059 680.931C900.013 686.276 889.357 708.275 889.358 712.07Z" fill="#303289"/>
<path d="M939.416 682.689L908.849 663.716C908.957 663.2 909.005 662.893 909.312 662.453C910.917 660.153 914.335 657.829 916.423 655.838C920.456 651.965 924.341 647.948 928.076 643.787C936.347 634.645 943.858 624.83 952.028 615.596C959.248 607.44 967.253 599.821 974.78 591.932C980.085 586.378 985.304 579.914 991.244 575.09C996.332 570.958 1002.47 567.519 1008.05 564.068C1011.57 561.893 1015.55 558.87 1019.67 558.214C1019.34 558.413 1019.03 558.623 1018.71 558.832C1016.61 560.188 990.139 603.913 987.324 608.996C979.214 623.619 972.674 638.839 963.365 652.837C960.414 657.274 957.091 661.602 953.738 665.743C951.364 668.679 940.19 680.309 939.416 682.689Z" fill="#303289"/>
<path d="M949.994 695.592L937.028 662.032C937.426 661.685 937.649 661.469 938.159 661.303C940.826 660.435 944.955 660.639 947.82 660.308C953.373 659.647 958.893 658.781 964.382 657.71C976.491 655.397 988.399 652.089 1000.48 649.642C1011.16 647.482 1022.14 646.224 1032.9 644.463C1040.48 643.226 1048.54 641.212 1056.19 640.941C1062.74 640.708 1069.71 641.662 1076.24 642.27C1080.36 642.654 1085.35 642.636 1089.04 644.599C1088.66 644.558 1088.28 644.538 1087.9 644.51C1085.41 644.332 1037.94 663.279 1032.63 665.64C1017.35 672.424 1002.96 680.631 987.094 686.195C982.065 687.958 976.806 689.411 971.635 690.695C967.971 691.608 952.046 694.157 949.994 695.592Z" fill="#303289"/>
<path d="M866.318 783.648L959.015 785.507C959.505 784.238 959.832 783.508 959.784 782.126C959.541 774.902 955.411 765.083 953.69 757.851C950.403 743.82 947.641 729.687 945.401 715.45C940.344 684.087 937.874 652.33 933.163 620.91C928.994 593.147 922.375 565.448 917.167 537.836C913.49 518.386 911.273 497.091 905.197 478.332C899.996 462.262 891.546 446.215 884.321 430.926C879.767 421.291 875.414 409.179 867.412 401.97C867.848 402.865 868.229 403.757 868.632 404.66C871.254 410.53 867.157 542.194 866.113 557.131C863.136 600.121 855.927 642.198 856.417 685.518C856.574 699.249 857.684 713.267 859.126 726.921C860.14 736.6 867.986 777.416 866.318 783.648Z" fill="#367D57"/>
<path d="M796.986 713.408L855.529 695.663C855.577 694.767 855.634 694.243 855.322 693.385C853.696 688.902 849.101 683.583 846.546 679.397C841.621 671.264 837.004 662.959 832.695 654.483C823.124 635.836 815.095 616.414 805.729 597.66C797.45 581.091 787.646 565.061 778.745 548.798C772.47 537.345 766.735 524.435 759.095 513.904C752.553 504.882 743.977 496.537 736.325 488.418C731.502 483.301 726.3 476.589 719.809 473.699C720.264 474.171 720.685 474.654 721.122 475.138C723.965 478.286 748.255 561.735 750.647 571.321C757.55 598.902 761.61 626.774 770.755 653.856C773.654 662.439 777.211 671.008 780.901 679.281C783.512 685.148 796.762 709.157 796.986 713.408Z" fill="#367D57"/>
<path d="M773.95 729.959L809.984 680.525C809.482 679.78 809.212 679.328 808.446 678.831C804.447 676.233 797.575 674.756 793.013 672.954C784.183 669.43 775.495 665.584 766.949 661.415C748.074 652.299 729.965 641.635 711.191 632.31C694.6 624.074 677.117 617.187 660.215 609.57C648.306 604.21 635.951 597.362 623.508 593.559C612.851 590.301 600.979 588.807 589.98 586.937C583.048 585.759 574.852 583.537 567.93 585.141C568.578 585.244 569.205 585.375 569.845 585.498C574.011 586.297 643.675 638.266 651.359 644.475C673.486 662.33 693.519 682.129 717.135 698.233C724.62 703.337 732.622 708.033 740.552 712.413C746.17 715.522 771.21 726.702 773.95 729.959Z" fill="#367D57"/>
<path d="M1424 -23H1694.28L1694.41 -21.225C1688.78 -9.703 1677.55 1.5281 1669.89 11.9784C1642.45 49.3743 1614.56 96.714 1572.59 119.173C1549.12 131.73 1514.82 135.876 1489.57 127.886C1432.9 109.949 1425.24 56.7876 1425.6 5.2319C1425.65 -1.5595 1427.65 -16.6239 1424.32 -22.4926C1424.22 -22.6667 1424.1 -22.8309 1424 -23Z" fill="#E84845"/>
<path d="M1928 -23H1762.08L1762 -21.9119C1765.46 -14.8489 1772.35 -7.96426 1777.05 -1.55822C1793.9 21.3655 1811.02 50.3847 1836.78 64.1521C1851.19 71.8496 1872.25 74.3911 1887.75 69.4932C1922.54 58.4978 1927.24 25.9098 1927.02 -5.69383C1926.99 -9.85696 1925.76 -19.0914 1927.8 -22.689C1927.86 -22.7957 1927.94 -22.8963 1928 -23Z" fill="#E84845"/>
<path d="M1658.18 -134.72L1712.11 -117.186C1712.14 -116.354 1712.18 -115.867 1711.88 -115.078C1710.29 -110.953 1705.93 -106.109 1703.48 -102.276C1698.77 -94.8298 1694.34 -87.2187 1690.18 -79.443C1680.97 -62.3377 1673.16 -44.4862 1664.14 -27.2785C1656.15 -12.0753 1646.77 2.5995 1638.22 17.5071C1632.19 28.0058 1626.63 39.8643 1619.36 49.483C1613.12 57.723 1605.02 65.2981 1597.78 72.6811C1593.21 77.3339 1588.27 83.4578 1582.2 86.0161C1582.63 85.5867 1583.03 85.1476 1583.44 84.707C1586.13 81.842 1610.2 4.94986 1612.59 -3.88995C1619.5 -29.3253 1623.78 -55.0825 1632.76 -80.0126C1635.61 -87.9141 1639.07 -95.7904 1642.64 -103.39C1645.17 -108.778 1657.9 -130.785 1658.18 -134.72Z" fill="#367D57"/>
<path d="M290.032 326.494C311.349 272.499 336.17 220.328 358.956 167C383.278 204.083 404.668 242.919 425.571 281.999C455.418 338.217 483.966 395.087 511.213 452.61C521.443 474.087 530.638 496.102 541.151 517.429C554.501 544.52 571.155 569.452 585.679 595.849C599.938 621.757 611.8 649.343 623 676.704H474.269H430.707H378.031C366.111 665.156 353.526 648.488 343.171 635.264L298.777 576.983C285.029 558.794 271.003 540.819 256.7 523.058C248.982 513.788 241.43 504.383 234.045 494.843L227.703 486.497C233.729 467.567 242.007 448.843 249.171 430.278C262.422 395.537 276.042 360.942 290.032 326.494Z" fill="#367D57"/>
<path d="M290.032 326.494C302.013 335.128 358.64 440.485 369.087 458.829C386.061 488.634 404.434 517.423 419.679 548.196C438.168 585.51 455.589 623.968 469.468 663.242C471.111 667.714 472.795 672.174 474.269 676.704H430.707H378.031C366.111 665.157 353.526 648.489 343.171 635.264L298.777 576.983C285.029 558.794 271.003 540.819 256.7 523.058C248.982 513.788 241.43 504.383 234.045 494.843L227.703 486.498C233.729 467.567 242.007 448.844 249.171 430.279C262.422 395.538 276.042 360.943 290.032 326.494Z" fill="#16175C"/>
<path d="M430.707 676.704C439.685 670.233 458.483 666.089 469.468 663.242C471.111 667.714 472.795 672.174 474.269 676.704H430.707Z" fill="#071FF5"/>
<path d="M234.047 494.842C238.509 487.857 246.371 469.24 254.47 467.147C255.847 466.791 256.511 467.115 257.823 467.527C260.67 469.995 261.36 473.488 261.632 477.086C262.035 482.431 258.199 520.211 256.702 523.058C248.984 513.788 241.433 504.382 234.047 494.842Z" fill="#071FF5"/>
<path d="M298.777 576.983C313.52 564.054 363.165 522.884 380.851 524.253C383.154 524.433 385.442 525.255 386.977 527.048C389.899 530.454 389.759 536.378 389.32 540.568C387.147 561.323 355.407 614.74 343.171 635.264L298.777 576.983Z" fill="#071FF5"/>
<path d="M-9.43557 183.92C-2.23714 194.986 5.92565 205.372 13.646 216.07C27.1895 234.837 40.5261 253.601 55.2668 271.467C64.5012 282.66 74.5324 293.181 83.7771 304.366C93.0815 315.622 101.636 327.493 110.795 338.87C126.314 358.148 142.377 377.006 158.051 396.164C166.352 406.217 174.522 416.376 182.561 426.641C185.638 430.585 191.119 439.263 194.523 442.009C195.008 441.7 195.346 441.555 195.645 441.052C192.643 482.511 191.195 516.446 201.558 557.185L218.677 510.656C221.637 502.63 224.288 494.322 227.704 486.497L234.046 494.842C241.432 504.382 248.983 513.787 256.701 523.058C271.004 540.818 285.03 558.793 298.779 576.982L343.172 635.264C353.527 648.488 366.113 665.156 378.032 676.703H139.369H-51V666.602V485.832V444.745V250.636L-49.7974 250.595L-49.5144 249.595C-34.9138 228.545 -22.4132 205.995 -9.43557 183.92Z" fill="#367D57"/>
<path d="M-51 485.832L-49.3393 487.274L-47.1522 488.006C-31.6179 494.791 -16.5542 502.874 -1.02596 509.512C3.96362 512.597 15.5905 529.548 20.1065 535.048L95.6846 627.174C109.648 644.035 124.563 660.587 139.369 676.703H-51V666.602V485.832Z" fill="#D2809B"/>
<path d="M1515.97 681.58C1516.02 681.4 1516.1 681.22 1516.13 681.03C1514.55 677.23 1511.55 672.45 1509.38 669.47C1504.55 662.81 1500.24 655.5 1494.83 649.31C1484.2 637.17 1471.43 626.91 1460.71 614.78C1452.24 605.2 1444.54 594.92 1437.14 584.5C1418.84 558.71 1403.54 531.69 1389.16 503.56C1382.66 490.87 1375.16 470.87 1367 460C1385.2 465.61 1403.09 476.77 1420.1 485.45C1448.2 499.997 1476.54 514.05 1505.13 527.61L1659.46 598.66L1711.69 622.15C1720.58 626.16 1730.39 629.82 1738.79 634.74C1750.96 639.9 1826.83 676.05 1830.94 680.85L1831.05 681.58H1515.97Z" fill="#071FF5"/>
<path d="M24.2302 474.593L3 451.783V747H8.87796V725.168C17.37 721.258 37.4244 712.721 49.7052 709.854C65.0563 706.269 83.3469 726.798 96.7383 725.168C110.13 723.539 96.7383 692.909 89.2272 680.527C83.2184 670.622 33.1574 664.452 8.87796 662.606V635.561H40.2333C56.2364 635.561 68.9757 656.089 96.7383 674.336C124.501 692.584 145.078 682.157 153.571 674.336C162.064 666.516 162.715 633.28 153.571 614.706C144.427 596.133 130.708 575.931 96.7383 566.481C69.5627 558.922 26.8416 577.886 8.87796 588.313C9.74893 585.815 12.5361 577.951 16.7168 566.481C21.9427 552.144 43.4995 541.391 61.4647 537.807C79.4299 534.222 111.716 568.463 130.708 566.481C153.571 564.095 160.683 558.061 170.809 545.353C180.934 532.645 176.791 488.028 153.571 474.593C130.707 461.363 86.2877 467.859 61.4647 474.593C64.8397 468.945 75.1173 454.651 89.2272 442.66C106.865 427.671 130.708 385.962 130.708 361.524C130.708 337.086 117.316 316.883 89.2272 310.04C61.138 303.198 46.1136 331.22 30.1093 361.524C17.3059 385.767 20.8551 447.004 24.2302 474.593Z" fill="#FF6601"/>
<path d="M970.66 234.434L960.521 223.46L959.999 365.009L962.817 365.019L962.856 354.552C966.934 352.692 976.565 348.634 982.458 347.281C989.825 345.589 998.559 355.465 1004.98 354.707C1011.41 353.95 1005.04 339.24 1001.46 333.29C998.597 328.529 974.605 325.483 962.966 324.555L963.014 311.587L978.048 311.643C985.721 311.671 991.793 321.536 1005.07 330.334C1018.35 339.133 1028.24 334.17 1032.32 330.435C1036.41 326.7 1036.78 310.766 1032.43 301.844C1028.08 292.923 1021.53 283.212 1005.26 278.621C992.247 274.948 971.729 283.965 963.098 288.933C963.52 287.737 964.87 283.971 966.895 278.479C969.426 271.614 979.781 266.497 988.401 264.81C997.021 263.123 1012.44 279.598 1021.55 278.681C1032.52 277.577 1035.94 274.697 1040.82 268.622C1045.69 262.546 1043.79 241.146 1032.68 234.663C1021.74 228.279 1000.43 231.315 988.513 234.5C990.141 231.798 995.094 224.963 1001.88 219.238C1010.36 212.083 1021.87 192.127 1021.91 180.409C1021.96 168.692 1015.57 158.982 1002.12 155.651C988.66 152.32 981.406 165.73 973.679 180.231C967.497 191.833 969.091 221.201 970.66 234.434Z" fill="#367D57"/>
</g>
<defs>
<clipPath id="clip0_2905_1885">
<rect width="1920" height="676" fill="white"/>
</clipPath>
</defs>
</svg>
