<svg width="750" height="574" viewBox="0 0 750 574" fill="none" xmlns="http://www.w3.org/2000/svg">
<path d="M522.059 494.104C529.054 491.138 536.105 488.29 543.155 485.441C550.215 482.589 557.274 479.737 564.277 476.767C572.201 473.408 580.097 469.985 587.995 466.561C598.442 462.033 608.89 457.504 619.401 453.121L522.059 494.104ZM522.059 494.104C475.242 514.208 428.276 533.962 381.163 553.363L522.059 494.104ZM406.632 12.8143L406.631 12.8138C405.069 12.1659 402.896 11.207 400.406 10.1077L399.632 9.76607C396.815 8.52315 393.641 7.12784 390.487 5.80237C387.333 4.47655 384.205 3.22307 381.48 2.26311C378.799 1.31841 376.549 0.673132 375.054 0.507375C368.709 2.31887 362.492 5.07016 356.337 7.79459C354.349 8.67429 352.368 9.55119 350.391 10.3927C345.02 12.6787 339.602 14.8824 334.187 17.0844C329.933 18.8146 325.682 20.5436 321.458 22.3108L321.455 22.312L228.875 60.357L228.872 60.3581L88.0163 117.261L88.0099 117.264C58.8026 128.602 29.6807 140.155 0.644172 151.924C0.478367 159.501 0.557859 167.092 0.637385 174.686C0.67234 178.024 0.707302 181.363 0.721443 184.701L0.72145 184.703L0.77301 234.608L0.77301 234.608L0.774803 398.832C9.00957 403.034 17.4846 406.455 26.0241 409.901C28.5403 410.917 31.0622 411.935 33.5852 412.976L33.5894 412.977C48.5426 419.305 63.5525 425.495 78.6192 431.547L78.4328 432.011L78.6194 431.547C84.4414 433.889 90.2322 436.383 96.0165 438.876C100.702 440.894 105.384 442.911 110.075 444.844L406.632 12.8143ZM406.632 12.8143L454.041 32.3248L454.043 32.3256M406.632 12.8143L454.043 32.3256M454.043 32.3256L579.166 83.22L579.167 83.2206M454.043 32.3256L579.167 83.2206M579.167 83.2206C585.787 85.8927 592.409 88.5472 599.03 91.201C619.055 99.2275 639.062 107.247 658.919 115.725C661.63 116.882 669.566 120.099 679.62 124.173C687.489 127.363 696.655 131.078 705.628 134.743C715.851 138.918 725.825 143.03 733.356 146.229C737.122 147.829 740.273 149.2 742.537 150.235C743.67 150.754 744.576 151.185 745.224 151.519C745.548 151.686 745.802 151.825 745.984 151.936C746.134 152.027 746.206 152.081 746.232 152.102C746.258 152.143 746.28 152.177 746.3 152.208C746.386 152.343 746.42 152.396 746.473 152.538L746.475 152.542M579.167 83.2206L746.475 152.542M746.475 152.542C746.507 152.624 746.554 152.853 746.6 153.275C746.645 153.678 746.684 154.206 746.718 154.848C746.786 156.132 746.833 157.844 746.863 159.853C746.922 163.869 746.914 169.052 746.876 174.318C746.831 180.587 746.744 186.981 746.681 191.65C746.638 194.817 746.606 197.19 746.605 198.193L746.632 309.829C746.642 320.657 746.718 331.489 746.794 342.321C746.924 360.818 747.054 379.314 746.855 397.791V397.793M746.475 152.542L746.855 397.793M746.855 397.793C746.85 398.627 746.812 399.102 746.492 399.77L746.855 397.793Z" stroke="#FE6501"/>
<path d="M457.292 297.813C457.628 297.758 457.958 297.703 458.259 297.644C458.395 297.639 458.531 297.631 458.644 297.624C458.717 297.62 458.781 297.617 458.83 297.614C458.987 297.608 459.081 297.61 459.159 297.623C459.267 297.641 459.393 297.686 459.653 297.88C459.677 298.25 459.667 298.336 459.641 298.404C459.628 298.439 459.6 298.49 459.516 298.597C459.46 298.667 459.395 298.743 459.311 298.842C459.277 298.882 459.24 298.925 459.2 298.973C458.41 299.364 457.72 299.244 456.738 299.073C456.587 299.047 456.428 299.02 456.261 298.993C456.039 298.952 455.838 298.922 455.647 298.893C455.34 298.847 455.061 298.806 454.772 298.733C454.589 298.688 454.42 298.633 454.262 298.564C454.692 298.37 455.205 298.22 455.766 298.095C456.195 298 456.636 297.923 457.068 297.851C457.143 297.838 457.218 297.826 457.292 297.813Z" stroke="#EBA661"/>
<path d="M363.333 311.507C363.336 311.416 363.339 311.322 363.342 311.224C363.568 311.258 363.809 311.293 364.062 311.33C364.963 311.461 366.014 311.613 367.056 311.825C367.847 311.987 368.6 312.177 369.233 312.407C369.549 312.522 369.822 312.643 370.049 312.767C369.693 312.862 369.309 312.975 368.914 313.091C368.807 313.123 368.699 313.155 368.591 313.187C368 313.36 367.389 313.533 366.783 313.667C365.616 313.927 364.565 314.02 363.783 313.767C363.281 313.022 363.301 312.439 363.333 311.507Z" stroke="#EBA661"/>
<path d="M469.216 297.815L469.193 297.818L469.171 297.824C467.98 298.107 467.017 298.329 465.874 298.289C465.479 298.06 465.301 297.957 465.154 297.82C465.03 297.704 464.916 297.55 464.732 297.212L464.91 296.666C465.353 296.295 465.64 296.134 465.94 296.034C466.226 295.939 466.532 295.894 467.026 295.822C467.133 295.806 467.249 295.789 467.376 295.77C467.515 295.776 467.654 295.781 467.791 295.786C469.663 295.859 471.301 295.922 472.813 296.809L472.808 296.855C471.847 297.457 470.867 297.59 469.645 297.756C469.505 297.775 469.363 297.795 469.216 297.815Z" stroke="#EBA661"/>
<path d="M310.229 301.65C310.348 302.007 310.46 302.34 310.562 302.632C306.652 301.196 302.629 300.153 298.611 299.183L298.598 299.18L298.585 299.177C296.713 298.827 294.854 298.362 292.985 297.895C292.98 297.894 292.975 297.892 292.97 297.891C297.17 297.146 301.519 295.857 305.556 294.66C306.138 294.488 306.713 294.318 307.28 294.151C307.389 294.135 307.469 294.12 307.526 294.11C307.535 294.108 307.543 294.107 307.551 294.105C307.566 294.102 307.577 294.101 307.586 294.099C307.588 294.1 307.59 294.1 307.592 294.101C307.618 294.11 307.644 294.119 307.679 294.131C307.7 294.177 307.724 294.235 307.753 294.306C307.847 294.539 307.97 294.876 308.115 295.29C308.405 296.115 308.772 297.222 309.148 298.366C309.256 298.695 309.365 299.027 309.473 299.356C309.739 300.169 310 300.964 310.229 301.65Z" stroke="#EBA661"/>
<path d="M334.939 304.172C334.907 304.244 334.875 304.317 334.843 304.391C334.645 304.847 334.438 305.323 334.204 305.763C333.856 306.418 333.419 307.054 332.781 307.572C332.708 307.632 332.634 307.692 332.56 307.753C332.521 307.784 332.482 307.816 332.443 307.848C332.566 307.892 332.706 307.939 332.861 307.99C333.517 308.204 334.418 308.463 335.495 308.752C337.647 309.33 340.472 310.022 343.371 310.709C346.875 311.541 350.499 312.367 353.146 312.971C354.858 313.362 356.161 313.659 356.761 313.805L357.557 313.97C357.737 313.794 357.831 313.658 357.893 313.521C357.979 313.331 358.024 313.095 358.072 312.66L334.939 304.172ZM334.939 304.172C336.428 304.544 337.924 304.911 339.424 305.279C345.7 306.821 352.028 308.375 358.113 310.327C358.115 310.444 358.117 310.561 358.119 310.677C358.131 311.36 358.142 312.024 358.072 312.66L334.939 304.172Z" stroke="#EBA661"/>
<path d="M364.353 334.306L364.337 334.309L364.322 334.312C364.049 334.381 363.932 334.401 363.831 334.404C363.777 334.405 363.721 334.402 363.64 334.391C363.46 333.775 363.342 332.849 363.279 331.705C363.207 330.402 363.207 328.872 363.241 327.307C363.276 325.743 363.344 324.153 363.407 322.731C363.411 322.64 363.415 322.55 363.419 322.461C363.469 321.343 363.513 320.336 363.532 319.548C365.204 319.12 366.892 318.76 368.592 318.398C368.868 318.339 369.143 318.281 369.419 318.221C369.558 318.2 369.693 318.177 369.808 318.157C369.876 318.145 369.937 318.135 369.988 318.127C370.145 318.101 370.255 318.089 370.353 318.089C370.485 318.089 370.628 318.112 370.861 318.216C371.306 321.622 371.186 325.282 371.068 328.892C371.022 330.305 370.976 331.71 370.964 333.089L364.353 334.306Z" stroke="#EBA661"/>
<path d="M368.7 338.922C369.323 338.796 369.947 338.669 370.57 338.536C370.623 338.756 370.673 339.058 370.717 339.442C370.781 340.005 370.828 340.704 370.861 341.502C370.926 343.097 370.933 345.058 370.913 347.06C370.89 349.273 370.834 351.559 370.788 353.428C370.757 354.671 370.731 355.73 370.722 356.462C368.961 356.905 367.189 357.305 365.411 357.706C364.804 357.843 364.197 357.981 363.589 358.12C363.561 357.991 363.534 357.831 363.508 357.638C363.441 357.134 363.388 356.452 363.348 355.641C363.268 354.021 363.24 351.922 363.238 349.773C363.237 347.625 363.262 345.434 363.288 343.629C363.298 343.001 363.307 342.418 363.315 341.901C363.326 341.185 363.335 340.593 363.34 340.176C365.078 339.656 366.884 339.29 368.7 338.922Z" stroke="#EBA661"/>
<path d="M399.884 135.992L399.882 135.989C397.445 132.036 396.551 126.646 397.645 122.133C398.627 118.083 400.689 115.418 404.162 113.26L404.323 113.316C404.537 114.351 404.672 116.138 404.746 118.385C404.826 120.813 404.834 123.727 404.809 126.698C404.783 129.822 404.719 133.023 404.665 135.773C404.626 137.721 404.592 139.443 404.579 140.752C403.771 140.178 402.995 139.558 402.205 138.926C402.051 138.803 401.896 138.679 401.74 138.555C401.052 137.751 400.433 136.897 399.884 135.992Z" stroke="#EBA661"/>
<path d="M444.104 326.028L444.275 300.282C445.433 300.34 446.59 300.405 447.748 300.478L447.945 341.603C446.821 341.308 445.688 341.05 444.565 340.793C444.44 340.765 444.315 340.736 444.19 340.708C443.937 337.143 443.996 333.52 444.055 329.898C444.076 328.607 444.097 327.317 444.104 326.029C444.104 326.029 444.104 326.029 444.104 326.028Z" stroke="#EBA661"/>
<path d="M336.112 113.78C336.788 114.014 337.436 114.256 337.998 114.6L337.998 114.6C340.926 116.386 342.832 120.236 343.447 123.609L343.447 123.609C344.508 129.43 343.561 134.751 340.208 139.537C339.044 140.773 337.599 141.686 336.106 142.63C336.094 142.637 336.083 142.644 336.072 142.651C335.432 133.297 335.682 123.176 336.112 113.78Z" stroke="#EBA661"/>
<path d="M598.255 319.141C602.382 318.096 606.767 316.776 610.523 314.878C611.917 314.648 613.683 314.713 615.667 314.98C617.68 315.25 619.886 315.723 622.105 316.278C624.324 316.833 626.548 317.469 628.598 318.062C628.857 318.137 629.113 318.212 629.366 318.285C630.68 318.666 631.911 319.024 633.003 319.321C632.615 319.548 632.127 319.799 631.566 320.065C630.435 320.602 629.03 321.191 627.586 321.76C624.718 322.891 621.727 323.933 620.494 324.32C620.241 324.365 619.756 324.355 619.031 324.266C618.306 324.177 617.4 324.018 616.364 323.806C614.292 323.382 611.73 322.754 609.113 322.074C606.412 321.372 603.641 320.613 601.306 319.973C600.165 319.66 599.128 319.376 598.255 319.141Z" stroke="#EBA661"/>
<path d="M481.872 299.82C482.25 299.754 482.631 299.688 483.013 299.616L483.092 299.631C483.122 299.725 483.158 299.861 483.196 300.047C483.265 300.388 483.328 300.839 483.384 301.392C483.497 302.496 483.582 303.97 483.642 305.703C483.764 309.168 483.79 313.64 483.769 318.206C483.74 324.582 483.62 331.111 483.543 335.34C483.514 336.914 483.491 338.17 483.481 338.98L479.63 340.173L479.316 340.036C479.225 339.62 479.143 338.908 479.077 337.92C478.998 336.76 478.944 335.272 478.907 333.555C478.835 330.122 478.837 325.79 478.869 321.358C478.898 317.461 478.951 313.482 478.997 309.974C479.052 305.81 479.098 302.309 479.085 300.394C479.985 300.148 480.92 299.985 481.872 299.82Z" stroke="#EBA661"/>
<path d="M121.631 301.857L121.639 301.855L121.647 301.854C122.667 301.645 124.181 301.756 126.007 302.1C127.817 302.442 129.873 302.999 131.949 303.638C134.603 304.454 137.238 305.384 139.424 306.156C139.987 306.355 140.521 306.543 141.018 306.716C137.305 307.591 133.584 308.413 129.86 309.236C127.053 309.856 124.244 310.477 121.434 311.121L121.416 311.125L121.399 311.13C121.341 311.148 121.284 311.166 121.228 311.183C120.672 311.355 120.145 311.518 119.629 311.578C119.47 311.596 119.082 311.557 118.447 311.43C117.839 311.307 117.066 311.117 116.181 310.876C114.411 310.394 112.214 309.715 110.024 308.987C107.834 308.259 105.657 307.484 103.927 306.81C103.061 306.473 102.311 306.162 101.73 305.898C101.603 305.84 101.487 305.786 101.381 305.734C102.221 305.396 103.325 305.067 104.613 304.752C106.383 304.319 108.455 303.923 110.572 303.563C112.687 303.204 114.839 302.882 116.77 302.598C117.005 302.563 117.237 302.529 117.465 302.495C119.107 302.254 120.558 302.041 121.631 301.857Z" stroke="#72C2E9"/>
<path d="M363.375 305.92L363.333 275.452C365.9 275.927 368.475 276.279 371.047 276.625L371.055 307.499C369.074 307.185 367.106 306.747 365.128 306.307C364.545 306.177 363.961 306.047 363.375 305.92Z" stroke="#EBA661"/>
<path d="M320.472 120.983L320.472 120.983C322.613 116.742 325.728 114.829 330.18 113.379L330.232 113.4C330.353 113.802 330.462 114.424 330.55 115.251C330.653 116.214 330.726 117.41 330.774 118.769C330.869 121.487 330.863 124.834 330.811 128.233C330.742 132.691 330.593 137.191 330.484 140.486C330.439 141.832 330.402 142.978 330.378 143.837C327.998 142.964 325.87 141.895 323.813 140.383C321.764 138.514 320.304 136.3 319.433 133.668L318.959 133.825L319.433 133.668C318.045 129.474 318.48 124.927 320.472 120.983Z" stroke="#EBA661"/>
<path d="M453.092 312.998C453.07 309.396 453.048 305.77 453.437 302.278C453.664 302.294 453.896 302.308 454.13 302.322C454.949 302.371 455.804 302.423 456.645 302.566C457.827 302.766 458.83 303.13 459.48 303.818C460.006 308.798 459.874 314.066 459.743 319.275C459.685 321.586 459.627 323.884 459.627 326.141C459.628 327.818 459.686 329.674 459.745 331.587C459.788 332.94 459.831 334.321 459.855 335.685C459.91 338.8 459.868 341.864 459.506 344.473C457.91 344.168 456.323 343.788 454.727 343.406C454.12 343.26 453.512 343.115 452.901 342.973L453.097 316.792C453.097 316.792 453.097 316.792 453.097 316.792C453.107 315.535 453.099 314.268 453.092 312.998Z" stroke="#EBA661"/>
<path d="M388.833 328.488C384.798 329.488 380.767 330.487 376.707 331.426L376.681 314.215C378.78 314.534 380.906 315.085 383.034 315.636C384.148 315.924 385.262 316.213 386.372 316.468C392.275 317.869 398.213 319.096 404.187 320.148L404.264 324.553L399.021 326.002C395.608 326.808 392.219 327.648 388.833 328.488Z" stroke="#EBA661"/>
<path d="M323.313 285.556L323.313 285.556L323.328 285.555C326.53 285.368 329.736 285.294 332.943 285.332C332.991 287.617 332.895 291.197 332.419 294.642C332.164 296.489 331.803 298.284 331.302 299.812C330.797 301.351 330.169 302.568 329.411 303.312C329.103 303.614 328.654 303.841 328.082 304.002C327.512 304.161 326.851 304.246 326.154 304.285C325.222 304.337 324.291 304.308 323.449 304.281C323.02 304.268 322.614 304.255 322.243 304.254C320.079 303.925 318.148 303.504 316.118 302.768C313.289 297.283 313.268 291.821 313.381 285.677C316.693 285.696 320.004 285.655 323.313 285.556Z" stroke="#EBA661"/>
<path d="M472.586 302.24L472.597 302.238L472.608 302.236C472.76 302.204 472.937 302.194 473.145 302.194C473.231 302.194 473.318 302.196 473.408 302.198C473.416 302.252 473.425 302.314 473.433 302.383C473.471 302.691 473.505 303.116 473.534 303.648C473.592 304.711 473.631 306.168 473.656 307.903C473.706 311.371 473.698 315.926 473.672 320.601C473.659 323.002 473.641 325.436 473.624 327.771C473.577 334.101 473.535 339.7 473.609 341.921C470.974 342.724 468.345 343.544 465.721 344.382C465.532 344.436 465.353 344.436 465.11 344.43C465.091 344.341 465.072 344.235 465.053 344.109C465 343.764 464.952 343.303 464.909 342.738C464.823 341.609 464.759 340.091 464.714 338.302C464.623 334.726 464.607 330.089 464.631 325.359C464.677 316.281 464.872 306.878 464.976 303.989C467.451 303.083 469.924 302.672 472.586 302.24Z" stroke="#EBA661"/>
<path d="M423.497 117.287C423.347 117.083 423.192 116.884 423.033 116.688C422.873 116.492 422.708 116.301 422.539 116.113L423.497 117.287ZM423.497 117.287C423.647 117.49 423.792 117.697 423.931 117.908L423.497 117.287ZM421.661 115.914L421.661 115.914L421.663 115.917C421.836 116.09 422.004 116.267 422.168 116.448L422.168 116.448C422.332 116.63 422.491 116.815 422.645 117.004C422.8 117.193 422.95 117.387 423.095 117.583L423.095 117.584C423.24 117.78 423.379 117.98 423.514 118.184L423.515 118.185C423.65 118.388 423.779 118.595 423.904 118.805C424.029 119.015 424.148 119.229 424.262 119.445C424.376 119.661 424.485 119.879 424.587 120.101L424.588 120.101C424.691 120.323 424.788 120.547 424.88 120.773C424.972 121 425.059 121.228 425.139 121.459C425.22 121.69 425.295 121.922 425.364 122.156L425.364 122.157C425.433 122.391 425.496 122.627 425.553 122.865C425.611 123.103 425.662 123.342 425.708 123.582C425.753 123.822 425.792 124.063 425.826 124.305L425.826 124.305C425.859 124.547 425.886 124.79 425.908 125.033C425.929 125.276 425.944 125.52 425.953 125.765C425.962 126.009 425.965 126.254 425.963 126.498L425.963 126.499C425.913 131.143 423.94 134.918 420.626 138.134C417.024 141.1 414.146 141.902 409.667 142.581C409.661 139.252 409.615 135.917 409.568 132.582C409.47 125.482 409.371 118.382 409.66 111.333C414.319 111.392 418.352 112.55 421.661 115.914Z" stroke="#EBA661"/>
<path d="M161.832 307.343C162.828 307.184 163.825 307.025 164.819 306.854L165.035 306.999C165.218 310.417 165.188 313.873 165.158 317.331C165.145 318.815 165.132 320.299 165.136 321.781L165.122 349.982C162.714 350.656 160.272 351.236 157.825 351.818C156.802 352.06 155.779 352.304 154.757 352.554L154.582 352.517C154.568 352.436 154.555 352.335 154.541 352.215C154.502 351.872 154.468 351.397 154.437 350.803C154.376 349.617 154.332 347.984 154.302 346.041C154.243 342.158 154.24 337.054 154.264 331.846C154.294 325.03 154.369 318.014 154.419 313.349C154.441 311.245 154.459 309.62 154.465 308.706C156.871 308.135 159.349 307.739 161.832 307.343Z" stroke="#72C2E9"/>
<path d="M409.688 344.562L409.624 344.577L409.566 344.609C409.457 344.668 409.396 344.678 409.334 344.68C409.306 344.682 409.275 344.681 409.235 344.68C408.98 343.904 408.82 342.862 408.732 341.641C408.634 340.265 408.632 338.703 408.676 337.111C408.72 335.52 408.809 333.909 408.894 332.436C408.9 332.334 408.906 332.232 408.912 332.131C408.98 330.945 409.043 329.855 409.072 328.957C415.257 326.985 421.528 325.423 427.82 323.856C431.186 323.017 434.559 322.177 437.928 321.272C438.142 321.268 438.332 321.315 438.596 321.38C438.813 322.044 438.956 323.039 439.035 324.264C439.124 325.626 439.131 327.217 439.1 328.839C439.068 330.46 438.997 332.104 438.931 333.573C438.924 333.73 438.916 333.886 438.909 334.039C438.861 335.112 438.817 336.078 438.797 336.844C433.96 337.812 429.164 339.144 424.389 340.52C423.656 340.731 422.924 340.943 422.192 341.155C418.021 342.364 413.864 343.568 409.688 344.562Z" stroke="#EBA661"/>
<path d="M392.76 332.903C396.536 331.976 400.315 331.047 404.088 330.076C404.265 330.761 404.381 331.881 404.444 333.294C404.514 334.877 404.515 336.762 404.483 338.678C404.451 340.592 404.387 342.529 404.326 344.214C404.314 344.542 404.303 344.861 404.291 345.168C404.252 346.252 404.217 347.194 404.2 347.898C397.531 350.518 390.384 352.127 383.286 353.726C381.213 354.193 379.143 354.659 377.091 355.149C377.021 354.978 376.942 354.699 376.871 354.291C376.776 353.751 376.704 353.058 376.653 352.252C376.549 350.642 376.527 348.622 376.545 346.552C376.562 344.484 376.619 342.376 376.673 340.592C376.683 340.233 376.694 339.887 376.704 339.557C376.737 338.49 376.765 337.587 376.775 336.957C382.081 335.527 387.418 334.216 392.76 332.903Z" stroke="#EBA661"/>
<path d="M371.158 255.642C371.126 262.94 371.102 268.734 371.1 271.063L365.232 270.177L365.221 270.175L365.211 270.174C364.82 270.132 364.439 270.034 364.025 269.926C363.927 269.901 363.827 269.875 363.724 269.849C363.688 269.798 363.652 269.748 363.619 269.703C363.591 269.664 363.565 269.628 363.544 269.598C363.464 269.484 363.41 269.395 363.377 269.312C363.377 269.308 363.376 269.302 363.375 269.295C363.37 269.26 363.365 269.209 363.36 269.138C363.349 268.998 363.338 268.801 363.328 268.549C363.307 268.044 363.29 267.335 363.275 266.446C363.245 264.669 363.225 262.187 363.213 259.221C363.19 253.288 363.198 245.425 363.22 237.408C363.245 228.093 363.288 218.568 363.319 211.624C363.339 207.151 363.355 203.749 363.357 202.164L370.291 202.005L371.024 202.014C371.043 202.031 371.06 202.046 371.074 202.06C371.1 202.083 371.121 202.102 371.145 202.126C371.181 202.16 371.202 202.183 371.214 202.199C371.216 202.227 371.218 202.265 371.221 202.313C371.227 202.445 371.233 202.636 371.239 202.883C371.251 203.376 371.26 204.083 371.267 204.977C371.282 206.763 371.289 209.285 371.29 212.313C371.292 218.37 371.271 226.449 371.242 234.706C371.216 241.963 371.184 249.36 371.158 255.642Z" stroke="#EBA661"/>
<path d="M310.703 281.026L310.567 281.074L310.477 281.186C308.638 283.484 308.301 285.349 307.943 288.014C303.996 288.582 300.057 289.574 296.142 290.614C295.549 290.772 294.956 290.93 294.365 291.089C290.917 292.013 287.49 292.931 284.063 293.599L284.063 293.599L284.056 293.601C284.005 293.611 283.954 293.622 283.903 293.633C283.463 293.726 283.042 293.815 282.633 293.839C282.281 293.86 281.977 293.829 281.717 293.728C281.152 288.698 281.374 283.227 281.586 278.018C281.614 277.317 281.642 276.622 281.668 275.932C284.475 275.416 287.295 274.963 290.121 274.51L290.136 274.507C293.087 274.033 296.046 273.558 298.992 273.01C300.861 272.663 302.724 272.292 304.585 271.921C309.356 270.972 314.114 270.025 318.919 269.479C319.588 269.407 320.108 269.403 320.742 269.479C321.006 269.896 321.194 270.486 321.31 271.223C321.44 272.051 321.471 273.012 321.45 274.011C321.43 275.008 321.358 276.027 321.285 276.972C321.276 277.091 321.267 277.209 321.258 277.325C321.211 277.936 321.166 278.513 321.141 279.016C317.571 279.304 314.151 279.824 310.703 281.026Z" stroke="#EBA661"/>
<path d="M336.881 299.426C340.208 300.357 343.575 301.144 346.956 301.926C347.161 301.973 347.366 302.021 347.571 302.068C350.861 302.828 354.163 303.591 357.434 304.481L357.737 304.409C357.969 303.092 358.006 301.589 357.979 300.042C357.966 299.338 357.939 298.613 357.913 297.896C357.878 296.947 357.844 296.014 357.844 295.165C357.844 295.165 357.844 295.165 357.844 295.165L357.826 274.343C353.248 273.764 348.692 272.845 344.156 271.929C343.576 271.812 342.996 271.695 342.416 271.579C337.329 270.559 332.263 269.598 327.169 269.165C327.162 270.173 327.152 271.18 327.142 272.186C327.12 274.473 327.097 276.755 327.108 279.039C327.497 279.062 327.934 279.079 328.407 279.098C328.638 279.107 328.878 279.116 329.125 279.127C330.079 279.168 331.128 279.226 332.156 279.348C333.18 279.47 334.201 279.658 335.093 279.967C335.98 280.274 336.784 280.715 337.328 281.372L336.881 299.426ZM336.881 299.426C336.89 299.386 336.9 299.347 336.911 299.304C336.924 299.255 336.937 299.205 336.95 299.156C337.168 298.313 337.392 297.449 337.528 296.554C337.56 296.34 337.598 296.099 337.64 295.833C337.903 294.15 338.316 291.507 338.48 288.914C338.575 287.413 338.588 285.909 338.435 284.605C338.285 283.319 337.965 282.143 337.328 281.372L336.881 299.426Z" stroke="#EBA661"/>
<path d="M637.902 323.289C633.508 325.364 628.133 327.805 623.371 329.1C623.408 329.243 623.441 329.397 623.472 329.559C623.554 329.986 623.625 330.512 623.687 331.12C623.813 332.336 623.907 333.906 623.976 335.715C624.116 339.334 624.16 343.938 624.156 348.637C624.152 353.337 624.101 358.137 624.052 362.149C624.041 363.051 624.03 363.913 624.019 364.725C623.984 367.527 623.956 369.732 623.958 370.934C623.958 370.934 623.958 370.934 623.958 370.934M637.902 323.289L623.801 379.986C623.101 378.482 623.255 375.501 623.378 373.114C623.42 372.288 623.459 371.533 623.458 370.935L623.958 370.934M637.902 323.289L638.967 323.306L639.077 323.471C639.043 325.285 639.068 329.746 639.099 335.303C639.124 339.741 639.153 344.879 639.159 349.925C639.166 355.71 639.143 361.379 639.049 365.754C639.003 367.943 638.939 369.802 638.853 371.188C638.81 371.882 638.762 372.451 638.708 372.881C638.664 373.232 638.621 373.453 638.588 373.569C638.438 373.702 638.181 373.881 637.811 374.098C637.387 374.347 636.848 374.627 636.226 374.927C634.984 375.527 633.434 376.192 631.853 376.826C628.695 378.093 625.488 379.204 624.386 379.425L624.127 379.451M623.958 370.934C623.959 371.532 623.921 372.276 623.881 373.072L623.877 373.137C623.837 373.92 623.794 374.756 623.778 375.583C623.762 376.434 623.775 377.261 623.848 377.995C623.905 378.566 623.996 379.058 624.127 379.451M623.958 370.934L624.127 379.451" stroke="#FE6501"/>
<path d="M376.816 281.028C376.828 279.88 376.841 278.731 376.853 277.583C385.97 278.878 395.146 280.652 404.193 282.444C404.207 285.519 404.274 288.676 404.341 291.863C404.507 299.638 404.676 307.593 404.086 314.977C402.035 314.535 399.973 314.105 397.908 313.674C390.861 312.206 383.775 310.728 376.943 308.728C376.615 299.518 376.716 290.265 376.816 281.028Z" stroke="#EBA661"/>
<path d="M196.817 208.164L170.041 208.877L169.997 171.728C178.556 171.775 187.129 172.521 195.681 173.266C196.112 173.304 196.544 173.341 196.975 173.379C196.898 178.888 196.904 184.399 196.91 189.905C196.91 190.199 196.91 190.493 196.91 190.786C196.916 196.583 196.917 202.375 196.817 208.164Z" stroke="#EBA661"/>
<path d="M130.703 297.986C130.698 296.592 130.714 294.263 130.733 291.454C130.757 288.056 130.785 283.956 130.786 279.955C130.788 275.932 130.762 272.005 130.677 268.98C130.635 267.466 130.578 266.184 130.503 265.23C130.465 264.753 130.424 264.365 130.378 264.076C130.361 263.964 130.344 263.87 130.327 263.794C126.476 264.046 122.598 264.373 118.71 264.701C112.445 265.23 106.157 265.761 99.9236 265.978L99.9482 290.949C99.9482 290.949 99.9482 290.949 99.9482 290.949L99.9482 290.949L99.4482 290.95C99.4501 291.89 99.405 292.909 99.3586 293.954C99.2521 296.353 99.1394 298.893 99.5767 300.96L130.703 297.986ZM130.703 297.986C130.606 297.944 130.51 297.902 130.414 297.86C129.996 297.677 129.581 297.497 129.158 297.304L129.158 297.304C127.522 296.56 125.379 296.314 123.031 296.361C120.673 296.408 118.057 296.751 115.443 297.222C112.063 297.833 108.628 298.671 105.746 299.375C104.193 299.754 102.801 300.094 101.665 300.338L101.665 300.338L101.656 300.34C101.009 300.491 100.576 300.54 99.9965 300.499L130.703 297.986Z" stroke="#72C2E9"/>
<path d="M409.102 282.997C410.471 283.172 413.609 283.691 417.717 284.411C422.497 285.248 428.551 286.349 434.557 287.47C440.563 288.591 446.52 289.732 451.104 290.65C453.397 291.108 455.344 291.511 456.782 291.826C457.029 291.881 457.262 291.933 457.478 291.982C456.111 292.273 454.46 292.57 452.717 292.883C451.711 293.063 450.675 293.249 449.644 293.443C447.775 293.795 445.933 294.172 444.365 294.585C442.813 294.994 441.47 295.454 440.637 295.992L440.637 295.992C439.967 296.425 439.581 296.882 439.35 297.439C439.165 297.888 439.087 298.392 439.007 298.917C438.994 298.998 438.982 299.08 438.969 299.162L438.963 299.199L438.962 299.236L438.817 315.62C438.489 315.707 438.169 315.792 437.856 315.875C430.93 317.712 427.478 318.627 424.011 318.703C420.392 318.781 416.75 317.945 409.115 316.189L409.102 282.997Z" stroke="#EBA661"/>
<path d="M194.663 258.04L194.685 258.038L194.706 258.034C195.412 257.906 195.901 257.879 196.536 257.975C196.603 258.359 196.668 258.995 196.722 259.869C196.793 260.993 196.845 262.453 196.883 264.146C196.959 267.53 196.976 271.83 196.965 276.212C196.953 281.273 196.904 286.452 196.866 290.441C196.842 293.033 196.822 295.122 196.82 296.35C193.072 297.112 189.268 297.726 185.447 298.323C184.872 298.412 184.295 298.502 183.719 298.591C180.341 299.116 176.955 299.641 173.604 300.256C172.73 300.394 171.868 300.497 170.989 300.562L170.988 300.562C170.871 300.57 170.745 300.583 170.648 300.592C170.597 300.597 170.554 300.601 170.525 300.603C170.414 300.612 170.375 300.609 170.355 300.606L170.354 300.606C170.34 300.603 170.304 300.598 170.147 300.473C169.838 296.999 169.908 293.414 169.978 289.843C170.005 288.466 170.032 287.09 170.037 285.724L170.037 285.723L170.073 260.177C176.514 259.748 182.958 259.14 189.385 258.534C191.146 258.368 192.905 258.202 194.663 258.04Z" stroke="#72C2E9"/>
<path d="M170.152 214.034L170.612 213.822C176.781 213.91 182.974 213.789 189.151 213.669C191.63 213.62 194.106 213.572 196.577 213.537C196.47 219.011 196.601 224.528 196.733 230.035C196.755 230.939 196.776 231.843 196.797 232.747C196.945 239.255 197.038 245.74 196.684 252.146C196.273 252.436 195.918 252.472 195.332 252.531C195.158 252.548 194.964 252.568 194.743 252.596C193.009 252.767 191.272 252.95 189.532 253.132C182.963 253.822 176.364 254.514 169.822 254.623C169.829 252.947 169.809 249.951 169.783 246.316C169.756 242.394 169.724 237.727 169.717 233.167C169.709 228.532 169.726 224.003 169.801 220.466C169.838 218.696 169.889 217.179 169.958 216.023C169.992 215.444 170.031 214.96 170.073 214.583C170.1 214.348 170.127 214.166 170.152 214.034Z" stroke="#72C2E9"/>
<path d="M189.395 303.16C191.773 302.711 194.134 302.264 196.463 301.859L196.549 301.87C196.563 301.94 196.577 302.026 196.592 302.127C196.638 302.444 196.68 302.881 196.718 303.427C196.794 304.518 196.851 306.012 196.893 307.789C196.976 311.342 196.998 316.004 196.99 320.787C196.98 326.635 196.926 332.677 196.886 337.07C196.864 339.501 196.847 341.427 196.844 342.537C190.694 343.568 184.53 345.124 178.434 346.663C175.977 347.284 173.531 347.902 171.102 348.481L170.536 348.482C170.522 348.465 170.508 348.45 170.495 348.435C170.474 348.41 170.455 348.389 170.442 348.374C170.383 348.302 170.354 348.259 170.34 348.227C170.339 348.218 170.334 348.189 170.327 348.129C170.318 348.039 170.308 347.914 170.299 347.752C170.281 347.43 170.265 346.982 170.251 346.422C170.223 345.304 170.205 343.757 170.194 341.911C170.172 338.222 170.178 333.351 170.196 328.367C170.216 323.027 170.249 317.554 170.275 313.266C170.295 309.997 170.311 307.416 170.313 306.107C176.619 305.576 183.07 304.356 189.395 303.16Z" stroke="#72C2E9"/>
<path d="M146.162 209.019C142.774 209.016 139.386 209.013 136.012 209.073C136.027 195.822 135.966 182.571 135.83 169.32C142.418 169.496 149.055 170.051 155.685 170.605C158.7 170.857 161.714 171.108 164.721 171.324C164.762 183.769 164.711 196.212 164.568 208.656C158.487 209.028 152.324 209.023 146.162 209.019Z" stroke="#EBA661"/>
<path d="M162.011 260.706L162.011 260.706L162.023 260.705C162.957 260.591 163.718 260.546 164.576 260.668C164.598 260.765 164.62 260.888 164.642 261.037C164.692 261.383 164.738 261.844 164.778 262.41C164.859 263.54 164.917 265.058 164.956 266.847C165.035 270.424 165.039 275.062 165.01 279.804C164.973 285.688 164.884 291.752 164.819 296.12C164.785 298.446 164.758 300.291 164.75 301.371C163.513 301.612 162.392 301.843 161.355 302.058C158.376 302.673 156.098 303.144 153.816 303.258C150.696 303.414 147.572 302.896 142.698 301.074L142.66 301.06L142.621 301.052C140.325 300.593 138.208 299.987 136.07 299.095L135.993 263.233L162.011 260.706Z" stroke="#72C2E9"/>
<path d="M135.856 241.574C135.739 232.414 135.622 223.254 136.119 214.185C142.783 213.968 149.47 213.982 156.158 213.996C158.972 214.003 161.786 214.009 164.599 213.997C164.693 217.333 164.93 226.746 164.996 235.791C165.031 240.559 165.018 245.22 164.911 248.833C164.858 250.64 164.782 252.178 164.677 253.333C164.625 253.911 164.566 254.385 164.501 254.745C164.467 254.934 164.434 255.077 164.405 255.18L163.504 255.315C158.82 255.333 154.119 255.859 149.441 256.418C149.068 256.463 148.695 256.507 148.322 256.552C144.176 257.051 140.05 257.546 135.937 257.721C135.993 252.351 135.925 246.962 135.856 241.574Z" stroke="#72C2E9"/>
<path d="M357.859 330.868C357.864 332.064 357.869 333.258 357.869 334.448C352.502 333.497 347.13 331.908 341.792 330.329C339.566 329.67 337.346 329.014 335.135 328.406L335.131 328.405L297.778 318.46L297.776 318.46C296.053 318.008 294.324 317.544 292.591 317.079C286.119 315.342 279.583 313.587 272.994 312.399C272.992 311.659 272.989 310.919 272.986 310.18C272.969 306.444 272.953 302.72 273.148 299.008C279.064 299.178 284.741 300.849 290.462 302.534C291.896 302.956 293.333 303.379 294.777 303.78L294.78 303.78L315.882 309.506L315.882 309.506L315.891 309.508C329.879 313.033 343.908 316.387 357.979 319.57C357.826 323.328 357.842 327.108 357.859 330.868Z" stroke="#EBA661"/>
<path d="M99.9018 209.522L99.8715 167.102C106.724 167.105 113.635 167.691 120.542 168.276C123.883 168.559 127.223 168.841 130.555 169.058C130.548 173.676 130.57 178.294 130.593 182.91C130.635 191.67 130.678 200.426 130.521 209.175C120.313 209.195 110.107 209.311 99.9018 209.522Z" stroke="#EBA661"/>
<path d="M618.22 330.853L618.22 330.853L618.824 379.651L618.326 379.605C618.326 379.605 618.326 379.605 618.326 379.605C618.295 379.938 618.255 380.117 618.193 380.265C618.146 380.376 618.079 380.487 617.964 380.641C617.559 380.63 616.986 380.561 616.261 380.435C615.398 380.286 614.353 380.062 613.179 379.784C610.831 379.228 607.991 378.457 605.115 377.635C599.781 376.111 594.341 374.416 591.721 373.6C591.679 373.587 591.637 373.574 591.596 373.561C591.61 373.458 591.623 373.342 591.636 373.214C591.677 372.802 591.716 372.244 591.752 371.565C591.824 370.204 591.888 368.333 591.943 366.113C592.053 361.674 592.128 355.828 592.166 349.858C592.237 338.564 592.176 326.776 591.961 323.251C592.29 323.252 592.733 323.284 593.284 323.351C594.131 323.454 595.183 323.633 596.377 323.868C598.764 324.338 601.693 325.03 604.629 325.785C610.333 327.251 615.997 328.935 617.773 329.672C617.778 329.682 617.783 329.692 617.788 329.702C618.005 330.133 618.161 330.444 618.22 330.853Z" stroke="#FE6501"/>
<path d="M60.4664 323.748L86.7827 318.619L87.3951 318.536C87.4044 318.545 87.4134 318.554 87.422 318.562C87.4463 318.586 87.4676 318.607 87.4836 318.623C87.5441 318.684 87.5815 318.729 87.6058 318.766C87.6093 318.784 87.6137 318.811 87.6186 318.847C87.6317 318.944 87.6451 319.082 87.6582 319.265C87.6844 319.628 87.7078 320.137 87.7284 320.778C87.7695 322.057 87.7988 323.837 87.8189 325.963C87.859 330.214 87.8616 335.835 87.847 341.57C87.8324 347.304 87.8004 353.151 87.7714 357.851C87.7601 359.686 87.7491 361.347 87.7399 362.759C87.7275 364.639 87.7181 366.076 87.7144 366.893C83.4297 368.255 79.0643 369.336 74.6778 370.412C74.5076 370.454 74.3373 370.496 74.167 370.537C69.8484 371.596 65.5115 372.659 61.2425 373.985C60.9549 374.028 60.6907 374.044 60.4024 374.048C60.3882 373.935 60.374 373.8 60.3602 373.642C60.3227 373.216 60.2888 372.643 60.2585 371.942C60.198 370.539 60.1529 368.639 60.121 366.397C60.0571 361.913 60.0463 356.073 60.0705 350.131C60.1168 338.74 60.2918 327.012 60.4664 323.748ZM87.6009 318.743C87.6 318.74 87.5995 318.738 87.5996 318.738C87.5996 318.738 87.6 318.739 87.6009 318.743Z" stroke="#72C2E9"/>
<path d="M272.924 330.237C272.898 326.125 272.925 322.013 273.005 317.902C283.42 319.831 293.835 322.787 304.157 325.716C307.373 326.629 310.581 327.539 313.776 328.415L313.908 327.933L313.776 328.415C320.814 330.344 327.875 332.186 334.932 334.027L335.987 334.302C343.275 336.203 350.559 338.109 357.817 340.114C357.861 346.266 357.875 352.418 357.858 358.57C352.266 356.982 346.731 355.107 341.198 353.233C339.313 352.595 337.429 351.957 335.542 351.33L300.479 339.606C300.479 339.606 300.478 339.605 300.478 339.605C297.433 338.566 294.29 337.61 291.142 336.652C289.548 336.168 287.953 335.683 286.369 335.186C281.745 333.737 277.187 332.184 272.924 330.237Z" stroke="#EBA661"/>
<path d="M117.892 214.581V214.581L117.898 214.581C121.073 214.443 124.258 214.425 127.449 214.407C128.494 214.401 129.539 214.396 130.585 214.386C130.471 228.964 130.537 243.542 130.782 258.119C125.601 258.851 120.285 259.155 115.01 259.457C113.955 259.518 112.902 259.578 111.852 259.642L111.844 259.642L111.837 259.643L99.9539 260.731L99.899 214.828C105.898 214.855 111.896 214.772 117.892 214.581Z" stroke="#72C2E9"/>
<path d="M94.5884 209.491C83.227 209.521 71.8671 209.665 60.5088 209.92L60.3072 164.545C67.7995 165.341 75.3986 165.751 82.9658 166.16C86.8862 166.372 90.7981 166.583 94.6823 166.847L94.7273 194.932C94.7294 196.296 94.7563 197.676 94.7834 199.06C94.8519 202.567 94.921 206.103 94.5884 209.491Z" stroke="#EBA661"/>
<path d="M87.8087 303.161L87.4214 303.252L87.423 303.649C87.4314 305.701 87.5371 307.776 87.6419 309.833C87.6885 310.748 87.7349 311.659 87.7725 312.563C84.8561 313.712 79.9673 314.702 74.8891 315.56C72.3724 315.985 69.8032 316.379 67.4292 316.743C64.9476 317.123 62.6794 317.471 60.9074 317.788L60.7961 317.741C60.7572 317.596 60.7138 317.38 60.6706 317.085C60.6071 316.651 60.5494 316.089 60.4977 315.411C60.3943 314.057 60.3163 312.266 60.2589 310.17C60.1443 305.979 60.1127 300.588 60.1229 295.063C60.1369 287.423 60.2304 279.547 60.2935 274.238C60.3179 272.177 60.3378 270.503 60.3467 269.38C67.8106 268.997 75.3225 268.265 82.8041 267.536C86.6995 267.157 90.5867 266.778 94.4545 266.45L94.5007 266.454C94.5009 266.455 94.501 266.455 94.5012 266.455C94.5194 266.474 94.535 266.49 94.5493 266.504C94.5737 266.529 94.5941 266.55 94.6167 266.574C94.6678 266.629 94.69 266.661 94.7001 266.679C94.702 266.691 94.7057 266.714 94.7103 266.753C94.7191 266.829 94.7281 266.936 94.737 267.075C94.7548 267.351 94.7708 267.735 94.7851 268.214C94.8136 269.171 94.8345 270.493 94.8496 272.065C94.8798 275.209 94.8863 279.344 94.8827 283.55C94.8793 287.455 94.8671 291.424 94.8571 294.714C94.847 298.011 94.8389 300.626 94.844 301.811C92.4828 302.188 90.1516 302.61 87.8087 303.161Z" stroke="#72C2E9"/>
<path d="M83.2353 214.966L83.2353 214.966L83.241 214.965C86.2663 214.852 89.2955 214.833 92.3316 214.814C93.1292 214.808 93.9272 214.803 94.7258 214.797C94.6246 225.955 94.6697 237.122 94.7148 248.283C94.7321 252.565 94.7494 256.846 94.7584 261.125C87.1175 261.842 79.4713 262.497 71.8199 263.089L71.8084 263.09L71.7969 263.091C68.5393 263.495 65.2552 263.687 61.9583 263.879C61.4239 263.91 60.8891 263.941 60.3541 263.973C60.4491 255.875 60.4224 247.775 60.3937 239.679L60.3922 239.257C60.3638 231.285 60.3355 223.317 60.4212 215.35C68.0271 215.29 75.6318 215.162 83.2353 214.966Z" stroke="#72C2E9"/>
<path d="M93.0313 378.29L93.0517 308.631L117.098 316.88L117.227 388.566C109.04 385.677 100.916 381.975 93.0313 378.29Z" stroke="#72C2E9"/>
<path d="M489.81 339.921C492.829 340.304 496.177 341.143 499.546 342.095C500.96 342.495 502.382 342.916 503.783 343.332C505.88 343.953 507.928 344.56 509.827 345.058L509.954 344.575L509.827 345.058C515.181 346.463 520.593 347.714 525.995 348.962C528.717 349.591 531.437 350.219 534.145 350.866C528.113 353.221 521.9 355.15 515.687 357.079C514.069 357.582 512.451 358.084 510.836 358.594L510.987 359.071L510.836 358.594C499.827 362.072 488.8 365.634 477.858 369.326C471.946 368.011 466.072 366.235 460.217 364.464C458.146 363.838 456.078 363.212 454.011 362.608L453.871 363.088L454.011 362.608C446.761 360.488 439.479 358.481 432.201 356.474C431.866 356.381 431.53 356.289 431.195 356.196C424.133 354.249 417.077 352.298 410.051 350.24C410.914 349.987 411.994 349.666 413.224 349.3C416.398 348.356 420.575 347.114 424.637 345.959C428.118 344.969 431.524 344.04 434.178 343.405C435.505 343.088 436.636 342.846 437.49 342.707C437.917 342.637 438.265 342.595 438.528 342.581C438.621 342.575 438.7 342.574 438.764 342.576C438.766 342.578 438.767 342.581 438.768 342.584C438.936 342.992 439.121 343.44 439.349 343.848C439.349 343.848 439.349 343.848 439.349 343.848L439.785 343.604C440.682 345.208 449.078 347.212 453.538 348.277C454.477 348.501 455.242 348.684 455.726 348.812L489.81 339.921ZM489.81 339.921C489.675 340.968 489.509 342.034 488.287 342.838C488.157 342.923 487.956 343.016 487.731 343.11C487.493 343.21 487.192 343.326 486.838 343.455C486.13 343.715 485.196 344.034 484.111 344.392C481.941 345.106 479.156 345.975 476.347 346.823C473.538 347.671 470.701 348.497 468.427 349.127C467.29 349.442 466.291 349.708 465.506 349.903C464.734 350.094 464.134 350.226 463.815 350.258C460.968 350.551 458.262 350.004 455.597 349.296L489.81 339.921Z" stroke="#FE6501"/>
<path d="M238.328 175.853C237.976 203.623 238.065 231.411 238.154 259.198C238.194 271.636 238.234 284.074 238.234 296.51C238.234 301.186 238.276 305.872 238.317 310.561C238.388 318.635 238.459 326.719 238.321 334.782C241.767 334.206 245.194 333.622 248.604 332.91L249.297 332.651C249.368 332.306 249.436 331.713 249.493 330.878C249.562 329.852 249.611 328.523 249.645 326.983C249.711 323.904 249.713 319.998 249.685 316.014C249.655 311.579 249.589 307.039 249.536 303.448C249.494 300.601 249.462 298.351 249.462 297.224V297.224L249.962 297.224L249.462 297.223L238.328 175.853ZM238.328 175.853C240.765 175.856 243.217 176.098 245.685 176.342C246.909 176.463 248.137 176.585 249.37 176.678L238.328 175.853ZM238.312 335.29C238.145 335.318 237.978 335.346 237.81 335.374C237.814 335.205 237.817 335.035 237.82 334.866L238.312 335.29Z" stroke="#72C2E9"/>
<path d="M148.045 311.025L148.045 311.025L148.056 311.023C148.467 310.958 148.577 310.945 148.673 310.958C148.735 310.967 148.802 310.989 148.959 311.064C149.086 315.216 149.012 319.382 148.938 323.558C148.892 326.14 148.846 328.727 148.847 331.316C148.847 331.316 148.847 331.316 148.847 331.316L148.87 379.317C146.235 380.345 143.63 381.407 141.033 382.467C135.121 384.877 129.247 387.273 123.13 389.221L123.116 389.226L123.102 389.231C123.01 389.266 122.892 389.289 122.735 389.304C122.709 389.306 122.682 389.308 122.655 389.31C122.632 389.151 122.609 388.946 122.586 388.694C122.532 388.109 122.484 387.3 122.441 386.294C122.355 384.284 122.29 381.512 122.242 378.219C122.146 371.634 122.117 362.982 122.122 354.221C122.127 342.187 122.196 329.932 122.237 322.559C122.253 319.651 122.265 317.503 122.267 316.427C125.983 315.758 129.649 314.887 133.3 314.02C133.851 313.89 134.401 313.759 134.951 313.629C139.291 312.605 143.623 311.627 148.045 311.025Z" stroke="#72C2E9"/>
<path d="M342.544 202.763L342.544 202.763L342.551 202.763C346.219 202.601 349.893 202.543 353.573 202.485C354.987 202.463 356.402 202.44 357.818 202.412L357.88 268.971L346.061 266.666L346.054 266.664L346.047 266.663C344.379 266.39 342.706 266.133 341.031 265.876C336.359 265.158 331.681 264.44 327.128 263.368C326.668 257.748 326.765 251.981 326.862 246.25C326.895 244.259 326.929 242.273 326.939 240.299C327.032 227.88 327.035 215.461 326.949 203.041C332.148 203.01 337.347 202.917 342.544 202.763Z" stroke="#EBA661"/>
<path d="M376.925 219.451C376.978 213.573 377.031 207.7 377.063 201.837C383.312 201.726 389.567 201.736 395.825 201.745C398.653 201.749 401.481 201.754 404.31 201.747C404.463 226.732 404.456 251.717 404.291 276.702C400.193 275.908 396.063 275.267 391.943 274.628C391.537 274.565 391.132 274.502 390.727 274.439C386.132 273.724 381.553 272.992 377.023 272.031C376.607 254.569 376.766 236.988 376.925 219.451Z" stroke="#EBA661"/>
<path d="M403.823 354.869L403.825 354.869C404.069 354.83 404.511 354.838 405.168 354.912C405.811 354.985 406.62 355.115 407.575 355.299C409.485 355.665 411.955 356.236 414.813 356.954C420.527 358.389 427.766 360.405 435.121 362.522C443.651 364.978 452.349 367.574 458.988 369.556C462.79 370.69 465.917 371.624 467.95 372.214C463.398 374.077 458.55 375.434 453.737 376.782C452.035 377.259 450.336 377.734 448.657 378.231L448.799 378.71L448.657 378.231C444.937 379.33 441.238 380.491 437.545 381.655C437.3 381.732 437.056 381.809 436.812 381.886C433.362 382.974 429.917 384.06 426.456 385.098C409.907 389.897 393.312 394.975 376.872 400.138C376.893 394.764 376.837 389.386 376.781 384.012C376.752 381.206 376.723 378.402 376.705 375.6C376.699 374.595 376.684 373.587 376.669 372.579C376.611 368.665 376.553 364.74 376.985 360.913C377.044 360.875 377.123 360.83 377.226 360.78C377.442 360.673 377.734 360.554 378.1 360.423C378.831 360.162 379.816 359.871 380.984 359.561C383.318 358.942 386.344 358.259 389.443 357.607C395.641 356.304 402.099 355.135 403.823 354.869Z" stroke="#EBA661"/>
<path d="M459.722 274.683L459.722 274.684C459.72 275.116 459.741 275.779 459.765 276.564C459.772 276.792 459.78 277.03 459.787 277.275C459.82 278.376 459.85 279.645 459.843 280.883C459.835 282.124 459.789 283.318 459.67 284.272C459.611 284.75 459.535 285.153 459.442 285.465C459.378 285.679 459.314 285.823 459.259 285.916C457.442 286.211 455.127 285.944 452.73 285.489C451.498 285.254 450.262 284.974 449.078 284.704L448.923 284.669C447.799 284.412 446.722 284.166 445.758 283.985L445.751 283.983L409.11 277.656L409.155 201.746L425.939 201.627C430.355 201.661 434.763 201.638 439.169 201.616C445.973 201.582 452.77 201.547 459.571 201.718C459.795 226.039 459.846 250.361 459.722 274.683Z" stroke="#EBA661"/>
<path d="M213.576 339.787C209.833 340.487 206.08 341.19 202.351 342.006C202.059 327.842 202.171 313.65 202.283 299.459C202.339 292.402 202.395 285.346 202.401 278.293L202.401 278.292L202.111 173.632C209.078 173.571 216.074 174.099 223.072 174.627C226.309 174.872 229.547 175.116 232.783 175.302C232.81 188.66 232.859 202.021 232.907 215.383C233.052 255.551 233.197 295.731 232.791 335.874C231.181 336.166 229.58 336.514 227.991 336.86C227.567 336.952 227.145 337.044 226.723 337.134L226.716 337.136C222.598 338.088 218.438 338.876 214.264 339.658L213.576 339.787Z" stroke="#72C2E9"/>
<path d="M271.083 293.613C272.445 293.586 273.9 293.984 275.265 294.358C275.423 294.401 275.579 294.444 275.735 294.486L275.737 293.968M271.083 293.613L321.86 202.08C321.517 206.836 321.632 211.739 321.745 216.59C321.792 218.558 321.837 220.517 321.853 222.455C322.033 236.28 322.033 250.105 321.855 263.931C316.729 264.716 278.713 270.573 277.111 272.105M271.083 293.613C269.885 293.637 269.346 293.95 268.529 294.763L271.083 293.613ZM275.737 293.968C275.907 294.014 276.074 294.059 276.236 294.101L276.317 277.121M275.737 293.968C275.636 293.94 275.533 293.912 275.43 293.884C274.062 293.509 272.515 293.085 271.073 293.113H271.073C270.431 293.126 269.921 293.217 269.45 293.44C268.985 293.66 268.597 293.99 268.176 294.408L268.092 294.492L268.054 294.605C267.596 295.987 267.322 298.449 267.157 301.41C266.99 304.391 266.932 307.941 266.927 311.537C266.922 315.133 266.971 318.783 267.019 321.965C267.027 322.464 267.035 322.952 267.042 323.427C267.078 325.754 267.11 327.753 267.111 329.194C263.221 330.074 259.321 330.911 255.412 331.705L255.037 177.436C265.652 179.238 276.163 181.549 286.687 183.863C288.635 184.292 290.583 184.72 292.532 185.145C305.058 187.878 317.63 190.481 330.413 192.091L330.393 197.764C330.174 197.759 329.937 197.752 329.688 197.744C328.744 197.715 327.613 197.68 326.543 197.736C325.738 197.778 324.931 197.871 324.208 198.062C323.491 198.251 322.818 198.547 322.321 199.023C321.485 199.82 321.428 200.852 321.381 201.716C321.375 201.828 321.369 201.938 321.361 202.044M275.737 293.968L275.817 277.126M276.317 277.121C276.312 276.885 276.298 276.628 276.284 276.358C276.207 274.901 276.11 273.061 277.111 272.105M276.317 277.121L275.817 277.133C275.817 277.131 275.817 277.129 275.817 277.126M276.317 277.121L275.817 277.119L275.817 277.126M277.111 272.105L276.765 271.743C276.029 272.447 275.813 273.49 275.756 274.444C275.717 275.107 275.754 275.817 275.786 276.422C275.8 276.68 275.812 276.918 275.817 277.126M277.111 272.105L321.361 202.044M321.361 202.044C321.016 206.826 321.132 211.767 321.246 216.627C321.292 218.59 321.338 220.539 321.353 222.459L321.353 222.461C321.531 236.141 321.533 249.821 321.36 263.501L321.361 202.044Z" stroke="#72C2E9"/>
<path d="M465.226 220.543C465.402 213.042 465.584 205.24 464.528 198.133L464.652 198.095L464.598 197.125L464.366 197.082L464.515 196.918L463.971 196.61C463.838 196.534 463.667 196.487 463.511 196.453C463.342 196.415 463.136 196.382 462.9 196.352C462.428 196.291 461.807 196.239 461.063 196.194C459.571 196.104 457.555 196.04 455.18 195.997C450.429 195.91 444.225 195.906 437.883 195.94C429.225 195.987 420.277 196.105 414.437 196.182C412.121 196.212 410.294 196.237 409.168 196.247L409.169 190.14C416.976 188.693 424.94 187.824 432.902 186.955C437.132 186.493 441.361 186.032 445.566 185.484L445.57 185.483C467.546 182.447 489.544 179.57 511.561 176.854C511.573 176.934 511.585 177.033 511.597 177.151C511.624 177.434 511.648 177.809 511.669 178.268C511.711 179.184 511.738 180.413 511.754 181.862C511.786 184.758 511.772 188.515 511.74 192.37C511.706 196.454 511.65 200.651 511.605 204.044C511.566 207.05 511.534 209.424 511.534 210.529L511.424 340.476C509.029 340.102 506.65 339.396 504.262 338.688C503.285 338.398 502.307 338.107 501.325 337.839C497.254 336.722 493.142 335.792 488.987 335.048C489.032 326.155 489.028 317.261 488.975 308.368C488.968 307.348 488.996 306.265 489.026 305.143L489.03 305.009C489.059 303.931 489.088 302.822 489.09 301.716C489.093 299.417 488.974 297.1 488.457 295.066L487.972 295.189L488.457 295.066C488.445 295.02 488.433 294.972 488.421 294.925C488.239 294.199 488.02 293.324 487.216 292.728C486.169 291.952 484.461 291.469 482.528 291.118C480.573 290.762 478.291 290.528 476.032 290.302L475.751 290.274C473.579 290.056 471.44 289.842 469.604 289.533C467.667 289.206 466.16 288.785 465.308 288.203C465.193 288.123 465.145 288.039 465.111 287.892C465.091 287.807 465.079 287.709 465.064 287.579C465.063 287.563 465.061 287.547 465.059 287.53C465.048 287.429 465.036 287.31 465.016 287.187L465.097 228.496V228.496C465.1 225.915 465.163 223.249 465.226 220.543Z" stroke="#EBA661"/>
<path d="M10.3235 290.338L10.3235 290.337L10.3089 161.648C20.234 161.916 30.1563 162.638 40.0838 163.36C45.0624 163.722 50.0423 164.085 55.0245 164.39L54.959 377.18C54.4317 376.889 53.7333 376.537 52.9047 376.141C51.5307 375.483 49.7581 374.681 47.7191 373.789C43.6404 372.003 38.4837 369.848 33.2923 367.74C28.1007 365.632 22.8712 363.57 18.6466 361.97C14.8289 360.524 11.7936 359.44 10.3613 359.053C10.0645 343.226 10.1524 327.365 10.2402 311.51C10.2792 304.45 10.3183 297.391 10.3235 290.338Z" stroke="#72C2E9"/>
<path d="M736.293 254.487V254.487L736.364 323.424C736.367 327.13 736.394 330.838 736.421 334.545C736.479 342.56 736.537 350.574 736.358 358.567L736.358 358.567C736.338 359.478 736.254 360.154 735.944 360.955C735.852 361.016 735.688 361.113 735.436 361.246C735.096 361.426 734.639 361.65 734.078 361.914C732.956 362.442 731.435 363.118 729.639 363.895C726.049 365.447 721.373 367.392 716.621 369.329C707.101 373.209 697.337 377.031 695.376 377.602L695.273 377.632L695.191 377.701C694.511 378.28 693.501 378.725 692.38 379.092C691.607 379.346 690.822 379.552 690.09 379.743C690.116 379.626 690.136 379.494 690.154 379.358C690.185 379.116 690.213 378.809 690.24 378.443C690.292 377.711 690.338 376.725 690.377 375.522C690.456 373.114 690.511 369.82 690.546 365.917C690.617 358.109 690.613 347.853 690.576 337.357C690.531 324.648 690.436 311.592 690.368 302.095C690.323 295.901 690.29 291.22 690.287 289.139C690.276 274.481 690.35 259.812 690.424 245.14C690.554 219.334 690.684 193.517 690.347 167.728C690.344 167.508 690.344 167.285 690.343 167.059C690.34 165.773 690.336 164.406 689.931 163.088C702.661 162.574 715.614 161.678 728.287 160.445C730.586 160.271 732.89 160.276 735.216 160.28C735.439 160.281 735.663 160.281 735.887 160.282C735.964 160.417 736.018 160.524 736.085 160.704L736.553 160.528L736.085 160.703C736.085 160.703 736.085 160.703 736.085 160.704C736.087 160.714 736.106 160.799 736.129 161.013C736.15 161.22 736.171 161.501 736.191 161.856C736.232 162.566 736.267 163.549 736.298 164.771C736.361 167.215 736.405 170.602 736.436 174.64C736.497 182.717 736.502 193.392 736.481 204.333C736.455 217.974 736.39 232.033 736.343 241.976C736.315 247.979 736.294 252.482 736.293 254.487Z" stroke="#FE6501"/>
<path d="M508.833 171.906C502.421 173.235 495.772 173.936 489.16 174.634C485.509 175.019 481.869 175.403 478.286 175.89C464.916 177.719 451.531 179.431 438.132 181.024L508.833 171.906ZM508.833 171.906C509.009 171.869 509.186 171.832 509.362 171.795C509.261 171.646 509.159 171.497 509.056 171.349C508.879 171.386 508.701 171.423 508.524 171.459C508.628 171.608 508.731 171.757 508.833 171.906ZM409.496 160.711V160.71L408.996 160.71L409.496 160.711ZM409.501 184.089C409.334 184.105 409.168 184.122 409.001 184.138L409.001 184.641C409.168 184.624 409.335 184.608 409.501 184.591L409.501 184.089ZM409.026 147.286L409.05 147.785C409.207 147.778 409.366 147.771 409.525 147.764L409.526 147.287L409.026 147.286ZM424.183 141.591L424.526 141.954C424.526 141.954 424.527 141.953 424.527 141.953L424.183 141.591ZM393.684 35.6671C393.684 35.6674 393.685 35.6677 393.685 35.668L394.068 35.3463L393.684 35.6669L393.684 35.6671ZM382.777 22.0605C382.777 22.0605 382.777 22.0605 382.777 22.0605L383.169 21.7498L382.777 22.0605ZM377.458 15.517C377.46 15.2848 377.462 15.0526 377.464 14.8203C377.301 14.6623 377.136 14.508 376.969 14.358C376.966 14.5827 376.964 14.8074 376.962 15.032C377.129 15.1897 377.294 15.3516 377.458 15.517ZM377.146 196.708C377.143 196.545 377.139 196.383 377.136 196.22L376.648 196.219L376.646 196.719L377.146 196.708ZM404.317 196.315L404.316 196.815L404.816 196.817L404.817 196.317L404.317 196.315ZM404.279 146.239C404.284 146.331 404.288 146.422 404.292 146.514C404.372 146.56 404.452 146.605 404.533 146.651L404.779 146.215L404.279 146.239ZM416.666 146.675C416.666 146.675 416.666 146.675 416.666 146.675L416.507 146.201L416.666 146.675ZM491.407 151.646L491.787 151.322L491.407 151.646Z" stroke="#EBA661"/>
<path d="M317.168 140.964L317.168 140.964C320.525 145.371 325.406 147.421 330.651 148.15L330.675 158.248L330.675 158.251C330.751 167.634 330.737 177.017 330.631 186.401C325.79 186.342 321.055 185.356 316.275 184.361C314.711 184.035 313.143 183.708 311.564 183.413L311.559 183.412C301.773 181.674 292.017 179.778 282.291 177.723C279.047 177.012 275.755 176.184 272.436 175.348C265.098 173.501 257.628 171.621 250.254 170.905C247.392 170.628 244.473 170.666 241.614 170.703C241.318 170.707 241.022 170.711 240.728 170.714C247.762 161.391 255.449 152.439 263.103 143.526C265.488 140.747 267.871 137.973 270.229 135.192L270.232 135.189L309.018 88.7293L309.019 88.7275L351.832 37.9284C351.832 37.9283 351.832 37.9281 351.833 37.9279C353.816 35.5984 355.763 33.1725 357.717 30.7361C361.978 25.4247 366.28 20.0634 371.098 15.5417C371.107 15.8067 371.115 16.1213 371.123 16.4842C371.151 17.7492 371.176 19.5875 371.197 21.9224C371.241 26.5915 371.272 33.239 371.294 41.2412C371.336 57.2452 371.339 78.6641 371.322 100.503C371.287 143.268 371.173 187.641 371.119 196.12C365.296 196.151 359.473 196.38 353.657 196.614L353.035 196.64C347.428 196.866 341.827 197.092 336.222 197.15L336.279 147.849C337.91 147.163 339.491 146.413 340.989 145.381C345.407 142.335 348.152 137.644 349.089 132.431C350.204 126.222 349.104 119.926 345.378 114.734L344.972 115.026L345.378 114.734C342.965 111.374 339.549 108.848 335.356 108.174C330.704 107.426 325.601 108.611 321.791 111.401C317.291 114.696 314.449 120.07 313.66 125.498C312.892 130.787 313.841 136.595 317.168 140.964Z" stroke="#EBA661"/>
<path d="M692.662 411.354L692.661 411.355L608.946 446.338L608.945 446.338L458.937 509.303L458.935 509.304L405.157 531.588C405.156 531.588 405.155 531.589 405.155 531.589C402.521 532.659 399.902 533.764 397.285 534.868C391.187 537.441 385.097 540.01 378.856 542.133L378.779 542.141C378.774 542.115 378.769 542.087 378.763 542.056C378.718 541.8 378.676 541.444 378.638 540.995C378.562 540.098 378.506 538.87 378.467 537.408C378.388 534.485 378.375 530.656 378.395 526.739C378.414 522.823 378.465 518.823 378.512 515.56C378.529 514.383 378.546 513.3 378.56 512.353C378.582 510.932 378.6 509.813 378.607 509.127C394.394 502.4 410.442 496.27 426.494 490.138C434.757 486.982 443.02 483.825 451.25 480.587C518.591 454.614 585.719 428.101 652.635 401.048L652.636 401.048L709.415 377.904L709.416 377.904C711.615 377.001 714.147 376.024 716.803 375C723.208 372.528 730.332 369.779 735.247 367.125C735.753 367.046 736.102 367.024 736.553 367.084C736.586 367.37 736.616 367.8 736.641 368.368C736.677 369.194 736.699 370.264 736.71 371.497C736.731 373.963 736.705 377.069 736.647 380.165C736.59 383.26 736.5 386.341 736.393 388.754C736.34 389.961 736.283 390.998 736.224 391.785C736.194 392.179 736.164 392.506 736.134 392.759C736.117 392.906 736.101 393.018 736.087 393.1C735.718 393.375 734.965 393.798 733.855 394.348C732.627 394.956 731.019 395.693 729.145 396.517C725.398 398.163 720.607 400.149 715.712 402.136C710.155 404.392 704.455 406.654 700.009 408.417C696.634 409.756 693.981 410.809 692.662 411.354Z" stroke="#FE6501"/>
<path d="M10.2556 364.555C14.7291 366.041 19.1694 368.007 23.5722 369.955C25.3336 370.735 27.0889 371.512 28.838 372.254L28.8398 372.255L58.4077 384.672C58.4082 384.673 58.4086 384.673 58.409 384.673C65.2708 387.603 72.2183 390.371 79.1574 393.137C83.5322 394.88 87.9038 396.622 92.2484 398.403C92.2489 398.403 92.2494 398.403 92.2499 398.403L131.615 414.763L131.622 414.766L370.765 510.083L370.681 542.918C361.757 539.574 353.043 535.796 344.311 532.01C339.308 529.841 334.299 527.67 329.243 525.576L10.2556 364.555ZM10.2556 364.555L10.3255 393.149L225.583 482.117L225.586 482.118L329.24 525.575L10.2556 364.555Z" stroke="#EBA661"/>
<path d="M28.572 157.135L16.2011 156.645C19.9249 154.992 23.7946 153.602 27.6723 152.21C30.1172 151.332 32.5652 150.453 34.9819 149.506L34.984 149.505L74.4318 133.847L74.4337 133.846L174.521 93.6428L174.524 93.6413L290.171 46.1554L290.173 46.1543C296.989 43.3114 303.795 40.4152 310.605 37.5173C328.077 30.0825 345.574 22.6369 363.314 16.0534C335.169 48.7384 307.425 81.7596 280.081 115.117C264.696 133.607 249.188 151.994 233.556 170.276C228.968 169.805 224.332 169.577 219.711 169.35C216.492 169.192 213.28 169.034 210.098 168.794L210.097 168.794C186.319 167.047 162.53 165.473 138.73 164.071L28.5836 157.135L28.5836 157.135L28.572 157.135Z" stroke="#EBA661"/>
<path d="M414.004 26.6804L414.003 26.6798C407.607 24.1815 401.245 21.6009 394.916 18.9382L414.004 26.6804ZM414.004 26.6804C439.832 36.6655 465.495 47.4242 491.14 58.1751C505.417 64.1603 519.688 70.1432 533.979 75.9888L533.98 75.9892M414.004 26.6804L533.98 75.9892M533.98 75.9892L681.891 136.136C681.892 136.136 681.893 136.137 681.894 136.137C686.483 138.043 691.067 140.007 695.653 141.973C701.163 144.334 706.677 146.697 712.211 148.963C713.601 149.533 715.269 150.125 717.009 150.743C718.102 151.132 719.223 151.53 720.321 151.939C722.688 152.82 724.963 153.756 726.737 154.773M533.98 75.9892L726.737 154.773M726.737 154.773C723.458 155.303 719.912 155.379 716.438 155.454C714.98 155.485 713.534 155.516 712.127 155.58L712.107 155.581L712.088 155.584C705.482 156.403 698.818 156.768 692.133 157.072C691.084 157.12 690.034 157.166 688.983 157.213C683.348 157.461 677.701 157.709 672.087 158.194L591.176 164.976C591.175 164.976 591.175 164.976 591.175 164.976C585.007 165.449 578.841 165.903 572.677 166.358C553.549 167.768 534.435 169.178 515.322 171.127C511.339 166.185 507.102 161.41 502.874 156.645C499.801 153.183 496.734 149.727 493.774 146.218C485.003 135.82 476.16 125.452 467.311 115.078C446.307 90.4536 425.272 65.793 405.109 40.6139C403.422 38.5067 401.01 35.7426 398.384 32.7339C396.762 30.8747 395.058 28.9221 393.393 26.9733C389.433 22.3379 385.702 17.7334 383.713 14.3724C386.415 15.186 389.042 16.3538 391.677 17.5249C392.754 18.0034 393.832 18.4824 394.916 18.9381L726.737 154.773Z" stroke="#EBA661"/>
<path d="M672.989 377.622C663.358 375.331 653.751 372.943 644.169 370.457C644.274 369.829 644.357 368.876 644.427 367.697C644.522 366.11 644.596 364.049 644.65 361.67C644.76 356.911 644.796 350.864 644.777 344.756C644.739 332.556 644.482 320.053 644.154 317.101L644.128 316.862L643.924 316.733C643.564 316.507 642.832 316.234 641.895 315.933C640.935 315.625 639.695 315.268 638.268 314.882C635.414 314.11 631.795 313.217 628.133 312.357C620.826 310.642 613.289 309.047 611.323 308.82L611.167 308.802L611.029 308.876C607.724 310.657 603.547 312.279 599.246 313.851C598.198 314.234 597.142 314.614 596.091 314.993C592.841 316.163 589.632 317.318 586.816 318.499L586.369 318.686L586.542 319.139C586.56 319.186 586.58 319.235 586.599 319.285C586.659 319.436 586.72 319.59 586.746 319.695C586.802 319.95 586.859 320.585 586.906 321.564C586.953 322.528 586.99 323.781 587.018 325.232C587.074 328.133 587.093 331.814 587.086 335.534C587.07 342.987 586.944 350.548 586.784 352.328C586.733 352.872 586.56 353.31 586.254 353.795L586.09 354.055L586.248 354.319C586.448 354.65 586.592 354.946 586.685 355.287L586.685 355.288C587.042 356.586 586.92 357.621 586.369 358.776C584.675 357.968 581.9 357.217 579.108 356.553C577.652 356.207 576.191 355.885 574.845 355.588C573.313 355.25 571.931 354.945 570.875 354.675C562.656 352.578 554.43 350.588 546.208 348.6C536.455 346.24 526.707 343.882 516.984 341.348C516.737 330.306 516.815 319.227 516.893 308.151C516.934 302.388 516.975 296.625 516.969 290.869C516.969 290.869 516.969 290.869 516.969 290.869L516.898 176.387C524.443 175.95 532 175.281 539.549 174.612C545.182 174.113 550.809 173.614 556.423 173.213L556.425 173.213L681.03 163.878C681.032 163.878 681.034 163.878 681.036 163.878C681.299 163.864 681.552 163.844 681.799 163.825C682.24 163.791 682.664 163.759 683.103 163.76C683.668 163.761 684.19 163.821 684.668 163.998C685.265 169.249 685.098 174.864 684.933 180.391C684.861 182.811 684.79 185.215 684.783 187.563V187.565L684.859 231.657V231.658L684.838 376.4C684.838 376.401 684.838 376.401 684.838 376.402C684.836 376.601 684.837 376.795 684.837 376.986C684.84 378.104 684.842 379.083 684.451 379.99C682.886 379.394 680.937 379.002 678.997 378.672C678.348 378.562 677.7 378.458 677.065 378.357C675.596 378.122 674.192 377.898 672.989 377.622Z" stroke="#FE6501"/>
<path d="M637.968 217.986L637.968 217.986C639.122 218.158 640.289 218.278 641.443 218.397C641.717 218.425 641.991 218.453 642.264 218.482C643.62 218.625 644.955 218.784 646.264 219.04C646.451 219.338 646.611 219.653 646.689 219.944C646.767 220.242 646.839 220.84 646.9 221.707C646.96 222.562 647.006 223.642 647.04 224.876C647.107 227.343 647.125 230.414 647.109 233.517C647.078 239.733 646.912 246.036 646.74 247.865L646.74 247.868C646.698 248.349 646.562 248.648 646.299 249.111C646.11 249.242 645.714 249.447 645.098 249.715C644.425 250.008 643.546 250.353 642.524 250.731C640.481 251.486 637.885 252.366 635.251 253.214C632.617 254.062 629.951 254.877 627.769 255.504C625.57 256.136 623.904 256.564 623.244 256.656L623.208 256.661L623.172 256.671C623.139 256.681 623.11 256.691 623.086 256.699C623.075 256.703 623.067 256.706 623.059 256.708C623.047 256.712 623.038 256.716 623.026 256.72C622.993 256.731 622.982 256.733 622.979 256.733C622.71 256.772 622.106 256.738 621.179 256.611C620.275 256.488 619.126 256.287 617.809 256.028C615.176 255.511 611.894 254.766 608.611 253.96C605.328 253.154 602.05 252.287 599.425 251.527C598.112 251.147 596.966 250.795 596.066 250.491C595.312 250.236 594.756 250.024 594.421 249.864C594.327 249.455 594.243 248.827 594.172 248.005C594.09 247.045 594.029 245.855 593.988 244.508C593.907 241.815 593.907 238.513 593.976 235.208C594.046 231.903 594.184 228.601 594.378 225.909C594.475 224.563 594.585 223.374 594.708 222.415C594.816 221.568 594.929 220.927 595.043 220.519C596.018 219.915 597.456 219.34 599.182 218.798C600.991 218.231 603.079 217.713 605.211 217.241C607.343 216.77 609.511 216.347 611.478 215.969C611.76 215.915 612.039 215.861 612.313 215.809C613.927 215.5 615.377 215.222 616.504 214.977C618.849 214.741 622.799 215.273 626.911 215.985C628.68 216.292 630.478 216.632 632.171 216.952C634.383 217.37 636.415 217.755 637.968 217.986Z" stroke="#DF7C9A"/>
<path d="M607.946 221.012C609.815 220.662 611.682 220.302 613.546 219.934C619.443 219.356 626.611 219.827 632.541 221.297C630.816 221.784 628.93 221.935 627.071 222.084C626.761 222.108 626.452 222.133 626.144 222.159C619.936 222.552 614.038 221.907 607.946 221.012Z" stroke="#DF7C9A"/>
<path d="M626.624 251.052L626.612 251.055L626.599 251.058C626.292 251.145 626.192 251.16 626.111 251.158C626.05 251.156 625.985 251.143 625.851 251.106C625.47 249.839 625.333 248.163 625.336 246.23C625.339 244.18 625.5 241.892 625.666 239.579C625.671 239.514 625.676 239.448 625.68 239.383C625.841 237.142 626.004 234.882 626.023 232.834C626.041 230.994 625.944 229.286 625.611 227.892C630.114 227.322 636.799 225.882 640.778 224.113C641.474 223.976 641.95 223.889 642.524 223.977C642.615 224.77 642.691 226.193 642.743 227.975C642.802 230.035 642.827 232.54 642.808 235.022C642.789 237.506 642.726 239.962 642.608 241.927C642.549 242.91 642.476 243.764 642.39 244.434C642.315 245.022 642.233 245.425 642.158 245.649C640.659 246.816 637.838 247.932 634.824 248.879C631.767 249.84 628.599 250.6 626.624 251.052Z" stroke="#DF7C9A"/>
<path d="M598.402 224.822C598.402 224.823 598.402 224.824 598.403 224.825C598.452 225.079 598.496 225.386 598.536 225.736C598.617 226.438 598.685 227.334 598.741 228.356C598.853 230.403 598.916 232.978 598.934 235.554C598.952 238.131 598.924 240.715 598.85 242.781C598.814 243.813 598.766 244.721 598.707 245.434C598.649 246.127 598.577 246.693 598.475 247.004C598.444 247.1 598.416 247.182 598.389 247.255C602.589 247.82 606.735 248.802 610.832 249.773C611.511 249.934 612.188 250.094 612.864 250.252L598.402 224.822ZM598.402 224.822C599.297 224.76 600.64 224.828 602.271 225.002C604.256 225.212 606.607 225.571 608.963 225.993C613.559 226.818 618.113 227.878 619.994 228.551C620.037 228.617 620.058 228.65 620.079 228.692C620.105 228.743 620.133 228.812 620.194 229.011C620.257 229.221 620.321 229.711 620.371 230.47C620.42 231.21 620.454 232.156 620.473 233.242C620.511 235.413 620.492 238.123 620.424 240.812C620.356 243.502 620.24 246.165 620.085 248.242C620.007 249.282 619.92 250.169 619.826 250.836C619.779 251.17 619.731 251.442 619.684 251.647C619.678 251.673 619.672 251.698 619.666 251.721C618.676 251.655 617.589 251.439 616.48 251.173C615.882 251.029 615.285 250.872 614.698 250.718L614.631 250.7C614.025 250.541 613.428 250.384 612.864 250.252L598.402 224.822Z" stroke="#DF7C9A"/>
<path d="M0 409.315L6.90245 418.571L11.4679 407.965L0 409.315ZM371.987 569.438L365.085 560.181L360.519 570.787L371.987 569.438ZM7.87128 413.792L363.325 566.798L364.116 564.961L8.66204 411.954L7.87128 413.792Z" fill="#FE6501"/>
<path d="M382.879 569.438L394.342 570.823L389.811 560.203L382.879 569.438ZM749.5 413L738.036 411.614L742.568 422.235L749.5 413ZM391.549 566.825L741.615 417.452L740.83 415.612L390.764 564.986L391.549 566.825Z" fill="#FE6501"/>
<path d="M373.617 502.992L379.391 492.992H367.844L373.617 502.992ZM373.617 5.73862L367.844 15.7386H379.391L373.617 5.73862ZM374.617 493.992L374.617 14.7386H372.617L372.617 493.992H374.617Z" fill="#FE6501"/>
</svg>
