<svg width="177" height="24" viewBox="0 0 177 24" fill="none" xmlns="http://www.w3.org/2000/svg">
<path fill-rule="evenodd" clip-rule="evenodd" d="M47.0354 14.1335C39.4538 16.3024 30.7004 18.4608 22.2797 18.9997C15.0823 19.4597 8.13024 18.7452 2.43991 15.7053C1.63777 15.2773 0.633283 15.5716 0.199482 16.3637C-0.23498 17.1551 0.0639164 18.1463 0.866051 18.575C7.0735 21.8902 14.6425 22.7574 22.4932 22.255C31.0654 21.7069 39.9769 19.5341 47.7106 17.3339C48.608 19.1276 50.4662 20.7999 53.7395 22.0337C58.7672 23.9292 65.632 23.9057 72.8638 22.8376C83.3524 21.2892 94.6352 17.5969 101.889 14.9733C102.187 14.8662 102.63 14.696 103.172 14.4715C103.338 14.8317 103.523 15.1866 103.728 15.5351C105.507 18.5717 108.654 21.027 111.862 21.9039C132.203 27.4643 155.943 20.8019 175.272 15.3797C176.145 15.1338 176.654 14.2308 176.409 13.3649C176.158 12.4991 175.245 11.996 174.366 12.242C155.579 17.5127 132.513 24.1628 112.741 18.7596C110.308 18.0941 107.94 16.2071 106.591 13.9025C106.439 13.6455 106.307 13.3825 106.181 13.1157C108.846 11.8127 111.981 9.99615 113.667 8.05176C115.399 6.05844 115.829 3.9307 114.322 1.92106C113.025 0.203083 111.061 0.0569249 109.018 0.94756C106.816 1.90149 104.548 4.13163 103.814 5.17821C102.438 7.13304 102.002 9.25362 102.253 11.3213C101.605 11.5915 101.079 11.7924 100.754 11.9099C93.6585 14.4754 82.6302 18.0967 72.3744 19.6111C65.7755 20.5859 59.5072 20.7157 54.9192 18.9867C52.9625 18.2487 51.6697 17.3875 50.968 16.3879C52.3528 15.9794 53.6879 15.5775 54.9635 15.1938C57.4863 14.435 62.7389 13.179 66.4917 10.9403C69.476 9.16033 71.4996 6.73897 71.3819 3.70364C71.3217 2.14421 70.4071 1.10348 68.9516 0.520167C66.7766 -0.350894 63.0153 0.0705989 61.6147 0.364215C57.3666 1.25289 51.6968 4.93159 48.8916 9.0768C47.7721 10.7308 47.1062 12.4612 47.0354 14.1335ZM50.525 13.1143C51.7252 12.7581 52.8851 12.4083 53.9994 12.073C56.3542 11.3644 61.2768 10.2388 64.7809 8.1483C66.6365 7.04169 68.1515 5.71587 68.0781 3.82825C68.0721 3.68144 67.9246 3.63969 67.7944 3.57966C67.5927 3.48766 67.3619 3.42436 67.1159 3.37477C65.4514 3.03939 63.2157 3.36366 62.3004 3.55549C58.7361 4.30127 53.9947 7.41035 51.6412 10.8887C51.1439 11.6234 50.7478 12.3718 50.525 13.1143ZM105.52 9.81932C107.074 9.03047 108.701 8.07653 109.983 7.03844C110.665 6.48709 111.24 5.92011 111.604 5.33157C111.908 4.84482 112.027 4.34629 111.663 3.86476C111.518 3.66967 111.299 3.66578 111.075 3.70232C110.837 3.74147 110.592 3.82497 110.347 3.93262C108.734 4.63339 107.067 6.27047 106.532 7.03844C105.903 7.92907 105.593 8.87127 105.52 9.81932Z" fill="#2ECA7F"/>
</svg>
